{"glyphs":{"0":{"ha":814,"x_min":56,"x_max":758,"o":"m 407 -21 q 147 103 239 -21 q 56 463 56 228 q 147 821 56 697 q 407 944 239 944 q 667 820 575 944 q 758 461 758 696 q 667 103 758 226 q 407 -21 575 -21 m 407 154 q 519 234 479 154 q 560 460 560 314 q 519 688 560 606 q 407 771 479 771 q 294 691 335 771 q 254 465 254 611 q 294 237 254 319 q 407 154 335 154 z "},"1":{"ha":608,"x_min":56,"x_max":578,"o":"m 69 168 l 229 168 l 229 674 l 67 739 l 67 807 l 317 932 l 424 932 l 424 168 l 578 168 l 564 0 l 56 0 l 69 168 z "},"2":{"ha":718,"x_min":39,"x_max":647,"o":"m 67 146 q 295 397 219 310 q 408 547 371 483 q 446 661 446 610 q 417 736 446 708 q 343 764 389 764 q 182 660 256 764 l 39 761 q 185 900 103 854 q 364 946 268 946 q 508 915 444 946 q 609 824 572 883 q 646 686 646 765 q 570 463 646 576 q 324 179 494 349 l 647 179 l 632 0 l 67 0 l 67 146 z "},"3":{"ha":675,"x_min":6,"x_max":613,"o":"m 151 -21 q 6 -8 81 -21 l 31 164 q 169 150 111 150 q 347 197 281 150 q 414 321 414 244 q 386 397 414 369 q 308 425 358 425 q 232 411 274 425 l 204 544 q 326 613 271 565 q 381 710 381 661 q 358 759 381 740 q 296 778 335 778 q 215 756 257 778 q 138 696 174 735 l 21 824 q 155 913 79 881 q 313 946 231 946 q 447 919 389 946 q 538 844 506 892 q 569 736 569 796 q 479 550 569 636 q 578 462 544 519 q 613 331 613 404 q 555 151 613 232 q 392 25 497 71 q 151 -21 286 -21 z "},"4":{"ha":797,"x_min":35,"x_max":742,"o":"m 453 208 l 49 208 l 35 351 l 451 925 l 635 925 l 635 364 l 742 364 l 728 208 l 635 208 l 635 0 l 453 0 l 453 208 m 453 364 l 453 683 l 236 364 l 453 364 z "},"5":{"ha":682,"x_min":14,"x_max":619,"o":"m 160 -21 q 14 -8 89 -21 l 39 164 q 178 150 119 150 q 355 201 289 150 q 421 333 421 251 q 388 422 421 392 q 293 451 356 451 q 171 424 229 451 l 93 481 l 119 925 l 592 925 l 581 761 l 281 761 l 272 604 q 333 610 296 610 q 541 537 463 610 q 619 338 619 464 q 562 153 619 235 q 400 25 504 71 q 160 -21 296 -21 z "},"6":{"ha":753,"x_min":63,"x_max":690,"o":"m 365 -22 q 141 74 219 -22 q 63 392 63 171 q 167 795 63 644 q 475 946 271 946 q 608 931 542 946 l 601 769 q 488 779 529 779 q 336 729 390 779 q 264 564 282 679 q 436 596 358 596 q 624 521 558 596 q 690 311 690 446 q 602 65 690 153 q 365 -22 514 -22 m 385 140 q 470 179 439 140 q 501 296 501 218 q 396 439 501 439 q 253 404 340 439 q 250 336 250 354 q 285 194 250 247 q 385 140 319 140 z "},"7":{"ha":657,"x_min":36,"x_max":608,"o":"m 110 14 l 418 760 l 36 760 l 50 925 l 608 925 l 608 778 l 314 -28 l 110 14 z "},"8":{"ha":779,"x_min":60,"x_max":717,"o":"m 379 -21 q 143 51 226 -21 q 60 253 60 124 q 92 395 60 332 q 185 501 124 458 q 96 697 96 583 q 136 832 96 776 q 244 917 176 888 q 396 946 313 946 q 601 883 519 946 q 683 713 683 821 q 656 594 683 650 q 579 492 628 538 q 680 396 643 451 q 717 258 717 340 q 626 56 717 132 q 379 -21 536 -21 m 447 560 q 486 616 472 583 q 500 682 500 649 q 466 759 500 733 q 386 785 432 785 q 315 764 344 785 q 285 703 285 743 q 324 626 285 656 q 447 560 364 597 m 393 142 q 492 169 457 142 q 528 243 528 196 q 488 327 528 296 q 364 396 449 358 l 313 419 q 260 348 278 388 q 243 269 243 308 q 283 176 243 210 q 393 142 322 142 z "},"9":{"ha":753,"x_min":63,"x_max":690,"o":"m 278 -22 q 144 -7 211 -22 l 151 154 q 265 144 225 144 q 417 194 363 144 q 489 360 471 244 q 317 328 394 328 q 128 403 194 328 q 63 613 63 478 q 151 858 63 771 q 388 946 239 946 q 612 849 533 946 q 690 532 690 753 q 586 128 690 279 q 278 -22 482 -22 m 357 485 q 500 519 413 485 q 503 588 503 569 q 468 730 503 676 q 368 783 433 783 q 283 744 314 783 q 251 628 251 706 q 357 485 251 485 z "}," ":{"ha":278,"x_min":0,"x_max":0,"o":""},"A":{"ha":943,"x_min":10,"x_max":933,"o":"m 349 925 l 590 925 l 933 0 l 725 0 l 650 211 l 286 211 l 215 0 l 10 0 l 349 925 m 590 383 l 465 738 l 344 383 l 590 383 z "},"Á":{"ha":943,"x_min":10,"x_max":933,"o":"m 349 925 l 590 925 l 933 0 l 725 0 l 650 211 l 286 211 l 215 0 l 10 0 l 349 925 m 590 383 l 465 738 l 344 383 l 590 383 m 429 1069 q 514 1161 483 1113 l 478 1235 q 506 1301 478 1272 q 575 1331 533 1331 q 647 1301 618 1331 q 676 1225 676 1271 q 611 1097 676 1154 q 454 1015 546 1040 l 429 1069 z "},"Ă":{"ha":943,"x_min":10,"x_max":933,"o":"m 349 925 l 590 925 l 933 0 l 725 0 l 650 211 l 286 211 l 215 0 l 10 0 l 349 925 m 590 383 l 465 738 l 344 383 l 590 383 m 472 1018 q 317 1073 388 1018 q 217 1231 247 1128 l 313 1263 q 383 1178 342 1207 q 472 1150 425 1150 q 561 1179 518 1150 q 632 1263 604 1208 l 728 1231 q 626 1073 697 1128 q 472 1018 556 1018 z "},"Â":{"ha":943,"x_min":10,"x_max":933,"o":"m 349 925 l 590 925 l 933 0 l 725 0 l 650 211 l 286 211 l 215 0 l 10 0 l 349 925 m 590 383 l 465 738 l 344 383 l 590 383 m 239 1111 l 472 1294 l 706 1111 l 644 1015 l 472 1108 l 300 1015 l 239 1111 z "},"Ä":{"ha":943,"x_min":10,"x_max":933,"o":"m 349 925 l 590 925 l 933 0 l 725 0 l 650 211 l 286 211 l 215 0 l 10 0 l 349 925 m 590 383 l 465 738 l 344 383 l 590 383 m 310 1024 q 233 1056 265 1024 q 201 1133 201 1088 q 235 1211 201 1179 q 314 1243 268 1243 q 390 1211 358 1243 q 422 1133 422 1179 q 388 1056 422 1089 q 310 1024 354 1024 m 631 1024 q 554 1056 586 1024 q 522 1133 522 1088 q 556 1210 522 1178 q 635 1243 590 1243 q 711 1211 679 1243 q 743 1133 743 1179 q 711 1056 743 1088 q 631 1024 679 1024 z "},"À":{"ha":943,"x_min":10,"x_max":933,"o":"m 349 925 l 590 925 l 933 0 l 725 0 l 650 211 l 286 211 l 215 0 l 10 0 l 349 925 m 590 383 l 465 738 l 344 383 l 590 383 m 476 1015 q 404 1045 433 1015 q 375 1121 375 1075 q 440 1249 375 1192 q 597 1331 506 1306 l 622 1276 q 538 1185 568 1233 l 574 1111 q 546 1044 574 1074 q 476 1015 518 1015 z "},"Ā":{"ha":943,"x_min":10,"x_max":933,"o":"m 349 925 l 590 925 l 933 0 l 725 0 l 650 211 l 286 211 l 215 0 l 10 0 l 349 925 m 590 383 l 465 738 l 344 383 l 590 383 m 239 1164 l 703 1164 l 704 1040 l 240 1040 l 239 1164 z "},"Ą":{"ha":944,"x_min":10,"x_max":935,"o":"m 811 -306 q 695 -269 738 -306 q 653 -169 653 -232 q 675 -87 653 -124 q 735 -25 697 -50 l 651 211 l 286 211 l 215 0 l 10 0 l 349 925 l 590 925 l 933 0 l 917 -4 q 818 -54 857 -19 q 779 -129 779 -89 q 801 -174 779 -158 q 854 -190 822 -190 q 935 -167 896 -190 l 928 -274 q 876 -297 907 -289 q 811 -306 846 -306 m 590 383 l 465 738 l 344 383 l 590 383 z "},"Å":{"ha":943,"x_min":10,"x_max":933,"o":"m 349 925 l 590 925 l 933 0 l 725 0 l 650 211 l 286 211 l 215 0 l 10 0 l 349 925 m 590 383 l 465 738 l 344 383 l 590 383 m 472 1007 q 345 1057 397 1007 q 293 1181 293 1107 q 345 1304 293 1254 q 472 1354 397 1354 q 599 1304 547 1354 q 651 1181 651 1254 q 599 1057 651 1107 q 472 1007 547 1007 m 472 1106 q 522 1128 503 1106 q 542 1181 542 1150 q 522 1233 542 1211 q 472 1256 503 1256 q 422 1233 442 1256 q 403 1181 403 1211 q 422 1128 403 1150 q 472 1106 442 1106 z "},"Ã":{"ha":943,"x_min":10,"x_max":933,"o":"m 349 925 l 590 925 l 933 0 l 725 0 l 650 211 l 286 211 l 215 0 l 10 0 l 349 925 m 590 383 l 465 738 l 344 383 l 590 383 m 578 1017 q 511 1030 542 1017 q 439 1068 481 1043 q 390 1095 408 1086 q 353 1104 371 1104 q 311 1085 331 1104 q 275 1019 292 1065 l 200 1076 q 267 1205 222 1163 q 372 1247 313 1247 q 439 1234 408 1247 q 511 1196 469 1221 q 560 1169 542 1178 q 597 1160 579 1160 q 639 1179 619 1160 q 675 1244 658 1199 l 750 1188 q 683 1059 728 1101 q 578 1017 638 1017 z "},"Æ":{"ha":1240,"x_min":0,"x_max":1164,"o":"m 456 925 l 1164 925 l 1164 750 l 800 750 l 800 565 l 1101 565 l 1101 396 l 800 396 l 800 175 l 1164 175 l 1164 0 l 601 0 l 601 211 l 308 211 l 206 0 l 0 0 l 456 925 m 601 383 l 601 761 l 576 761 l 393 383 l 601 383 z "},"B":{"ha":790,"x_min":97,"x_max":735,"o":"m 97 925 l 407 925 q 620 860 542 925 q 699 685 699 796 q 589 490 699 558 q 735 285 735 432 q 693 137 735 201 q 577 36 651 72 q 410 0 503 0 l 97 0 l 97 925 m 360 549 q 467 581 429 549 q 506 669 506 613 q 378 772 506 772 l 290 772 l 290 549 l 360 549 m 379 154 q 497 189 454 154 q 539 282 539 224 q 503 364 539 335 q 399 393 467 393 l 290 393 l 290 154 l 379 154 z "},"C":{"ha":825,"x_min":57,"x_max":760,"o":"m 529 -18 q 182 101 307 -18 q 57 439 57 221 q 116 701 57 588 q 283 877 175 815 q 533 939 392 939 q 756 897 649 939 l 718 718 q 535 761 624 761 q 335 678 408 761 q 261 458 261 596 q 339 240 261 318 q 554 163 417 163 q 729 192 644 163 l 760 21 q 529 -18 658 -18 z "},"Ć":{"ha":825,"x_min":57,"x_max":760,"o":"m 529 -18 q 182 101 307 -18 q 57 439 57 221 q 116 701 57 588 q 283 877 175 815 q 533 939 392 939 q 756 897 649 939 l 718 718 q 535 761 624 761 q 335 678 408 761 q 261 458 261 596 q 339 240 261 318 q 554 163 417 163 q 729 192 644 163 l 760 21 q 529 -18 658 -18 m 446 1069 q 531 1161 500 1113 l 494 1235 q 522 1301 494 1272 q 592 1331 550 1331 q 664 1301 635 1331 q 693 1225 693 1271 q 628 1097 693 1154 q 471 1015 563 1040 l 446 1069 z "},"Č":{"ha":825,"x_min":57,"x_max":760,"o":"m 529 -18 q 182 101 307 -18 q 57 439 57 221 q 116 701 57 588 q 283 877 175 815 q 533 939 392 939 q 756 897 649 939 l 718 718 q 535 761 624 761 q 335 678 408 761 q 261 458 261 596 q 339 240 261 318 q 554 163 417 163 q 729 192 644 163 l 760 21 q 529 -18 658 -18 m 256 1199 l 317 1294 l 489 1201 l 661 1294 l 722 1199 l 489 1015 l 256 1199 z "},"Ç":{"ha":825,"x_min":57,"x_max":760,"o":"m 494 -78 q 601 -123 561 -89 q 642 -210 642 -157 q 593 -301 642 -265 q 476 -337 544 -337 q 378 -320 426 -337 q 297 -275 329 -303 l 339 -215 q 401 -248 368 -236 q 458 -260 433 -260 q 508 -217 508 -260 q 404 -175 508 -172 l 375 -156 l 425 -11 q 153 133 250 17 q 57 439 57 249 q 116 701 57 588 q 283 877 175 815 q 533 939 392 939 q 756 897 649 939 l 718 718 q 535 761 624 761 q 335 678 408 761 q 261 458 261 596 q 339 240 261 318 q 554 163 417 163 q 729 192 644 163 l 760 21 q 529 -18 658 -18 l 521 -18 l 494 -78 z "},"Ċ":{"ha":825,"x_min":57,"x_max":760,"o":"m 529 -18 q 182 101 307 -18 q 57 439 57 221 q 116 701 57 588 q 283 877 175 815 q 533 939 392 939 q 756 897 649 939 l 718 718 q 535 761 624 761 q 335 678 408 761 q 261 458 261 596 q 339 240 261 318 q 554 163 417 163 q 729 192 644 163 l 760 21 q 529 -18 658 -18 m 488 1029 q 413 1060 444 1029 q 382 1135 382 1092 q 415 1209 382 1178 q 490 1240 447 1240 q 565 1209 533 1240 q 596 1135 596 1178 q 563 1060 596 1092 q 488 1029 531 1029 z "},"D":{"ha":951,"x_min":96,"x_max":896,"o":"m 243 -1 q 96 0 144 -1 l 96 925 q 272 926 156 926 q 449 925 390 926 q 685 870 585 924 q 841 718 786 817 q 896 488 896 619 q 833 233 896 343 q 655 63 769 124 q 389 0 540 1 q 243 -1 340 -1 m 388 175 q 608 257 528 175 q 689 482 689 339 q 620 681 689 611 q 422 750 551 750 l 297 750 l 297 175 l 388 175 z "},"Ð":{"ha":951,"x_min":-32,"x_max":896,"o":"m 449 925 q 685 870 585 924 q 841 718 786 817 q 896 488 896 619 q 833 233 896 343 q 655 63 769 124 q 389 0 540 1 q 243 -1 340 -1 q 96 0 144 -1 l 96 392 l -32 392 l -18 510 l 96 510 l 96 925 q 272 926 156 926 q 449 925 390 926 m 388 175 q 608 257 528 175 q 689 482 689 339 q 620 681 689 611 q 422 750 551 750 l 297 750 l 297 510 l 479 510 l 465 392 l 297 392 l 297 175 l 388 175 z "},"Ď":{"ha":951,"x_min":96,"x_max":896,"o":"m 243 -1 q 96 0 144 -1 l 96 925 q 272 926 156 926 q 449 925 390 926 q 685 870 585 924 q 841 718 786 817 q 896 488 896 619 q 833 233 896 343 q 655 63 769 124 q 389 0 540 1 q 243 -1 340 -1 m 388 175 q 608 257 528 175 q 689 482 689 339 q 620 681 689 611 q 422 750 551 750 l 297 750 l 297 175 l 388 175 m 188 1199 l 249 1294 l 421 1201 l 593 1294 l 654 1199 l 421 1015 l 188 1199 z "},"Đ":{"ha":951,"x_min":-32,"x_max":896,"o":"m 449 925 q 685 870 585 924 q 841 718 786 817 q 896 488 896 619 q 833 233 896 343 q 655 63 769 124 q 389 0 540 1 q 243 -1 340 -1 q 96 0 144 -1 l 96 392 l -32 392 l -18 510 l 96 510 l 96 925 q 272 926 156 926 q 449 925 390 926 m 388 175 q 608 257 528 175 q 689 482 689 339 q 620 681 689 611 q 422 750 551 750 l 297 750 l 297 510 l 479 510 l 465 392 l 297 392 l 297 175 l 388 175 z "},"E":{"ha":736,"x_min":97,"x_max":660,"o":"m 97 925 l 660 925 l 660 750 l 296 750 l 296 565 l 597 565 l 597 396 l 296 396 l 296 175 l 660 175 l 660 0 l 97 0 l 97 925 z "},"É":{"ha":736,"x_min":97,"x_max":660,"o":"m 97 925 l 660 925 l 660 750 l 296 750 l 296 565 l 597 565 l 597 396 l 296 396 l 296 175 l 660 175 l 660 0 l 97 0 l 97 925 m 339 1069 q 424 1161 393 1113 l 388 1235 q 415 1301 388 1272 q 485 1331 443 1331 q 557 1301 528 1331 q 586 1225 586 1271 q 521 1097 586 1154 q 364 1015 456 1040 l 339 1069 z "},"Ě":{"ha":736,"x_min":97,"x_max":660,"o":"m 97 925 l 660 925 l 660 750 l 296 750 l 296 565 l 597 565 l 597 396 l 296 396 l 296 175 l 660 175 l 660 0 l 97 0 l 97 925 m 149 1199 l 210 1294 l 382 1201 l 554 1294 l 615 1199 l 382 1015 l 149 1199 z "},"Ê":{"ha":736,"x_min":97,"x_max":660,"o":"m 97 925 l 660 925 l 660 750 l 296 750 l 296 565 l 597 565 l 597 396 l 296 396 l 296 175 l 660 175 l 660 0 l 97 0 l 97 925 m 149 1111 l 382 1294 l 615 1111 l 554 1015 l 382 1108 l 210 1015 l 149 1111 z "},"Ë":{"ha":736,"x_min":97,"x_max":660,"o":"m 97 925 l 660 925 l 660 750 l 296 750 l 296 565 l 597 565 l 597 396 l 296 396 l 296 175 l 660 175 l 660 0 l 97 0 l 97 925 m 219 1024 q 143 1056 175 1024 q 111 1133 111 1088 q 144 1211 111 1179 q 224 1243 178 1243 q 300 1211 268 1243 q 332 1133 332 1179 q 298 1056 332 1089 q 219 1024 264 1024 m 540 1024 q 464 1056 496 1024 q 432 1133 432 1088 q 466 1210 432 1178 q 544 1243 500 1243 q 621 1211 589 1243 q 653 1133 653 1179 q 621 1056 653 1088 q 540 1024 589 1024 z "},"Ė":{"ha":736,"x_min":97,"x_max":660,"o":"m 97 925 l 660 925 l 660 750 l 296 750 l 296 565 l 597 565 l 597 396 l 296 396 l 296 175 l 660 175 l 660 0 l 97 0 l 97 925 m 381 1029 q 306 1060 338 1029 q 275 1135 275 1092 q 308 1209 275 1178 q 383 1240 340 1240 q 458 1209 426 1240 q 489 1135 489 1178 q 456 1060 489 1092 q 381 1029 424 1029 z "},"È":{"ha":736,"x_min":97,"x_max":660,"o":"m 97 925 l 660 925 l 660 750 l 296 750 l 296 565 l 597 565 l 597 396 l 296 396 l 296 175 l 660 175 l 660 0 l 97 0 l 97 925 m 386 1015 q 314 1045 343 1015 q 285 1121 285 1075 q 350 1249 285 1192 q 507 1331 415 1306 l 532 1276 q 447 1185 478 1233 l 483 1111 q 456 1044 483 1074 q 386 1015 428 1015 z "},"Ē":{"ha":736,"x_min":97,"x_max":660,"o":"m 97 925 l 660 925 l 660 750 l 296 750 l 296 565 l 597 565 l 597 396 l 296 396 l 296 175 l 660 175 l 660 0 l 97 0 l 97 925 m 149 1164 l 613 1164 l 614 1040 l 150 1040 l 149 1164 z "},"Ę":{"ha":736,"x_min":97,"x_max":664,"o":"m 583 -190 q 664 -167 625 -190 l 657 -274 q 606 -297 636 -289 q 540 -306 575 -306 q 424 -269 467 -306 q 382 -169 382 -232 q 417 -67 382 -111 q 507 0 453 -24 l 97 0 l 97 925 l 660 925 l 660 750 l 296 750 l 296 565 l 597 565 l 597 396 l 296 396 l 296 175 l 660 175 l 660 0 q 550 -54 592 -21 q 508 -129 508 -87 q 530 -174 508 -158 q 583 -190 551 -190 z "},"F":{"ha":718,"x_min":97,"x_max":663,"o":"m 97 925 l 663 925 l 663 750 l 299 750 l 299 539 l 600 539 l 600 365 l 299 365 l 299 0 l 97 0 l 97 925 z "},"G":{"ha":956,"x_min":63,"x_max":868,"o":"m 560 -21 q 294 34 406 -21 q 122 192 182 89 q 63 436 63 294 q 126 699 63 585 q 303 875 189 813 q 568 938 418 938 q 731 918 654 938 q 868 863 808 899 l 819 696 q 699 748 765 729 q 568 767 632 767 q 406 727 476 767 q 298 616 336 688 q 260 450 260 544 q 344 231 260 311 q 574 151 428 151 q 682 160 632 151 l 682 351 l 565 351 l 565 514 l 867 514 l 867 33 q 560 -21 724 -21 z "},"Ğ":{"ha":956,"x_min":63,"x_max":868,"o":"m 560 -21 q 294 34 406 -21 q 122 192 182 89 q 63 436 63 294 q 126 699 63 585 q 303 875 189 813 q 568 938 418 938 q 731 918 654 938 q 868 863 808 899 l 819 696 q 699 748 765 729 q 568 767 632 767 q 406 727 476 767 q 298 616 336 688 q 260 450 260 544 q 344 231 260 311 q 574 151 428 151 q 682 160 632 151 l 682 351 l 565 351 l 565 514 l 867 514 l 867 33 q 560 -21 724 -21 m 547 1018 q 392 1073 463 1018 q 292 1231 322 1128 l 388 1263 q 458 1178 417 1207 q 547 1150 500 1150 q 636 1179 593 1150 q 707 1263 679 1208 l 803 1231 q 701 1073 772 1128 q 547 1018 631 1018 z "},"Ģ":{"ha":956,"x_min":63,"x_max":868,"o":"m 560 -21 q 294 34 406 -21 q 122 192 182 89 q 63 436 63 294 q 126 699 63 585 q 303 875 189 813 q 568 938 418 938 q 731 918 654 938 q 868 863 808 899 l 819 696 q 699 748 765 729 q 568 767 632 767 q 406 727 476 767 q 298 616 336 688 q 260 450 260 544 q 344 231 260 311 q 574 151 428 151 q 682 160 632 151 l 682 351 l 565 351 l 565 514 l 867 514 l 867 33 q 560 -21 724 -21 m 451 -368 q 511 -269 497 -307 l 454 -185 q 482 -119 454 -149 q 553 -90 510 -90 q 625 -120 596 -90 q 654 -196 654 -150 q 611 -319 654 -250 q 475 -453 568 -387 l 451 -368 z "},"Ġ":{"ha":956,"x_min":63,"x_max":868,"o":"m 560 -21 q 294 34 406 -21 q 122 192 182 89 q 63 436 63 294 q 126 699 63 585 q 303 875 189 813 q 568 938 418 938 q 731 918 654 938 q 868 863 808 899 l 819 696 q 699 748 765 729 q 568 767 632 767 q 406 727 476 767 q 298 616 336 688 q 260 450 260 544 q 344 231 260 311 q 574 151 428 151 q 682 160 632 151 l 682 351 l 565 351 l 565 514 l 867 514 l 867 33 q 560 -21 724 -21 m 546 1029 q 472 1060 503 1029 q 440 1135 440 1092 q 473 1209 440 1178 q 549 1240 506 1240 q 623 1209 592 1240 q 654 1135 654 1178 q 622 1060 654 1092 q 546 1029 589 1029 z "},"H":{"ha":994,"x_min":97,"x_max":897,"o":"m 97 925 l 300 925 l 300 567 l 693 567 l 693 925 l 897 925 l 897 0 l 693 0 l 693 394 l 300 394 l 300 0 l 97 0 l 97 925 z "},"Ħ":{"ha":994,"x_min":97,"x_max":897,"o":"m 897 925 l 897 0 l 693 0 l 693 394 l 300 394 l 300 0 l 97 0 l 97 925 l 300 925 l 300 803 l 693 803 l 693 925 l 897 925 m 693 567 l 693 685 l 300 685 l 300 567 l 693 567 z "},"I":{"ha":418,"x_min":108,"x_max":310,"o":"m 108 925 l 310 925 l 310 0 l 108 0 l 108 925 z "},"Í":{"ha":418,"x_min":108,"x_max":414,"o":"m 108 925 l 310 925 l 310 0 l 108 0 l 108 925 m 167 1069 q 251 1161 221 1113 l 215 1235 q 243 1301 215 1272 q 313 1331 271 1331 q 385 1301 356 1331 q 414 1225 414 1271 q 349 1097 414 1154 q 192 1015 283 1040 l 167 1069 z "},"Î":{"ha":418,"x_min":-24,"x_max":443,"o":"m 108 925 l 310 925 l 310 0 l 108 0 l 108 925 m -24 1111 l 210 1294 l 443 1111 l 382 1015 l 210 1108 l 38 1015 l -24 1111 z "},"Ï":{"ha":418,"x_min":-61,"x_max":481,"o":"m 108 925 l 310 925 l 310 0 l 108 0 l 108 925 m 47 1024 q -29 1056 3 1024 q -61 1133 -61 1088 q -28 1211 -61 1179 q 51 1243 6 1243 q 128 1211 96 1243 q 160 1133 160 1179 q 126 1056 160 1089 q 47 1024 92 1024 m 368 1024 q 292 1056 324 1024 q 260 1133 260 1088 q 294 1210 260 1178 q 372 1243 328 1243 q 449 1211 417 1243 q 481 1133 481 1179 q 449 1056 481 1088 q 368 1024 417 1024 z "},"İ":{"ha":418,"x_min":103,"x_max":317,"o":"m 108 925 l 310 925 l 310 0 l 108 0 l 108 925 m 208 1029 q 134 1060 165 1029 q 103 1135 103 1092 q 135 1209 103 1178 q 211 1240 168 1240 q 285 1209 254 1240 q 317 1135 317 1178 q 284 1060 317 1092 q 208 1029 251 1029 z "},"Ì":{"ha":418,"x_min":108,"x_max":360,"o":"m 108 925 l 310 925 l 310 0 l 108 0 l 108 925 m 214 1015 q 142 1045 171 1015 q 113 1121 113 1075 q 178 1249 113 1192 q 335 1331 243 1306 l 360 1276 q 275 1185 306 1233 l 311 1111 q 283 1044 311 1074 q 214 1015 256 1015 z "},"Ī":{"ha":418,"x_min":-24,"x_max":442,"o":"m 108 925 l 310 925 l 310 0 l 108 0 l 108 925 m -24 1164 l 440 1164 l 442 1040 l -22 1040 l -24 1164 z "},"Į":{"ha":418,"x_min":32,"x_max":314,"o":"m 190 -306 q 74 -269 117 -306 q 32 -169 32 -232 q 53 -89 32 -125 q 108 -28 74 -53 l 108 925 l 310 925 l 310 0 q 200 -54 242 -21 q 158 -129 158 -87 q 180 -174 158 -158 q 233 -190 201 -190 q 314 -167 275 -190 l 307 -274 q 256 -297 286 -289 q 190 -306 225 -306 z "},"J":{"ha":469,"x_min":-18,"x_max":372,"o":"m 129 -21 q -18 8 49 -21 l 35 176 q 108 154 76 154 q 178 240 178 154 l 178 925 l 372 925 l 372 224 q 306 45 372 111 q 129 -21 240 -21 z "},"K":{"ha":854,"x_min":97,"x_max":840,"o":"m 97 925 l 299 925 l 299 567 l 600 925 l 840 925 l 460 486 l 821 0 l 576 0 l 299 374 l 299 0 l 97 0 l 97 925 z "},"Ķ":{"ha":854,"x_min":97,"x_max":840,"o":"m 97 925 l 299 925 l 299 567 l 600 925 l 840 925 l 460 486 l 821 0 l 576 0 l 299 374 l 299 0 l 97 0 l 97 925 m 325 -368 q 385 -269 371 -307 l 328 -185 q 356 -119 328 -149 q 426 -90 383 -90 q 499 -120 469 -90 q 528 -196 528 -150 q 485 -319 528 -250 q 349 -453 442 -387 l 325 -368 z "},"L":{"ha":674,"x_min":97,"x_max":632,"o":"m 97 925 l 299 925 l 299 175 l 632 175 l 632 0 l 97 0 l 97 925 z "},"Ĺ":{"ha":674,"x_min":97,"x_max":632,"o":"m 97 925 l 299 925 l 299 175 l 632 175 l 632 0 l 97 0 l 97 925 m 156 1069 q 240 1161 210 1113 l 204 1235 q 232 1301 204 1272 q 301 1331 260 1331 q 374 1301 344 1331 q 403 1225 403 1271 q 338 1097 403 1154 q 181 1015 272 1040 l 156 1069 z "},"Ľ":{"ha":701,"x_min":97,"x_max":663,"o":"m 450 672 q 514 779 493 724 l 461 846 q 483 925 457 892 q 561 960 514 960 q 633 928 603 960 q 663 846 663 896 q 612 723 663 783 q 486 624 561 663 l 450 672 m 97 925 l 299 925 l 299 175 l 632 175 l 632 0 l 97 0 l 97 925 z "},"Ļ":{"ha":674,"x_min":97,"x_max":632,"o":"m 97 925 l 299 925 l 299 175 l 632 175 l 632 0 l 97 0 l 97 925 m 260 -368 q 319 -269 306 -307 l 263 -185 q 290 -119 263 -149 q 361 -90 318 -90 q 433 -120 404 -90 q 463 -196 463 -150 q 419 -319 463 -250 q 283 -453 376 -387 l 260 -368 z "},"Ł":{"ha":674,"x_min":-4,"x_max":632,"o":"m 632 175 l 632 0 l 97 0 l 97 342 l 22 286 l -4 421 l 97 497 l 97 925 l 299 925 l 299 647 l 397 721 l 424 586 l 299 493 l 299 175 l 632 175 z "},"M":{"ha":1265,"x_min":63,"x_max":1200,"o":"m 300 653 l 242 0 l 63 0 l 150 925 l 400 925 l 636 261 l 865 925 l 1115 925 l 1200 0 l 1019 0 l 956 650 l 711 -10 l 546 -25 l 300 653 z "},"N":{"ha":999,"x_min":97,"x_max":901,"o":"m 97 925 l 333 925 l 717 276 l 717 925 l 901 925 l 901 0 l 668 0 l 282 653 l 282 0 l 97 0 l 97 925 z "},"Ń":{"ha":999,"x_min":97,"x_max":901,"o":"m 97 925 l 333 925 l 717 276 l 717 925 l 901 925 l 901 0 l 668 0 l 282 653 l 282 0 l 97 0 l 97 925 m 457 1069 q 542 1161 511 1113 l 506 1235 q 533 1301 506 1272 q 603 1331 561 1331 q 675 1301 646 1331 q 704 1225 704 1271 q 639 1097 704 1154 q 482 1015 574 1040 l 457 1069 z "},"Ň":{"ha":999,"x_min":97,"x_max":901,"o":"m 97 925 l 333 925 l 717 276 l 717 925 l 901 925 l 901 0 l 668 0 l 282 653 l 282 0 l 97 0 l 97 925 m 267 1199 l 328 1294 l 500 1201 l 672 1294 l 733 1199 l 500 1015 l 267 1199 z "},"Ņ":{"ha":999,"x_min":97,"x_max":901,"o":"m 97 925 l 333 925 l 717 276 l 717 925 l 901 925 l 901 0 l 668 0 l 282 653 l 282 0 l 97 0 l 97 925 m 397 -368 q 457 -269 443 -307 l 400 -185 q 428 -119 400 -149 q 499 -90 456 -90 q 571 -120 542 -90 q 600 -196 600 -150 q 557 -319 600 -250 q 421 -453 514 -387 l 397 -368 z "},"Ŋ":{"ha":999,"x_min":97,"x_max":901,"o":"m 658 -324 q 518 -297 594 -324 l 571 -133 q 635 -149 604 -149 q 707 -64 707 -149 l 707 0 l 668 0 l 282 653 l 282 0 l 97 0 l 97 925 l 333 925 l 717 276 l 717 925 l 901 925 l 901 -79 q 835 -258 901 -192 q 658 -324 769 -324 z "},"Ñ":{"ha":999,"x_min":97,"x_max":901,"o":"m 97 925 l 333 925 l 717 276 l 717 925 l 901 925 l 901 0 l 668 0 l 282 653 l 282 0 l 97 0 l 97 925 m 606 1017 q 539 1030 569 1017 q 467 1068 508 1043 q 417 1095 436 1086 q 381 1104 399 1104 q 339 1085 358 1104 q 303 1019 319 1065 l 228 1076 q 295 1205 250 1163 q 400 1247 340 1247 q 467 1234 436 1247 q 539 1196 497 1221 q 588 1169 569 1178 q 625 1160 607 1160 q 667 1179 647 1160 q 703 1244 686 1199 l 778 1188 q 710 1059 756 1101 q 606 1017 665 1017 z "},"O":{"ha":1029,"x_min":56,"x_max":974,"o":"m 515 -18 q 275 42 379 -18 q 113 210 171 101 q 56 458 56 318 q 113 708 56 600 q 274 876 169 817 q 515 936 378 936 q 756 877 651 936 q 917 711 860 818 q 974 464 974 604 q 917 212 974 321 q 756 42 860 103 q 515 -18 651 -18 m 515 158 q 698 240 629 158 q 767 458 767 322 q 735 616 767 547 q 647 722 704 685 q 515 758 589 758 q 384 722 442 758 q 295 616 326 685 q 264 458 264 547 q 295 301 264 369 q 383 196 326 233 q 515 158 440 158 z "},"Ó":{"ha":1029,"x_min":56,"x_max":974,"o":"m 515 -18 q 275 42 379 -18 q 113 210 171 101 q 56 458 56 318 q 113 708 56 600 q 274 876 169 817 q 515 936 378 936 q 756 877 651 936 q 917 711 860 818 q 974 464 974 604 q 917 212 974 321 q 756 42 860 103 q 515 -18 651 -18 m 515 158 q 698 240 629 158 q 767 458 767 322 q 735 616 767 547 q 647 722 704 685 q 515 758 589 758 q 384 722 442 758 q 295 616 326 685 q 264 458 264 547 q 295 301 264 369 q 383 196 326 233 q 515 158 440 158 m 472 1069 q 557 1161 526 1113 l 521 1235 q 549 1301 521 1272 q 618 1331 576 1331 q 690 1301 661 1331 q 719 1225 719 1271 q 654 1097 719 1154 q 497 1015 589 1040 l 472 1069 z "},"Ô":{"ha":1029,"x_min":56,"x_max":974,"o":"m 515 -18 q 275 42 379 -18 q 113 210 171 101 q 56 458 56 318 q 113 708 56 600 q 274 876 169 817 q 515 936 378 936 q 756 877 651 936 q 917 711 860 818 q 974 464 974 604 q 917 212 974 321 q 756 42 860 103 q 515 -18 651 -18 m 515 158 q 698 240 629 158 q 767 458 767 322 q 735 616 767 547 q 647 722 704 685 q 515 758 589 758 q 384 722 442 758 q 295 616 326 685 q 264 458 264 547 q 295 301 264 369 q 383 196 326 233 q 515 158 440 158 m 282 1111 l 515 1294 l 749 1111 l 688 1015 l 515 1108 l 343 1015 l 282 1111 z "},"Ö":{"ha":1029,"x_min":56,"x_max":974,"o":"m 515 -18 q 275 42 379 -18 q 113 210 171 101 q 56 458 56 318 q 113 708 56 600 q 274 876 169 817 q 515 936 378 936 q 756 877 651 936 q 917 711 860 818 q 974 464 974 604 q 917 212 974 321 q 756 42 860 103 q 515 -18 651 -18 m 515 158 q 698 240 629 158 q 767 458 767 322 q 735 616 767 547 q 647 722 704 685 q 515 758 589 758 q 384 722 442 758 q 295 616 326 685 q 264 458 264 547 q 295 301 264 369 q 383 196 326 233 q 515 158 440 158 m 353 1024 q 276 1056 308 1024 q 244 1133 244 1088 q 278 1211 244 1179 q 357 1243 311 1243 q 433 1211 401 1243 q 465 1133 465 1179 q 431 1056 465 1089 q 353 1024 397 1024 m 674 1024 q 597 1056 629 1024 q 565 1133 565 1088 q 599 1210 565 1178 q 678 1243 633 1243 q 754 1211 722 1243 q 786 1133 786 1179 q 754 1056 786 1088 q 674 1024 722 1024 z "},"Ò":{"ha":1029,"x_min":56,"x_max":974,"o":"m 515 -18 q 275 42 379 -18 q 113 210 171 101 q 56 458 56 318 q 113 708 56 600 q 274 876 169 817 q 515 936 378 936 q 756 877 651 936 q 917 711 860 818 q 974 464 974 604 q 917 212 974 321 q 756 42 860 103 q 515 -18 651 -18 m 515 158 q 698 240 629 158 q 767 458 767 322 q 735 616 767 547 q 647 722 704 685 q 515 758 589 758 q 384 722 442 758 q 295 616 326 685 q 264 458 264 547 q 295 301 264 369 q 383 196 326 233 q 515 158 440 158 m 519 1015 q 447 1045 476 1015 q 418 1121 418 1075 q 483 1249 418 1192 q 640 1331 549 1306 l 665 1276 q 581 1185 611 1233 l 617 1111 q 589 1044 617 1074 q 519 1015 561 1015 z "},"Ő":{"ha":1029,"x_min":56,"x_max":974,"o":"m 515 -18 q 275 42 379 -18 q 113 210 171 101 q 56 458 56 318 q 113 708 56 600 q 274 876 169 817 q 515 936 378 936 q 756 877 651 936 q 917 711 860 818 q 974 464 974 604 q 917 212 974 321 q 756 42 860 103 q 515 -18 651 -18 m 515 158 q 698 240 629 158 q 767 458 767 322 q 735 616 767 547 q 647 722 704 685 q 515 758 589 758 q 384 722 442 758 q 295 616 326 685 q 264 458 264 547 q 295 301 264 369 q 383 196 326 233 q 515 158 440 158 m 285 1069 q 369 1161 339 1113 l 333 1235 q 361 1301 333 1272 q 431 1331 389 1331 q 503 1301 474 1331 q 532 1225 532 1271 q 467 1097 532 1154 q 310 1015 401 1040 l 285 1069 m 549 1069 q 633 1161 603 1113 l 597 1235 q 625 1301 597 1272 q 694 1331 653 1331 q 767 1301 738 1331 q 796 1225 796 1271 q 731 1097 796 1154 q 574 1015 665 1040 l 549 1069 z "},"Ō":{"ha":1029,"x_min":56,"x_max":974,"o":"m 515 -18 q 275 42 379 -18 q 113 210 171 101 q 56 458 56 318 q 113 708 56 600 q 274 876 169 817 q 515 936 378 936 q 756 877 651 936 q 917 711 860 818 q 974 464 974 604 q 917 212 974 321 q 756 42 860 103 q 515 -18 651 -18 m 515 158 q 698 240 629 158 q 767 458 767 322 q 735 616 767 547 q 647 722 704 685 q 515 758 589 758 q 384 722 442 758 q 295 616 326 685 q 264 458 264 547 q 295 301 264 369 q 383 196 326 233 q 515 158 440 158 m 282 1164 l 746 1164 l 747 1040 l 283 1040 l 282 1164 z "},"Ø":{"ha":1029,"x_min":56,"x_max":974,"o":"m 904 732 q 974 464 974 617 q 917 212 974 321 q 756 42 860 103 q 515 -18 651 -18 q 357 6 431 -18 q 225 75 283 29 l 97 -50 l 57 124 l 125 189 q 56 458 56 306 q 113 708 56 600 q 274 876 169 817 q 515 936 378 936 q 803 846 685 936 l 933 972 l 974 799 l 904 732 m 264 458 q 281 340 264 393 l 663 710 q 513 758 601 758 q 383 721 439 758 q 295 615 326 683 q 264 458 264 547 m 767 458 q 749 581 767 522 l 365 210 q 515 158 428 158 q 698 240 629 158 q 767 458 767 322 z "},"Õ":{"ha":1029,"x_min":56,"x_max":974,"o":"m 515 -18 q 275 42 379 -18 q 113 210 171 101 q 56 458 56 318 q 113 708 56 600 q 274 876 169 817 q 515 936 378 936 q 756 877 651 936 q 917 711 860 818 q 974 464 974 604 q 917 212 974 321 q 756 42 860 103 q 515 -18 651 -18 m 515 158 q 698 240 629 158 q 767 458 767 322 q 735 616 767 547 q 647 722 704 685 q 515 758 589 758 q 384 722 442 758 q 295 616 326 685 q 264 458 264 547 q 295 301 264 369 q 383 196 326 233 q 515 158 440 158 m 621 1017 q 554 1030 585 1017 q 482 1068 524 1043 q 433 1095 451 1086 q 396 1104 414 1104 q 354 1085 374 1104 q 318 1019 335 1065 l 243 1076 q 310 1205 265 1163 q 415 1247 356 1247 q 482 1234 451 1247 q 554 1196 513 1221 q 603 1169 585 1178 q 640 1160 622 1160 q 682 1179 663 1160 q 718 1244 701 1199 l 793 1188 q 726 1059 771 1101 q 621 1017 681 1017 z "},"Œ":{"ha":1264,"x_min":56,"x_max":1188,"o":"m 515 -18 q 275 42 379 -18 q 113 210 171 101 q 56 458 56 318 q 113 708 56 600 q 274 876 169 817 q 515 936 378 936 q 625 925 569 936 l 1188 925 l 1188 750 l 824 750 l 824 565 l 1125 565 l 1125 396 l 824 396 l 824 175 l 1188 175 l 1188 0 l 653 0 q 515 -18 593 -18 m 515 158 q 625 182 575 158 l 625 735 q 513 758 574 758 q 383 721 439 758 q 295 615 326 683 q 264 458 264 547 q 295 301 264 369 q 383 196 326 233 q 515 158 440 158 z "},"P":{"ha":760,"x_min":97,"x_max":711,"o":"m 97 925 q 250 926 138 926 q 404 925 364 926 q 629 849 547 922 q 711 644 711 775 q 669 480 711 551 q 552 369 628 408 q 381 331 476 331 l 290 331 l 290 0 l 97 0 l 97 925 m 372 494 q 478 533 440 494 q 517 639 517 572 q 382 761 517 761 l 290 761 l 290 494 l 372 494 z "},"Þ":{"ha":774,"x_min":97,"x_max":711,"o":"m 97 925 l 290 925 l 290 753 l 397 753 q 628 679 544 753 q 711 474 711 606 q 619 248 711 332 q 372 158 526 164 l 290 156 l 290 0 l 97 0 l 97 925 m 351 322 q 472 361 428 322 q 517 467 517 400 q 479 558 517 526 q 371 590 442 590 l 290 590 l 290 322 l 351 322 z "},"Q":{"ha":1036,"x_min":56,"x_max":978,"o":"m 665 1 q 515 -19 597 -19 q 275 40 379 -19 q 113 208 171 100 q 56 457 56 317 q 113 707 56 599 q 274 875 169 815 q 515 935 378 935 q 756 876 651 935 q 917 710 860 818 q 974 463 974 603 q 941 267 974 357 q 849 114 908 178 l 978 47 l 957 -143 l 665 1 m 525 283 l 668 208 q 741 311 715 247 q 767 457 767 375 q 735 616 767 547 q 647 722 704 685 q 515 758 589 758 q 384 721 442 758 q 295 615 326 683 q 264 457 264 546 q 332 240 264 322 q 513 157 400 158 l 525 283 z "},"R":{"ha":778,"x_min":92,"x_max":781,"o":"m 92 925 q 247 926 133 926 q 404 925 363 926 q 640 848 563 919 q 718 656 718 776 q 666 481 718 553 q 521 388 614 410 q 581 323 550 364 q 665 196 611 282 q 781 0 722 106 l 547 0 l 390 292 q 345 349 365 338 q 285 361 325 361 l 285 0 l 92 0 l 92 925 m 371 515 q 483 551 442 515 q 524 649 524 588 q 488 733 524 704 q 382 763 451 763 l 285 763 l 285 515 l 371 515 z "},"Ŕ":{"ha":778,"x_min":92,"x_max":781,"o":"m 92 925 q 247 926 133 926 q 404 925 363 926 q 640 848 563 919 q 718 656 718 776 q 666 481 718 553 q 521 388 614 410 q 581 323 550 364 q 665 196 611 282 q 781 0 722 106 l 547 0 l 390 292 q 345 349 365 338 q 285 361 325 361 l 285 0 l 92 0 l 92 925 m 371 515 q 483 551 442 515 q 524 649 524 588 q 488 733 524 704 q 382 763 451 763 l 285 763 l 285 515 l 371 515 m 332 1069 q 417 1161 386 1113 l 381 1235 q 408 1301 381 1272 q 478 1331 436 1331 q 550 1301 521 1331 q 579 1225 579 1271 q 514 1097 579 1154 q 357 1015 449 1040 l 332 1069 z "},"Ř":{"ha":778,"x_min":92,"x_max":781,"o":"m 92 925 q 247 926 133 926 q 404 925 363 926 q 640 848 563 919 q 718 656 718 776 q 666 481 718 553 q 521 388 614 410 q 581 323 550 364 q 665 196 611 282 q 781 0 722 106 l 547 0 l 390 292 q 345 349 365 338 q 285 361 325 361 l 285 0 l 92 0 l 92 925 m 371 515 q 483 551 442 515 q 524 649 524 588 q 488 733 524 704 q 382 763 451 763 l 285 763 l 285 515 l 371 515 m 142 1199 l 203 1294 l 375 1201 l 547 1294 l 608 1199 l 375 1015 l 142 1199 z "},"Ŗ":{"ha":778,"x_min":92,"x_max":781,"o":"m 92 925 q 247 926 133 926 q 404 925 363 926 q 640 848 563 919 q 718 656 718 776 q 666 481 718 553 q 521 388 614 410 q 581 323 550 364 q 665 196 611 282 q 781 0 722 106 l 547 0 l 390 292 q 345 349 365 338 q 285 361 325 361 l 285 0 l 92 0 l 92 925 m 371 515 q 483 551 442 515 q 524 649 524 588 q 488 733 524 704 q 382 763 451 763 l 285 763 l 285 515 l 371 515 m 310 -368 q 369 -269 356 -307 l 313 -185 q 340 -119 313 -149 q 411 -90 368 -90 q 483 -120 454 -90 q 513 -196 513 -150 q 469 -319 513 -250 q 333 -453 426 -387 l 310 -368 z "},"S":{"ha":751,"x_min":63,"x_max":689,"o":"m 342 -18 q 188 0 261 -18 q 63 49 115 18 l 79 235 q 210 174 142 196 q 338 153 279 153 q 446 181 404 153 q 488 254 488 208 q 460 312 488 292 q 372 356 432 332 l 339 369 q 324 376 332 372 q 304 383 315 379 q 179 444 226 415 q 98 524 132 472 q 64 657 64 575 q 154 867 64 790 q 406 943 244 943 q 656 893 528 943 l 625 710 q 515 756 574 739 q 403 772 456 772 q 301 747 338 772 q 265 678 265 721 q 290 619 265 640 q 371 575 315 599 l 428 553 q 561 493 508 522 q 651 409 614 464 q 689 267 689 354 q 597 57 689 132 q 342 -18 506 -18 z "},"Ś":{"ha":751,"x_min":63,"x_max":689,"o":"m 342 -18 q 188 0 261 -18 q 63 49 115 18 l 79 235 q 210 174 142 196 q 338 153 279 153 q 446 181 404 153 q 488 254 488 208 q 460 312 488 292 q 372 356 432 332 l 339 369 q 324 376 332 372 q 304 383 315 379 q 179 444 226 415 q 98 524 132 472 q 64 657 64 575 q 154 867 64 790 q 406 943 244 943 q 656 893 528 943 l 625 710 q 515 756 574 739 q 403 772 456 772 q 301 747 338 772 q 265 678 265 721 q 290 619 265 640 q 371 575 315 599 l 428 553 q 561 493 508 522 q 651 409 614 464 q 689 267 689 354 q 597 57 689 132 q 342 -18 506 -18 m 333 1069 q 418 1161 388 1113 l 382 1235 q 410 1301 382 1272 q 479 1331 438 1331 q 551 1301 522 1331 q 581 1225 581 1271 q 515 1097 581 1154 q 358 1015 450 1040 l 333 1069 z "},"Š":{"ha":751,"x_min":63,"x_max":689,"o":"m 342 -18 q 188 0 261 -18 q 63 49 115 18 l 79 235 q 210 174 142 196 q 338 153 279 153 q 446 181 404 153 q 488 254 488 208 q 460 312 488 292 q 372 356 432 332 l 339 369 q 324 376 332 372 q 304 383 315 379 q 179 444 226 415 q 98 524 132 472 q 64 657 64 575 q 154 867 64 790 q 406 943 244 943 q 656 893 528 943 l 625 710 q 515 756 574 739 q 403 772 456 772 q 301 747 338 772 q 265 678 265 721 q 290 619 265 640 q 371 575 315 599 l 428 553 q 561 493 508 522 q 651 409 614 464 q 689 267 689 354 q 597 57 689 132 q 342 -18 506 -18 m 143 1199 l 204 1294 l 376 1201 l 549 1294 l 610 1199 l 376 1015 l 143 1199 z "},"Ş":{"ha":751,"x_min":63,"x_max":689,"o":"m 689 267 q 620 78 689 150 q 425 -12 551 6 l 396 -78 q 503 -123 463 -89 q 543 -210 543 -157 q 494 -301 543 -265 q 378 -337 446 -337 q 279 -320 328 -337 q 199 -275 231 -303 l 240 -215 q 302 -248 269 -236 q 360 -260 335 -260 q 410 -217 410 -260 q 306 -175 410 -172 l 276 -156 l 324 -18 q 180 1 249 -17 q 63 49 111 19 l 79 235 q 210 174 142 196 q 338 153 279 153 q 446 181 404 153 q 488 254 488 208 q 460 312 488 292 q 372 356 432 332 l 339 369 q 324 376 332 372 q 304 383 315 379 q 179 444 226 415 q 98 524 132 472 q 64 657 64 575 q 154 867 64 790 q 406 943 244 943 q 656 893 528 943 l 625 710 q 515 756 574 739 q 403 772 456 772 q 301 747 338 772 q 265 678 265 721 q 290 619 265 640 q 371 575 315 599 l 428 553 q 561 493 508 522 q 651 409 614 464 q 689 267 689 354 z "},"Ș":{"ha":751,"x_min":63,"x_max":689,"o":"m 342 -18 q 188 0 261 -18 q 63 49 115 18 l 79 235 q 210 174 142 196 q 338 153 279 153 q 446 181 404 153 q 488 254 488 208 q 460 312 488 292 q 372 356 432 332 l 339 369 q 324 376 332 372 q 304 383 315 379 q 179 444 226 415 q 98 524 132 472 q 64 657 64 575 q 154 867 64 790 q 406 943 244 943 q 656 893 528 943 l 625 710 q 515 756 574 739 q 403 772 456 772 q 301 747 338 772 q 265 678 265 721 q 290 619 265 640 q 371 575 315 599 l 428 553 q 561 493 508 522 q 651 409 614 464 q 689 267 689 354 q 597 57 689 132 q 342 -18 506 -18 m 274 -368 q 333 -269 319 -307 l 276 -185 q 304 -119 276 -149 q 375 -90 332 -90 q 447 -120 418 -90 q 476 -196 476 -150 q 433 -319 476 -250 q 297 -453 390 -387 l 274 -368 z "},"T":{"ha":789,"x_min":42,"x_max":747,"o":"m 294 750 l 42 750 l 42 925 l 747 925 l 747 750 l 497 750 l 497 0 l 294 0 l 294 750 z "},"Ŧ":{"ha":789,"x_min":42,"x_max":747,"o":"m 497 750 l 497 522 l 649 522 l 635 404 l 497 404 l 497 0 l 294 0 l 294 404 l 138 404 l 151 522 l 294 522 l 294 750 l 42 750 l 42 925 l 747 925 l 747 750 l 497 750 z "},"Ť":{"ha":789,"x_min":42,"x_max":747,"o":"m 294 750 l 42 750 l 42 925 l 747 925 l 747 750 l 497 750 l 497 0 l 294 0 l 294 750 m 161 1199 l 222 1294 l 394 1201 l 567 1294 l 628 1199 l 394 1015 l 161 1199 z "},"Ţ":{"ha":789,"x_min":42,"x_max":747,"o":"m 449 0 l 414 -78 q 521 -123 481 -89 q 561 -210 561 -157 q 513 -301 561 -265 q 396 -337 464 -337 q 297 -320 346 -337 q 217 -275 249 -303 l 258 -215 q 320 -248 288 -236 q 378 -260 353 -260 q 428 -217 428 -260 q 324 -175 428 -172 l 294 -156 l 347 0 l 294 0 l 294 750 l 42 750 l 42 925 l 747 925 l 747 750 l 497 750 l 497 0 l 449 0 z "},"Ț":{"ha":789,"x_min":42,"x_max":747,"o":"m 294 750 l 42 750 l 42 925 l 747 925 l 747 750 l 497 750 l 497 0 l 294 0 l 294 750 m 292 -368 q 351 -269 338 -307 l 294 -185 q 322 -119 294 -149 q 393 -90 350 -90 q 465 -120 436 -90 q 494 -196 494 -150 q 451 -319 494 -250 q 315 -453 408 -387 l 292 -368 z "},"U":{"ha":967,"x_min":97,"x_max":869,"o":"m 483 -18 q 281 31 368 -18 q 145 167 193 79 q 97 371 97 256 l 97 925 l 300 925 l 300 386 q 349 223 300 283 q 483 163 399 163 q 618 223 568 163 q 668 386 668 283 l 668 925 l 869 925 l 869 371 q 822 167 869 256 q 686 31 774 79 q 483 -18 599 -18 z "},"Ú":{"ha":967,"x_min":97,"x_max":869,"o":"m 483 -18 q 281 31 368 -18 q 145 167 193 79 q 97 371 97 256 l 97 925 l 300 925 l 300 386 q 349 223 300 283 q 483 163 399 163 q 618 223 568 163 q 668 386 668 283 l 668 925 l 869 925 l 869 371 q 822 167 869 256 q 686 31 774 79 q 483 -18 599 -18 m 440 1069 q 525 1161 494 1113 l 489 1235 q 517 1301 489 1272 q 586 1331 544 1331 q 658 1301 629 1331 q 688 1225 688 1271 q 622 1097 688 1154 q 465 1015 557 1040 l 440 1069 z "},"Û":{"ha":967,"x_min":97,"x_max":869,"o":"m 483 -18 q 281 31 368 -18 q 145 167 193 79 q 97 371 97 256 l 97 925 l 300 925 l 300 386 q 349 223 300 283 q 483 163 399 163 q 618 223 568 163 q 668 386 668 283 l 668 925 l 869 925 l 869 371 q 822 167 869 256 q 686 31 774 79 q 483 -18 599 -18 m 250 1111 l 483 1294 l 717 1111 l 656 1015 l 483 1108 l 311 1015 l 250 1111 z "},"Ü":{"ha":967,"x_min":97,"x_max":869,"o":"m 483 -18 q 281 31 368 -18 q 145 167 193 79 q 97 371 97 256 l 97 925 l 300 925 l 300 386 q 349 223 300 283 q 483 163 399 163 q 618 223 568 163 q 668 386 668 283 l 668 925 l 869 925 l 869 371 q 822 167 869 256 q 686 31 774 79 q 483 -18 599 -18 m 321 1024 q 244 1056 276 1024 q 213 1133 213 1088 q 246 1211 213 1179 q 325 1243 279 1243 q 401 1211 369 1243 q 433 1133 433 1179 q 399 1056 433 1089 q 321 1024 365 1024 m 642 1024 q 565 1056 597 1024 q 533 1133 533 1088 q 567 1210 533 1178 q 646 1243 601 1243 q 722 1211 690 1243 q 754 1133 754 1179 q 722 1056 754 1088 q 642 1024 690 1024 z "},"Ù":{"ha":967,"x_min":97,"x_max":869,"o":"m 483 -18 q 281 31 368 -18 q 145 167 193 79 q 97 371 97 256 l 97 925 l 300 925 l 300 386 q 349 223 300 283 q 483 163 399 163 q 618 223 568 163 q 668 386 668 283 l 668 925 l 869 925 l 869 371 q 822 167 869 256 q 686 31 774 79 q 483 -18 599 -18 m 488 1015 q 415 1045 444 1015 q 386 1121 386 1075 q 451 1249 386 1192 q 608 1331 517 1306 l 633 1276 q 549 1185 579 1233 l 585 1111 q 557 1044 585 1074 q 488 1015 529 1015 z "},"Ű":{"ha":967,"x_min":97,"x_max":869,"o":"m 483 -18 q 281 31 368 -18 q 145 167 193 79 q 97 371 97 256 l 97 925 l 300 925 l 300 386 q 349 223 300 283 q 483 163 399 163 q 618 223 568 163 q 668 386 668 283 l 668 925 l 869 925 l 869 371 q 822 167 869 256 q 686 31 774 79 q 483 -18 599 -18 m 253 1069 q 338 1161 307 1113 l 301 1235 q 329 1301 301 1272 q 399 1331 357 1331 q 471 1301 442 1331 q 500 1225 500 1271 q 435 1097 500 1154 q 278 1015 369 1040 l 253 1069 m 517 1069 q 601 1161 571 1113 l 565 1235 q 593 1301 565 1272 q 663 1331 621 1331 q 735 1301 706 1331 q 764 1225 764 1271 q 699 1097 764 1154 q 542 1015 633 1040 l 517 1069 z "},"Ū":{"ha":967,"x_min":97,"x_max":869,"o":"m 483 -18 q 281 31 368 -18 q 145 167 193 79 q 97 371 97 256 l 97 925 l 300 925 l 300 386 q 349 223 300 283 q 483 163 399 163 q 618 223 568 163 q 668 386 668 283 l 668 925 l 869 925 l 869 371 q 822 167 869 256 q 686 31 774 79 q 483 -18 599 -18 m 250 1164 l 714 1164 l 715 1040 l 251 1040 l 250 1164 z "},"Ų":{"ha":967,"x_min":97,"x_max":869,"o":"m 869 925 l 869 371 q 800 133 869 232 q 610 -1 731 35 q 501 -55 542 -22 q 461 -129 461 -87 q 483 -174 461 -158 q 536 -190 504 -190 q 617 -167 578 -190 l 610 -274 q 558 -297 589 -289 q 493 -306 528 -306 q 377 -269 419 -306 q 335 -169 335 -232 q 361 -81 335 -119 q 431 -15 388 -42 q 254 47 329 -4 q 138 181 179 97 q 97 371 97 264 l 97 925 l 300 925 l 300 386 q 349 223 300 283 q 483 163 399 163 q 618 223 568 163 q 668 386 668 283 l 668 925 l 869 925 z "},"Ů":{"ha":967,"x_min":97,"x_max":869,"o":"m 483 -18 q 281 31 368 -18 q 145 167 193 79 q 97 371 97 256 l 97 925 l 300 925 l 300 386 q 349 223 300 283 q 483 163 399 163 q 618 223 568 163 q 668 386 668 283 l 668 925 l 869 925 l 869 371 q 822 167 869 256 q 686 31 774 79 q 483 -18 599 -18 m 483 1007 q 356 1057 408 1007 q 304 1181 304 1107 q 356 1304 304 1254 q 483 1354 408 1354 q 610 1304 558 1354 q 663 1181 663 1254 q 610 1057 663 1107 q 483 1007 558 1007 m 483 1106 q 533 1128 514 1106 q 553 1181 553 1150 q 533 1233 553 1211 q 483 1256 514 1256 q 433 1233 453 1256 q 414 1181 414 1211 q 433 1128 414 1150 q 483 1106 453 1106 z "},"V":{"ha":894,"x_min":14,"x_max":881,"o":"m 14 925 l 236 925 l 456 219 l 674 925 l 881 925 l 569 0 l 326 0 l 14 925 z "},"W":{"ha":1419,"x_min":42,"x_max":1378,"o":"m 42 925 l 256 925 l 417 260 l 582 919 l 842 939 l 1017 240 l 1179 925 l 1378 925 l 1128 0 l 885 0 l 706 732 l 519 0 l 279 0 l 42 925 z "},"Ẃ":{"ha":1419,"x_min":42,"x_max":1378,"o":"m 42 925 l 256 925 l 417 260 l 582 919 l 842 939 l 1017 240 l 1179 925 l 1378 925 l 1128 0 l 885 0 l 706 732 l 519 0 l 279 0 l 42 925 m 667 1069 q 751 1161 721 1113 l 715 1235 q 743 1301 715 1272 q 813 1331 771 1331 q 885 1301 856 1331 q 914 1225 914 1271 q 849 1097 914 1154 q 692 1015 783 1040 l 667 1069 z "},"Ŵ":{"ha":1419,"x_min":42,"x_max":1378,"o":"m 42 925 l 256 925 l 417 260 l 582 919 l 842 939 l 1017 240 l 1179 925 l 1378 925 l 1128 0 l 885 0 l 706 732 l 519 0 l 279 0 l 42 925 m 476 1111 l 710 1294 l 943 1111 l 882 1015 l 710 1108 l 538 1015 l 476 1111 z "},"Ẅ":{"ha":1419,"x_min":42,"x_max":1378,"o":"m 42 925 l 256 925 l 417 260 l 582 919 l 842 939 l 1017 240 l 1179 925 l 1378 925 l 1128 0 l 885 0 l 706 732 l 519 0 l 279 0 l 42 925 m 547 1024 q 471 1056 503 1024 q 439 1133 439 1088 q 472 1211 439 1179 q 551 1243 506 1243 q 628 1211 596 1243 q 660 1133 660 1179 q 626 1056 660 1089 q 547 1024 592 1024 m 868 1024 q 792 1056 824 1024 q 760 1133 760 1088 q 794 1210 760 1178 q 872 1243 828 1243 q 949 1211 917 1243 q 981 1133 981 1179 q 949 1056 981 1088 q 868 1024 917 1024 z "},"Ẁ":{"ha":1419,"x_min":42,"x_max":1378,"o":"m 42 925 l 256 925 l 417 260 l 582 919 l 842 939 l 1017 240 l 1179 925 l 1378 925 l 1128 0 l 885 0 l 706 732 l 519 0 l 279 0 l 42 925 m 714 1015 q 642 1045 671 1015 q 613 1121 613 1075 q 678 1249 613 1192 q 835 1331 743 1306 l 860 1276 q 775 1185 806 1233 l 811 1111 q 783 1044 811 1074 q 714 1015 756 1015 z "},"X":{"ha":935,"x_min":8,"x_max":926,"o":"m 338 475 l 32 925 l 271 925 l 472 628 l 674 925 l 896 925 l 592 486 l 926 0 l 681 0 l 457 326 l 240 0 l 8 0 l 338 475 z "},"Y":{"ha":843,"x_min":7,"x_max":829,"o":"m 317 385 l 7 925 l 233 925 l 421 560 l 607 925 l 829 925 l 518 385 l 518 0 l 317 0 l 317 385 z "},"Ý":{"ha":843,"x_min":7,"x_max":829,"o":"m 317 385 l 7 925 l 233 925 l 421 560 l 607 925 l 829 925 l 518 385 l 518 0 l 317 0 l 317 385 m 375 1069 q 460 1161 429 1113 l 424 1235 q 451 1301 424 1272 q 521 1331 479 1331 q 593 1301 564 1331 q 622 1225 622 1271 q 557 1097 622 1154 q 400 1015 492 1040 l 375 1069 z "},"Ŷ":{"ha":843,"x_min":7,"x_max":829,"o":"m 317 385 l 7 925 l 233 925 l 421 560 l 607 925 l 829 925 l 518 385 l 518 0 l 317 0 l 317 385 m 185 1111 l 418 1294 l 651 1111 l 590 1015 l 418 1108 l 246 1015 l 185 1111 z "},"Ÿ":{"ha":843,"x_min":7,"x_max":829,"o":"m 317 385 l 7 925 l 233 925 l 421 560 l 607 925 l 829 925 l 518 385 l 518 0 l 317 0 l 317 385 m 256 1024 q 179 1056 211 1024 q 147 1133 147 1088 q 181 1211 147 1179 q 260 1243 214 1243 q 336 1211 304 1243 q 368 1133 368 1179 q 334 1056 368 1089 q 256 1024 300 1024 m 576 1024 q 500 1056 532 1024 q 468 1133 468 1088 q 502 1210 468 1178 q 581 1243 536 1243 q 657 1211 625 1243 q 689 1133 689 1179 q 657 1056 689 1088 q 576 1024 625 1024 z "},"Ỳ":{"ha":843,"x_min":7,"x_max":829,"o":"m 317 385 l 7 925 l 233 925 l 421 560 l 607 925 l 829 925 l 518 385 l 518 0 l 317 0 l 317 385 m 422 1015 q 350 1045 379 1015 q 321 1121 321 1075 q 386 1249 321 1192 q 543 1331 451 1306 l 568 1276 q 483 1185 514 1233 l 519 1111 q 492 1044 519 1074 q 422 1015 464 1015 z "},"Z":{"ha":819,"x_min":63,"x_max":750,"o":"m 63 151 l 504 750 l 75 750 l 75 925 l 750 925 l 750 767 l 311 175 l 750 175 l 750 0 l 63 0 l 63 151 z "},"Ź":{"ha":819,"x_min":63,"x_max":750,"o":"m 63 151 l 504 750 l 75 750 l 75 925 l 750 925 l 750 767 l 311 175 l 750 175 l 750 0 l 63 0 l 63 151 m 367 1069 q 451 1161 421 1113 l 415 1235 q 443 1301 415 1272 q 513 1331 471 1331 q 585 1301 556 1331 q 614 1225 614 1271 q 549 1097 614 1154 q 392 1015 483 1040 l 367 1069 z "},"Ž":{"ha":819,"x_min":63,"x_max":750,"o":"m 63 151 l 504 750 l 75 750 l 75 925 l 750 925 l 750 767 l 311 175 l 750 175 l 750 0 l 63 0 l 63 151 m 176 1199 l 238 1294 l 410 1201 l 582 1294 l 643 1199 l 410 1015 l 176 1199 z "},"Ż":{"ha":819,"x_min":63,"x_max":750,"o":"m 63 151 l 504 750 l 75 750 l 75 925 l 750 925 l 750 767 l 311 175 l 750 175 l 750 0 l 63 0 l 63 151 m 408 1029 q 334 1060 365 1029 q 303 1135 303 1092 q 335 1209 303 1178 q 411 1240 368 1240 q 485 1209 454 1240 q 517 1135 517 1178 q 484 1060 517 1092 q 408 1029 451 1029 z "},"a":{"ha":774,"x_min":56,"x_max":690,"o":"m 297 -21 q 121 74 186 -21 q 56 331 56 168 q 156 631 56 528 q 443 735 256 735 q 690 701 549 735 l 690 0 l 504 0 l 508 114 l 503 114 q 415 14 467 49 q 297 -21 363 -21 m 339 150 q 424 196 382 150 q 501 318 465 242 l 501 551 q 413 564 457 564 q 287 507 329 564 q 244 339 244 450 q 269 201 244 251 q 339 150 294 150 z "},"á":{"ha":774,"x_min":56,"x_max":690,"o":"m 297 -21 q 121 74 186 -21 q 56 331 56 168 q 156 631 56 528 q 443 735 256 735 q 690 701 549 735 l 690 0 l 504 0 l 508 114 l 503 114 q 415 14 467 49 q 297 -21 363 -21 m 339 150 q 424 196 382 150 q 501 318 465 242 l 501 551 q 413 564 457 564 q 287 507 329 564 q 244 339 244 450 q 269 201 244 251 q 339 150 294 150 m 381 860 q 465 951 435 903 l 429 1025 q 457 1092 429 1063 q 526 1121 485 1121 q 599 1091 569 1121 q 628 1015 628 1061 q 563 888 628 944 q 406 806 497 831 l 381 860 z "},"ă":{"ha":774,"x_min":56,"x_max":690,"o":"m 297 -21 q 121 74 186 -21 q 56 331 56 168 q 156 631 56 528 q 443 735 256 735 q 690 701 549 735 l 690 0 l 504 0 l 508 114 l 503 114 q 415 14 467 49 q 297 -21 363 -21 m 339 150 q 424 196 382 150 q 501 318 465 242 l 501 551 q 413 564 457 564 q 287 507 329 564 q 244 339 244 450 q 269 201 244 251 q 339 150 294 150 m 424 808 q 269 863 339 808 q 168 1021 199 918 l 264 1053 q 335 969 293 997 q 424 940 376 940 q 513 969 469 940 q 583 1053 556 999 l 679 1021 q 578 863 649 918 q 424 808 507 808 z "},"â":{"ha":774,"x_min":56,"x_max":690,"o":"m 297 -21 q 121 74 186 -21 q 56 331 56 168 q 156 631 56 528 q 443 735 256 735 q 690 701 549 735 l 690 0 l 504 0 l 508 114 l 503 114 q 415 14 467 49 q 297 -21 363 -21 m 339 150 q 424 196 382 150 q 501 318 465 242 l 501 551 q 413 564 457 564 q 287 507 329 564 q 244 339 244 450 q 269 201 244 251 q 339 150 294 150 m 190 901 l 424 1085 l 657 901 l 596 806 l 424 899 l 251 806 l 190 901 z "},"ä":{"ha":774,"x_min":56,"x_max":694,"o":"m 297 -21 q 121 74 186 -21 q 56 331 56 168 q 156 631 56 528 q 443 735 256 735 q 690 701 549 735 l 690 0 l 504 0 l 508 114 l 503 114 q 415 14 467 49 q 297 -21 363 -21 m 339 150 q 424 196 382 150 q 501 318 465 242 l 501 551 q 413 564 457 564 q 287 507 329 564 q 244 339 244 450 q 269 201 244 251 q 339 150 294 150 m 261 814 q 185 846 217 814 q 153 924 153 878 q 186 1001 153 969 q 265 1033 219 1033 q 342 1001 310 1033 q 374 924 374 969 q 340 847 374 879 q 261 814 306 814 m 582 814 q 506 846 538 814 q 474 924 474 878 q 508 1001 474 968 q 586 1033 542 1033 q 663 1001 631 1033 q 694 924 694 969 q 663 846 694 878 q 582 814 631 814 z "},"à":{"ha":774,"x_min":56,"x_max":690,"o":"m 297 -21 q 121 74 186 -21 q 56 331 56 168 q 156 631 56 528 q 443 735 256 735 q 690 701 549 735 l 690 0 l 504 0 l 508 114 l 503 114 q 415 14 467 49 q 297 -21 363 -21 m 339 150 q 424 196 382 150 q 501 318 465 242 l 501 551 q 413 564 457 564 q 287 507 329 564 q 244 339 244 450 q 269 201 244 251 q 339 150 294 150 m 428 806 q 356 835 385 806 q 326 911 326 865 q 392 1039 326 982 q 549 1121 457 1096 l 574 1067 q 489 975 519 1024 l 525 901 q 497 835 525 864 q 428 806 469 806 z "},"ā":{"ha":774,"x_min":56,"x_max":690,"o":"m 297 -21 q 121 74 186 -21 q 56 331 56 168 q 156 631 56 528 q 443 735 256 735 q 690 701 549 735 l 690 0 l 504 0 l 508 114 l 503 114 q 415 14 467 49 q 297 -21 363 -21 m 339 150 q 424 196 382 150 q 501 318 465 242 l 501 551 q 413 564 457 564 q 287 507 329 564 q 244 339 244 450 q 269 201 244 251 q 339 150 294 150 m 190 954 l 654 954 l 656 831 l 192 831 l 190 954 z "},"ą":{"ha":774,"x_min":56,"x_max":694,"o":"m 571 -306 q 455 -269 497 -306 q 413 -169 413 -232 q 438 -82 413 -121 q 506 -17 463 -43 l 508 114 l 503 114 q 415 14 467 49 q 297 -21 363 -21 q 121 74 186 -21 q 56 331 56 168 q 156 631 56 528 q 443 735 256 735 q 690 701 549 735 l 690 0 q 581 -54 622 -21 q 539 -129 539 -87 q 560 -174 539 -158 q 614 -190 582 -190 q 694 -167 656 -190 l 688 -274 q 636 -297 667 -289 q 571 -306 606 -306 m 339 150 q 424 196 382 150 q 501 318 465 242 l 501 551 q 413 564 457 564 q 287 507 329 564 q 244 339 244 450 q 269 201 244 251 q 339 150 294 150 z "},"å":{"ha":774,"x_min":56,"x_max":690,"o":"m 297 -21 q 121 74 186 -21 q 56 331 56 168 q 156 631 56 528 q 443 735 256 735 q 690 701 549 735 l 690 0 l 504 0 l 508 114 l 503 114 q 415 14 467 49 q 297 -21 363 -21 m 339 150 q 424 196 382 150 q 501 318 465 242 l 501 551 q 413 564 457 564 q 287 507 329 564 q 244 339 244 450 q 269 201 244 251 q 339 150 294 150 m 424 797 q 297 847 349 797 q 244 971 244 897 q 297 1094 244 1044 q 424 1144 349 1144 q 551 1094 499 1144 q 603 971 603 1044 q 551 847 603 897 q 424 797 499 797 m 424 896 q 474 918 454 896 q 493 971 493 940 q 474 1024 493 1001 q 424 1046 454 1046 q 374 1024 393 1046 q 354 971 354 1001 q 374 918 354 940 q 424 896 393 896 z "},"ã":{"ha":774,"x_min":56,"x_max":701,"o":"m 297 -21 q 121 74 186 -21 q 56 331 56 168 q 156 631 56 528 q 443 735 256 735 q 690 701 549 735 l 690 0 l 504 0 l 508 114 l 503 114 q 415 14 467 49 q 297 -21 363 -21 m 339 150 q 424 196 382 150 q 501 318 465 242 l 501 551 q 413 564 457 564 q 287 507 329 564 q 244 339 244 450 q 269 201 244 251 q 339 150 294 150 m 529 807 q 463 820 493 807 q 390 858 432 833 q 341 885 360 876 q 304 894 322 894 q 263 875 282 894 q 226 810 243 856 l 151 867 q 219 995 174 953 q 324 1038 264 1038 q 390 1024 360 1038 q 463 986 421 1011 q 512 959 493 968 q 549 950 531 950 q 590 969 571 950 q 626 1035 610 989 l 701 978 q 634 849 679 892 q 529 807 589 807 z "},"æ":{"ha":1190,"x_min":56,"x_max":1135,"o":"m 301 -21 q 121 72 186 -21 q 56 328 56 165 q 153 630 56 525 q 435 735 251 735 q 665 707 529 735 q 813 735 732 735 q 1051 635 968 735 q 1135 346 1135 535 q 1133 299 1135 314 l 661 299 q 725 187 675 225 q 860 149 775 149 q 967 162 911 149 q 1064 197 1022 175 l 1096 40 q 973 -5 1040 11 q 836 -21 906 -21 q 655 15 733 -21 q 529 121 576 51 l 524 121 q 434 17 494 54 q 301 -21 374 -21 m 947 446 q 906 541 943 506 q 806 576 868 576 q 708 542 746 576 q 660 446 669 507 l 947 446 m 353 150 q 418 172 386 150 q 478 236 450 194 q 464 357 464 288 q 503 551 464 465 q 413 564 461 564 q 287 507 329 564 q 244 342 244 450 q 273 201 244 251 q 353 150 301 150 z "},"b":{"ha":801,"x_min":90,"x_max":746,"o":"m 353 -21 q 90 13 242 -21 l 90 1014 l 283 1014 l 283 646 q 485 735 365 735 q 676 642 607 735 q 746 385 746 550 q 644 83 746 188 q 353 -21 543 -21 m 374 150 q 505 207 460 150 q 550 374 550 264 q 520 514 550 464 q 436 564 490 564 q 353 533 392 564 q 283 442 314 501 l 283 163 q 374 150 326 150 z "},"c":{"ha":667,"x_min":50,"x_max":618,"o":"m 424 -21 q 148 74 246 -21 q 50 340 50 168 q 96 547 50 457 q 225 685 142 636 q 418 735 308 735 q 526 723 469 735 q 613 696 582 711 l 575 531 q 505 555 543 546 q 433 564 467 564 q 295 506 347 564 q 243 351 243 447 q 297 201 243 254 q 449 149 350 149 q 589 174 514 149 l 618 15 q 424 -21 528 -21 z "},"ć":{"ha":667,"x_min":50,"x_max":618,"o":"m 424 -21 q 148 74 246 -21 q 50 340 50 168 q 96 547 50 457 q 225 685 142 636 q 418 735 308 735 q 526 723 469 735 q 613 696 582 711 l 575 531 q 505 555 543 546 q 433 564 467 564 q 295 506 347 564 q 243 351 243 447 q 297 201 243 254 q 449 149 350 149 q 589 174 514 149 l 618 15 q 424 -21 528 -21 m 342 860 q 426 951 396 903 l 390 1025 q 418 1092 390 1063 q 488 1121 446 1121 q 560 1091 531 1121 q 589 1015 589 1061 q 524 888 589 944 q 367 806 458 831 l 342 860 z "},"č":{"ha":667,"x_min":50,"x_max":618,"o":"m 424 -21 q 148 74 246 -21 q 50 340 50 168 q 96 547 50 457 q 225 685 142 636 q 418 735 308 735 q 526 723 469 735 q 613 696 582 711 l 575 531 q 505 555 543 546 q 433 564 467 564 q 295 506 347 564 q 243 351 243 447 q 297 201 243 254 q 449 149 350 149 q 589 174 514 149 l 618 15 q 424 -21 528 -21 m 151 989 l 213 1085 l 385 992 l 557 1085 l 618 989 l 385 806 l 151 989 z "},"ç":{"ha":667,"x_min":50,"x_max":618,"o":"m 435 -78 q 542 -123 501 -89 q 582 -210 582 -157 q 533 -301 582 -265 q 417 -337 485 -337 q 318 -320 367 -337 q 238 -275 269 -303 l 279 -215 q 341 -248 308 -236 q 399 -260 374 -260 q 449 -217 449 -260 q 344 -175 449 -172 l 315 -156 l 363 -18 q 131 90 213 -3 q 50 340 50 183 q 96 547 50 457 q 225 685 142 636 q 418 735 308 735 q 526 723 469 735 q 613 696 582 711 l 575 531 q 505 555 543 546 q 433 564 467 564 q 295 506 347 564 q 243 351 243 447 q 297 201 243 254 q 449 149 350 149 q 589 174 514 149 l 618 15 q 460 -19 543 -15 l 435 -78 z "},"ċ":{"ha":667,"x_min":50,"x_max":618,"o":"m 424 -21 q 148 74 246 -21 q 50 340 50 168 q 96 547 50 457 q 225 685 142 636 q 418 735 308 735 q 526 723 469 735 q 613 696 582 711 l 575 531 q 505 555 543 546 q 433 564 467 564 q 295 506 347 564 q 243 351 243 447 q 297 201 243 254 q 449 149 350 149 q 589 174 514 149 l 618 15 q 424 -21 528 -21 m 383 819 q 309 851 340 819 q 278 925 278 882 q 310 999 278 968 q 386 1031 343 1031 q 460 999 429 1031 q 492 925 492 968 q 459 851 492 882 q 383 819 426 819 z "},"d":{"ha":801,"x_min":56,"x_max":713,"o":"m 314 -21 q 124 72 193 -21 q 56 329 56 164 q 158 630 56 525 q 449 735 260 735 q 519 732 472 735 l 519 1014 l 713 1014 l 713 0 l 522 0 l 526 93 l 521 93 q 433 8 485 38 q 314 -21 381 -21 m 358 150 q 444 188 403 150 q 519 297 486 226 l 519 551 q 429 564 472 564 q 297 507 342 564 q 251 340 251 450 q 280 201 251 251 q 358 150 308 150 z "},"ð":{"ha":814,"x_min":63,"x_max":751,"o":"m 588 883 q 751 414 751 678 q 663 99 751 218 q 408 -21 575 -21 q 227 26 306 -21 q 106 159 149 74 q 63 357 63 244 q 106 555 63 469 q 226 688 149 640 q 404 735 303 735 q 524 711 471 735 q 418 825 478 769 l 254 768 l 236 868 l 332 901 l 224 989 l 428 1043 q 515 965 468 1010 l 678 1021 l 696 921 l 588 883 m 406 147 q 517 205 475 147 q 558 358 558 263 q 517 510 558 453 q 406 567 475 567 q 294 510 336 567 q 253 358 253 453 q 294 205 253 263 q 406 147 336 147 z "},"ď":{"ha":1007,"x_min":56,"x_max":1007,"o":"m 794 833 q 858 940 838 885 l 806 1007 q 828 1086 801 1053 q 906 1121 858 1121 q 977 1089 947 1121 q 1007 1007 1007 1057 q 956 884 1007 944 q 831 785 906 824 l 794 833 m 315 -21 q 124 72 193 -21 q 56 329 56 165 q 158 631 56 526 q 451 735 260 735 q 519 732 472 735 l 519 1014 l 713 1014 l 713 0 l 524 0 l 524 78 q 431 4 483 29 q 315 -21 378 -21 m 367 150 q 450 181 411 150 q 519 272 489 213 l 519 551 q 429 564 472 564 q 297 507 342 564 q 251 340 251 450 q 281 200 251 250 q 367 150 311 150 z "},"đ":{"ha":801,"x_min":56,"x_max":819,"o":"m 806 807 l 713 807 l 713 0 l 522 0 l 526 93 l 521 93 q 433 8 485 38 q 314 -21 381 -21 q 124 72 193 -21 q 56 329 56 164 q 158 630 56 525 q 449 735 260 735 q 519 732 472 735 l 519 807 l 308 807 l 322 925 l 519 925 l 519 1014 l 713 1014 l 713 925 l 819 925 l 806 807 m 519 551 q 429 564 472 564 q 297 507 342 564 q 251 340 251 450 q 280 201 251 251 q 358 150 308 150 q 444 188 403 150 q 519 297 486 226 l 519 551 z "},"e":{"ha":782,"x_min":56,"x_max":726,"o":"m 428 -21 q 155 79 254 -21 q 56 357 56 179 q 99 558 56 472 q 220 689 142 643 q 404 735 299 735 q 643 635 560 735 q 726 346 726 535 q 725 299 726 314 l 253 299 q 317 187 267 225 q 451 149 367 149 q 558 162 503 149 q 656 197 614 175 l 688 40 q 565 -5 632 11 q 428 -21 497 -21 m 539 446 q 497 541 535 506 q 397 576 460 576 q 299 542 338 576 q 251 446 261 507 l 539 446 z "},"é":{"ha":782,"x_min":56,"x_max":726,"o":"m 428 -21 q 155 79 254 -21 q 56 357 56 179 q 99 558 56 472 q 220 689 142 643 q 404 735 299 735 q 643 635 560 735 q 726 346 726 535 q 725 299 726 314 l 253 299 q 317 187 267 225 q 451 149 367 149 q 558 162 503 149 q 656 197 614 175 l 688 40 q 565 -5 632 11 q 428 -21 497 -21 m 539 446 q 497 541 535 506 q 397 576 460 576 q 299 542 338 576 q 251 446 261 507 l 539 446 m 361 860 q 446 951 415 903 l 410 1025 q 438 1092 410 1063 q 507 1121 465 1121 q 579 1091 550 1121 q 608 1015 608 1061 q 543 888 608 944 q 386 806 478 831 l 361 860 z "},"ě":{"ha":782,"x_min":56,"x_max":726,"o":"m 428 -21 q 155 79 254 -21 q 56 357 56 179 q 99 558 56 472 q 220 689 142 643 q 404 735 299 735 q 643 635 560 735 q 726 346 726 535 q 725 299 726 314 l 253 299 q 317 187 267 225 q 451 149 367 149 q 558 162 503 149 q 656 197 614 175 l 688 40 q 565 -5 632 11 q 428 -21 497 -21 m 539 446 q 497 541 535 506 q 397 576 460 576 q 299 542 338 576 q 251 446 261 507 l 539 446 m 171 989 l 232 1085 l 404 992 l 576 1085 l 638 989 l 404 806 l 171 989 z "},"ê":{"ha":782,"x_min":56,"x_max":726,"o":"m 428 -21 q 155 79 254 -21 q 56 357 56 179 q 99 558 56 472 q 220 689 142 643 q 404 735 299 735 q 643 635 560 735 q 726 346 726 535 q 725 299 726 314 l 253 299 q 317 187 267 225 q 451 149 367 149 q 558 162 503 149 q 656 197 614 175 l 688 40 q 565 -5 632 11 q 428 -21 497 -21 m 539 446 q 497 541 535 506 q 397 576 460 576 q 299 542 338 576 q 251 446 261 507 l 539 446 m 171 901 l 404 1085 l 638 901 l 576 806 l 404 899 l 232 806 l 171 901 z "},"ë":{"ha":782,"x_min":56,"x_max":726,"o":"m 428 -21 q 155 79 254 -21 q 56 357 56 179 q 99 558 56 472 q 220 689 142 643 q 404 735 299 735 q 643 635 560 735 q 726 346 726 535 q 725 299 726 314 l 253 299 q 317 187 267 225 q 451 149 367 149 q 558 162 503 149 q 656 197 614 175 l 688 40 q 565 -5 632 11 q 428 -21 497 -21 m 539 446 q 497 541 535 506 q 397 576 460 576 q 299 542 338 576 q 251 446 261 507 l 539 446 m 242 814 q 165 846 197 814 q 133 924 133 878 q 167 1001 133 969 q 246 1033 200 1033 q 322 1001 290 1033 q 354 924 354 969 q 320 847 354 879 q 242 814 286 814 m 563 814 q 486 846 518 814 q 454 924 454 878 q 488 1001 454 968 q 567 1033 522 1033 q 643 1001 611 1033 q 675 924 675 969 q 643 846 675 878 q 563 814 611 814 z "},"ė":{"ha":782,"x_min":56,"x_max":726,"o":"m 428 -21 q 155 79 254 -21 q 56 357 56 179 q 99 558 56 472 q 220 689 142 643 q 404 735 299 735 q 643 635 560 735 q 726 346 726 535 q 725 299 726 314 l 253 299 q 317 187 267 225 q 451 149 367 149 q 558 162 503 149 q 656 197 614 175 l 688 40 q 565 -5 632 11 q 428 -21 497 -21 m 539 446 q 497 541 535 506 q 397 576 460 576 q 299 542 338 576 q 251 446 261 507 l 539 446 m 403 819 q 328 851 360 819 q 297 925 297 882 q 330 999 297 968 q 406 1031 363 1031 q 480 999 449 1031 q 511 925 511 968 q 478 851 511 882 q 403 819 446 819 z "},"è":{"ha":782,"x_min":56,"x_max":726,"o":"m 428 -21 q 155 79 254 -21 q 56 357 56 179 q 99 558 56 472 q 220 689 142 643 q 404 735 299 735 q 643 635 560 735 q 726 346 726 535 q 725 299 726 314 l 253 299 q 317 187 267 225 q 451 149 367 149 q 558 162 503 149 q 656 197 614 175 l 688 40 q 565 -5 632 11 q 428 -21 497 -21 m 539 446 q 497 541 535 506 q 397 576 460 576 q 299 542 338 576 q 251 446 261 507 l 539 446 m 408 806 q 336 835 365 806 q 307 911 307 865 q 372 1039 307 982 q 529 1121 438 1096 l 554 1067 q 469 975 500 1024 l 506 901 q 478 835 506 864 q 408 806 450 806 z "},"ē":{"ha":782,"x_min":56,"x_max":726,"o":"m 428 -21 q 155 79 254 -21 q 56 357 56 179 q 99 558 56 472 q 220 689 142 643 q 404 735 299 735 q 643 635 560 735 q 726 346 726 535 q 725 299 726 314 l 253 299 q 317 187 267 225 q 451 149 367 149 q 558 162 503 149 q 656 197 614 175 l 688 40 q 565 -5 632 11 q 428 -21 497 -21 m 539 446 q 497 541 535 506 q 397 576 460 576 q 299 542 338 576 q 251 446 261 507 l 539 446 m 171 954 l 635 954 l 636 831 l 172 831 l 171 954 z "},"ę":{"ha":782,"x_min":56,"x_max":726,"o":"m 726 346 q 725 299 726 314 l 253 299 q 317 187 267 225 q 451 149 367 149 q 558 162 503 149 q 656 197 614 175 l 688 40 q 581 0 638 14 q 472 -56 513 -22 q 432 -129 432 -89 q 453 -174 432 -158 q 507 -190 475 -190 q 588 -167 549 -190 l 581 -274 q 529 -297 560 -289 q 464 -306 499 -306 q 348 -269 390 -306 q 306 -169 306 -232 q 329 -84 306 -122 q 394 -19 353 -46 q 146 90 236 -10 q 56 357 56 189 q 99 558 56 472 q 220 689 142 643 q 404 735 299 735 q 643 635 560 735 q 726 346 726 535 m 539 446 q 497 541 535 506 q 397 576 460 576 q 299 542 338 576 q 251 446 261 507 l 539 446 z "},"f":{"ha":628,"x_min":64,"x_max":607,"o":"m 64 168 l 190 168 l 190 547 l 64 547 l 64 715 l 190 715 l 190 803 q 257 970 190 907 q 435 1033 324 1033 q 607 994 513 1033 l 539 840 q 454 864 492 864 q 404 846 422 864 q 386 793 386 828 l 386 715 l 553 715 l 553 547 l 386 547 l 386 168 l 553 168 l 553 0 l 64 0 l 64 168 z "},"g":{"ha":801,"x_min":56,"x_max":714,"o":"m 322 -315 q 81 -283 199 -315 l 118 -111 q 340 -150 251 -150 q 449 -128 411 -150 q 503 -58 488 -106 q 522 71 519 -11 l 518 71 q 428 3 479 26 q 315 -21 376 -21 q 124 72 193 -21 q 56 328 56 164 q 158 631 56 526 q 450 735 260 735 q 711 701 560 735 q 714 271 714 415 q 713 76 714 142 q 613 -218 710 -121 q 322 -315 517 -315 m 367 150 q 449 182 410 150 q 519 272 489 214 l 518 551 q 429 564 472 564 q 297 507 342 564 q 251 342 251 450 q 281 201 251 251 q 367 150 311 150 z "},"ğ":{"ha":801,"x_min":56,"x_max":714,"o":"m 322 -315 q 81 -283 199 -315 l 118 -111 q 340 -150 251 -150 q 449 -128 411 -150 q 503 -58 488 -106 q 522 71 519 -11 l 518 71 q 428 3 479 26 q 315 -21 376 -21 q 124 72 193 -21 q 56 328 56 164 q 158 631 56 526 q 450 735 260 735 q 711 701 560 735 q 714 271 714 415 q 713 76 714 142 q 613 -218 710 -121 q 322 -315 517 -315 m 367 150 q 449 182 410 150 q 519 272 489 214 l 518 551 q 429 564 472 564 q 297 507 342 564 q 251 342 251 450 q 281 201 251 251 q 367 150 311 150 m 429 808 q 274 863 344 808 q 174 1021 204 918 l 269 1053 q 340 969 299 997 q 429 940 382 940 q 518 969 475 940 q 589 1053 561 999 l 685 1021 q 583 863 654 918 q 429 808 513 808 z "},"ģ":{"ha":801,"x_min":56,"x_max":714,"o":"m 322 -315 q 81 -283 199 -315 l 118 -111 q 340 -150 251 -150 q 449 -128 411 -150 q 503 -58 488 -106 q 522 71 519 -11 l 518 71 q 428 3 479 26 q 315 -21 376 -21 q 124 72 193 -21 q 56 328 56 164 q 158 631 56 526 q 450 735 260 735 q 711 701 560 735 q 714 271 714 415 q 713 76 714 142 q 613 -218 710 -121 q 322 -315 517 -315 m 367 150 q 449 182 410 150 q 519 272 489 214 l 518 551 q 429 564 472 564 q 297 507 342 564 q 251 342 251 450 q 281 201 251 251 q 367 150 311 150 m 429 806 q 357 835 386 806 q 328 911 328 865 q 393 1039 328 982 q 550 1121 458 1096 l 575 1067 q 490 975 521 1024 l 526 901 q 499 835 526 864 q 429 806 471 806 z "},"ġ":{"ha":801,"x_min":56,"x_max":714,"o":"m 322 -315 q 81 -283 199 -315 l 118 -111 q 340 -150 251 -150 q 449 -128 411 -150 q 503 -58 488 -106 q 522 71 519 -11 l 518 71 q 428 3 479 26 q 315 -21 376 -21 q 124 72 193 -21 q 56 328 56 164 q 158 631 56 526 q 450 735 260 735 q 711 701 560 735 q 714 271 714 415 q 713 76 714 142 q 613 -218 710 -121 q 322 -315 517 -315 m 367 150 q 449 182 410 150 q 519 272 489 214 l 518 551 q 429 564 472 564 q 297 507 342 564 q 251 342 251 450 q 281 201 251 251 q 367 150 311 150 m 428 819 q 353 851 385 819 q 322 925 322 882 q 355 999 322 968 q 431 1031 388 1031 q 505 999 474 1031 q 536 925 536 968 q 503 851 536 882 q 428 819 471 819 z "},"h":{"ha":842,"x_min":90,"x_max":758,"o":"m 90 1014 l 286 1014 l 286 611 q 385 705 329 675 q 513 735 440 735 q 693 666 628 735 q 758 475 758 597 l 758 0 l 563 0 l 563 444 q 535 531 563 500 q 460 563 507 563 q 362 527 408 563 q 286 433 315 492 l 286 0 l 90 0 l 90 1014 z "},"ħ":{"ha":842,"x_min":-24,"x_max":758,"o":"m 513 735 q 693 666 628 735 q 758 475 758 597 l 758 0 l 563 0 l 563 444 q 535 531 563 500 q 460 563 507 563 q 362 527 408 563 q 286 433 315 492 l 286 0 l 90 0 l 90 807 l -24 807 l -10 925 l 90 925 l 90 1014 l 286 1014 l 286 925 l 488 925 l 474 807 l 286 807 l 286 611 q 385 705 329 675 q 513 735 440 735 z "},"i":{"ha":553,"x_min":65,"x_max":514,"o":"m 174 1014 l 397 1014 l 397 833 l 174 833 l 174 1014 m 65 168 l 199 168 l 199 547 l 65 547 l 65 715 l 394 715 l 394 168 l 514 168 l 514 0 l 65 0 l 65 168 z "},"ı":{"ha":553,"x_min":65,"x_max":514,"o":"m 65 168 l 199 168 l 199 547 l 65 547 l 65 715 l 394 715 l 394 168 l 514 168 l 514 0 l 65 0 l 65 168 z "},"í":{"ha":553,"x_min":65,"x_max":514,"o":"m 65 168 l 199 168 l 199 547 l 65 547 l 65 715 l 394 715 l 394 168 l 514 168 l 514 0 l 65 0 l 65 168 m 233 860 q 318 951 288 903 l 282 1025 q 310 1092 282 1063 q 379 1121 338 1121 q 451 1091 422 1121 q 481 1015 481 1061 q 415 888 481 944 q 258 806 350 831 l 233 860 z "},"î":{"ha":553,"x_min":43,"x_max":514,"o":"m 65 168 l 199 168 l 199 547 l 65 547 l 65 715 l 394 715 l 394 168 l 514 168 l 514 0 l 65 0 l 65 168 m 43 901 l 276 1085 l 510 901 l 449 806 l 276 899 l 104 806 l 43 901 z "},"ï":{"ha":553,"x_min":6,"x_max":547,"o":"m 65 168 l 199 168 l 199 547 l 65 547 l 65 715 l 394 715 l 394 168 l 514 168 l 514 0 l 65 0 l 65 168 m 114 814 q 38 846 69 814 q 6 924 6 878 q 39 1001 6 969 q 118 1033 72 1033 q 194 1001 163 1033 q 226 924 226 969 q 192 847 226 879 q 114 814 158 814 m 435 814 q 358 846 390 814 q 326 924 326 878 q 360 1001 326 968 q 439 1033 394 1033 q 515 1001 483 1033 q 547 924 547 969 q 515 846 547 878 q 435 814 483 814 z "},"ì":{"ha":553,"x_min":65,"x_max":514,"o":"m 65 168 l 199 168 l 199 547 l 65 547 l 65 715 l 394 715 l 394 168 l 514 168 l 514 0 l 65 0 l 65 168 m 281 806 q 208 835 238 806 q 179 911 179 865 q 244 1039 179 982 q 401 1121 310 1096 l 426 1067 q 342 975 372 1024 l 378 901 q 350 835 378 864 q 281 806 322 806 z "},"ī":{"ha":553,"x_min":43,"x_max":514,"o":"m 65 168 l 199 168 l 199 547 l 65 547 l 65 715 l 394 715 l 394 168 l 514 168 l 514 0 l 65 0 l 65 168 m 43 954 l 507 954 l 508 831 l 44 831 l 43 954 z "},"į":{"ha":553,"x_min":65,"x_max":518,"o":"m 275 819 q 201 851 232 819 q 169 925 169 882 q 202 999 169 968 q 278 1031 235 1031 q 352 999 321 1031 q 383 925 383 968 q 351 851 383 882 q 275 819 318 819 m 438 -190 q 518 -167 479 -190 l 511 -274 q 460 -297 490 -289 q 394 -306 429 -306 q 278 -269 321 -306 q 236 -169 236 -232 q 272 -67 236 -111 q 361 0 307 -24 l 65 0 l 65 168 l 199 168 l 199 547 l 65 547 l 65 715 l 394 715 l 394 168 l 514 168 l 514 0 q 404 -54 446 -21 q 363 -129 363 -87 q 384 -174 363 -158 q 438 -190 406 -190 z "},"j":{"ha":421,"x_min":-60,"x_max":336,"o":"m 113 1014 l 336 1014 l 336 833 l 113 833 l 113 1014 m 79 -324 q -60 -296 8 -324 l -8 -133 q 56 -149 25 -149 q 109 -128 92 -149 q 126 -62 126 -107 l 126 715 l 322 715 l 322 -78 q 256 -258 322 -192 q 79 -324 190 -324 z "},"k":{"ha":757,"x_min":90,"x_max":757,"o":"m 286 311 l 286 0 l 90 0 l 90 1015 l 286 1015 l 286 454 l 510 715 l 742 715 l 456 394 l 757 8 l 544 -21 l 286 311 z "},"ķ":{"ha":757,"x_min":90,"x_max":757,"o":"m 286 311 l 286 0 l 90 0 l 90 1015 l 286 1015 l 286 454 l 510 715 l 742 715 l 456 394 l 757 8 l 544 -21 l 286 311 m 283 -368 q 343 -269 329 -307 l 286 -185 q 314 -119 286 -149 q 385 -90 342 -90 q 457 -120 428 -90 q 486 -196 486 -150 q 443 -319 486 -250 q 307 -453 400 -387 l 283 -368 z "},"l":{"ha":546,"x_min":58,"x_max":507,"o":"m 58 168 l 185 168 l 185 847 l 65 847 l 65 1014 l 381 1014 l 381 168 l 507 168 l 507 0 l 58 0 l 58 168 z "},"ĺ":{"ha":546,"x_min":58,"x_max":507,"o":"m 217 1158 q 301 1250 271 1201 l 265 1324 q 293 1390 265 1361 q 363 1419 321 1419 q 435 1390 406 1419 q 464 1314 464 1360 q 399 1186 464 1243 q 242 1104 333 1129 l 217 1158 m 58 168 l 185 168 l 185 847 l 65 847 l 65 1014 l 381 1014 l 381 168 l 507 168 l 507 0 l 58 0 l 58 168 z "},"ľ":{"ha":678,"x_min":58,"x_max":683,"o":"m 471 833 q 535 940 514 885 l 482 1007 q 504 1086 478 1053 q 582 1121 535 1121 q 653 1089 624 1121 q 683 1007 683 1057 q 633 884 683 944 q 507 785 582 824 l 471 833 m 58 168 l 185 168 l 185 847 l 65 847 l 65 1014 l 381 1014 l 381 168 l 507 168 l 507 0 l 58 0 l 58 168 z "},"ļ":{"ha":546,"x_min":58,"x_max":507,"o":"m 58 168 l 185 168 l 185 847 l 65 847 l 65 1014 l 381 1014 l 381 168 l 507 168 l 507 0 l 58 0 l 58 168 m 171 -368 q 231 -269 217 -307 l 174 -185 q 201 -119 174 -149 q 272 -90 229 -90 q 344 -120 315 -90 q 374 -196 374 -150 q 331 -319 374 -250 q 194 -453 288 -387 l 171 -368 z "},"ł":{"ha":546,"x_min":58,"x_max":507,"o":"m 507 168 l 507 0 l 58 0 l 58 168 l 185 168 l 185 382 l 86 308 l 60 443 l 185 536 l 185 847 l 65 847 l 65 1014 l 381 1014 l 381 683 l 461 743 l 488 608 l 381 528 l 381 168 l 507 168 z "},"m":{"ha":1310,"x_min":90,"x_max":1226,"o":"m 90 715 l 282 715 l 282 604 q 511 735 367 735 q 651 697 593 735 q 735 588 708 658 q 844 699 783 664 q 982 735 904 735 q 1162 666 1097 735 q 1226 475 1226 597 l 1226 0 l 1031 0 l 1031 444 q 1003 531 1031 500 q 931 563 976 563 q 825 515 874 563 q 753 394 776 468 l 753 0 l 557 0 l 557 444 q 529 531 557 499 q 456 563 501 563 q 359 524 404 563 q 286 417 314 486 l 286 0 l 90 0 l 90 715 z "},"n":{"ha":850,"x_min":90,"x_max":767,"o":"m 90 715 l 282 715 l 282 592 q 385 700 326 665 q 521 735 443 735 q 701 666 636 735 q 767 475 767 597 l 767 0 l 571 0 l 571 444 q 543 531 571 500 q 468 563 515 563 q 363 521 413 563 q 286 415 313 479 l 286 0 l 90 0 l 90 715 z "},"ń":{"ha":850,"x_min":90,"x_max":767,"o":"m 90 715 l 282 715 l 282 592 q 385 700 326 665 q 521 735 443 735 q 701 666 636 735 q 767 475 767 597 l 767 0 l 571 0 l 571 444 q 543 531 571 500 q 468 563 515 563 q 363 521 413 563 q 286 415 313 479 l 286 0 l 90 0 l 90 715 m 382 860 q 467 951 436 903 l 431 1025 q 458 1092 431 1063 q 528 1121 486 1121 q 600 1091 571 1121 q 629 1015 629 1061 q 564 888 629 944 q 407 806 499 831 l 382 860 z "},"ň":{"ha":850,"x_min":90,"x_max":767,"o":"m 90 715 l 282 715 l 282 592 q 385 700 326 665 q 521 735 443 735 q 701 666 636 735 q 767 475 767 597 l 767 0 l 571 0 l 571 444 q 543 531 571 500 q 468 563 515 563 q 363 521 413 563 q 286 415 313 479 l 286 0 l 90 0 l 90 715 m 192 989 l 253 1085 l 425 992 l 597 1085 l 658 989 l 425 806 l 192 989 z "},"ņ":{"ha":850,"x_min":90,"x_max":767,"o":"m 90 715 l 282 715 l 282 592 q 385 700 326 665 q 521 735 443 735 q 701 666 636 735 q 767 475 767 597 l 767 0 l 571 0 l 571 444 q 543 531 571 500 q 468 563 515 563 q 363 521 413 563 q 286 415 313 479 l 286 0 l 90 0 l 90 715 m 322 -368 q 382 -269 368 -307 l 325 -185 q 353 -119 325 -149 q 424 -90 381 -90 q 496 -120 467 -90 q 525 -196 525 -150 q 482 -319 525 -250 q 346 -453 439 -387 l 322 -368 z "},"ŋ":{"ha":851,"x_min":90,"x_max":767,"o":"m 524 -324 q 385 -296 453 -324 l 436 -133 q 500 -149 469 -149 q 553 -128 536 -149 q 571 -62 571 -107 l 571 444 q 543 531 571 500 q 468 563 515 563 q 363 521 413 563 q 286 415 313 479 l 286 0 l 90 0 l 90 715 l 282 715 l 282 592 q 385 700 326 665 q 521 735 443 735 q 701 666 636 735 q 767 475 767 597 l 767 -78 q 701 -258 767 -192 q 524 -324 635 -324 z "},"ñ":{"ha":850,"x_min":90,"x_max":767,"o":"m 90 715 l 282 715 l 282 592 q 385 700 326 665 q 521 735 443 735 q 701 666 636 735 q 767 475 767 597 l 767 0 l 571 0 l 571 444 q 543 531 571 500 q 468 563 515 563 q 363 521 413 563 q 286 415 313 479 l 286 0 l 90 0 l 90 715 m 531 807 q 464 820 494 807 q 392 858 433 833 q 342 885 361 876 q 306 894 324 894 q 264 875 283 894 q 228 810 244 856 l 153 867 q 220 995 175 953 q 325 1038 265 1038 q 392 1024 361 1038 q 464 986 422 1011 q 513 959 494 968 q 550 950 532 950 q 592 969 572 950 q 628 1035 611 989 l 703 978 q 635 849 681 892 q 531 807 590 807 z "},"o":{"ha":839,"x_min":56,"x_max":783,"o":"m 421 -21 q 230 26 313 -21 q 101 159 147 74 q 56 357 56 244 q 101 555 56 469 q 228 688 146 640 q 419 735 311 735 q 610 688 528 735 q 738 557 693 642 q 783 361 783 472 q 738 162 783 249 q 610 27 693 75 q 421 -21 528 -21 m 419 149 q 540 206 494 149 q 585 358 585 264 q 540 509 585 453 q 419 565 494 565 q 299 509 344 565 q 254 358 254 453 q 299 206 254 264 q 419 149 344 149 z "},"ó":{"ha":839,"x_min":56,"x_max":783,"o":"m 421 -21 q 230 26 313 -21 q 101 159 147 74 q 56 357 56 244 q 101 555 56 469 q 228 688 146 640 q 419 735 311 735 q 610 688 528 735 q 738 557 693 642 q 783 361 783 472 q 738 162 783 249 q 610 27 693 75 q 421 -21 528 -21 m 419 149 q 540 206 494 149 q 585 358 585 264 q 540 509 585 453 q 419 565 494 565 q 299 509 344 565 q 254 358 254 453 q 299 206 254 264 q 419 149 344 149 m 376 860 q 461 951 431 903 l 425 1025 q 453 1092 425 1063 q 522 1121 481 1121 q 594 1091 565 1121 q 624 1015 624 1061 q 558 888 624 944 q 401 806 493 831 l 376 860 z "},"ô":{"ha":839,"x_min":56,"x_max":783,"o":"m 421 -21 q 230 26 313 -21 q 101 159 147 74 q 56 357 56 244 q 101 555 56 469 q 228 688 146 640 q 419 735 311 735 q 610 688 528 735 q 738 557 693 642 q 783 361 783 472 q 738 162 783 249 q 610 27 693 75 q 421 -21 528 -21 m 419 149 q 540 206 494 149 q 585 358 585 264 q 540 509 585 453 q 419 565 494 565 q 299 509 344 565 q 254 358 254 453 q 299 206 254 264 q 419 149 344 149 m 186 901 l 419 1085 l 653 901 l 592 806 l 419 899 l 247 806 l 186 901 z "},"ö":{"ha":839,"x_min":56,"x_max":783,"o":"m 421 -21 q 230 26 313 -21 q 101 159 147 74 q 56 357 56 244 q 101 555 56 469 q 228 688 146 640 q 419 735 311 735 q 610 688 528 735 q 738 557 693 642 q 783 361 783 472 q 738 162 783 249 q 610 27 693 75 q 421 -21 528 -21 m 419 149 q 540 206 494 149 q 585 358 585 264 q 540 509 585 453 q 419 565 494 565 q 299 509 344 565 q 254 358 254 453 q 299 206 254 264 q 419 149 344 149 m 257 814 q 181 846 213 814 q 149 924 149 878 q 182 1001 149 969 q 261 1033 215 1033 q 338 1001 306 1033 q 369 924 369 969 q 335 847 369 879 q 257 814 301 814 m 578 814 q 501 846 533 814 q 469 924 469 878 q 503 1001 469 968 q 582 1033 538 1033 q 658 1001 626 1033 q 690 924 690 969 q 658 846 690 878 q 578 814 626 814 z "},"ò":{"ha":839,"x_min":56,"x_max":783,"o":"m 421 -21 q 230 26 313 -21 q 101 159 147 74 q 56 357 56 244 q 101 555 56 469 q 228 688 146 640 q 419 735 311 735 q 610 688 528 735 q 738 557 693 642 q 783 361 783 472 q 738 162 783 249 q 610 27 693 75 q 421 -21 528 -21 m 419 149 q 540 206 494 149 q 585 358 585 264 q 540 509 585 453 q 419 565 494 565 q 299 509 344 565 q 254 358 254 453 q 299 206 254 264 q 419 149 344 149 m 424 806 q 351 835 381 806 q 322 911 322 865 q 388 1039 322 982 q 544 1121 453 1096 l 569 1067 q 485 975 515 1024 l 521 901 q 493 835 521 864 q 424 806 465 806 z "},"ő":{"ha":839,"x_min":56,"x_max":783,"o":"m 421 -21 q 230 26 313 -21 q 101 159 147 74 q 56 357 56 244 q 101 555 56 469 q 228 688 146 640 q 419 735 311 735 q 610 688 528 735 q 738 557 693 642 q 783 361 783 472 q 738 162 783 249 q 610 27 693 75 q 421 -21 528 -21 m 419 149 q 540 206 494 149 q 585 358 585 264 q 540 509 585 453 q 419 565 494 565 q 299 509 344 565 q 254 358 254 453 q 299 206 254 264 q 419 149 344 149 m 189 860 q 274 951 243 903 l 238 1025 q 265 1092 238 1063 q 335 1121 293 1121 q 407 1091 378 1121 q 436 1015 436 1061 q 371 888 436 944 q 214 806 306 831 l 189 860 m 453 860 q 538 951 507 903 l 501 1025 q 529 1092 501 1063 q 599 1121 557 1121 q 671 1091 642 1121 q 700 1015 700 1061 q 635 888 700 944 q 478 806 569 831 l 453 860 z "},"ō":{"ha":839,"x_min":56,"x_max":783,"o":"m 421 -21 q 230 26 313 -21 q 101 159 147 74 q 56 357 56 244 q 101 555 56 469 q 228 688 146 640 q 419 735 311 735 q 610 688 528 735 q 738 557 693 642 q 783 361 783 472 q 738 162 783 249 q 610 27 693 75 q 421 -21 528 -21 m 419 149 q 540 206 494 149 q 585 358 585 264 q 540 509 585 453 q 419 565 494 565 q 299 509 344 565 q 254 358 254 453 q 299 206 254 264 q 419 149 344 149 m 186 954 l 650 954 l 651 831 l 188 831 l 186 954 z "},"ø":{"ha":843,"x_min":58,"x_max":786,"o":"m 729 578 q 786 361 786 483 q 741 162 786 249 q 613 27 696 75 q 424 -21 531 -21 q 203 44 296 -21 l 103 -57 l 69 93 l 115 139 q 58 357 58 229 q 103 555 58 469 q 231 688 149 640 q 422 735 314 735 q 640 671 551 735 l 742 774 l 775 624 l 729 578 m 257 358 q 264 290 257 325 l 510 539 q 422 565 472 565 q 302 509 347 565 q 257 358 257 453 m 422 149 q 542 206 497 149 q 588 358 588 264 q 581 426 588 392 l 333 176 q 422 149 372 149 z "},"õ":{"ha":839,"x_min":56,"x_max":783,"o":"m 421 -21 q 230 26 313 -21 q 101 159 147 74 q 56 357 56 244 q 101 555 56 469 q 228 688 146 640 q 419 735 311 735 q 610 688 528 735 q 738 557 693 642 q 783 361 783 472 q 738 162 783 249 q 610 27 693 75 q 421 -21 528 -21 m 419 149 q 540 206 494 149 q 585 358 585 264 q 540 509 585 453 q 419 565 494 565 q 299 509 344 565 q 254 358 254 453 q 299 206 254 264 q 419 149 344 149 m 525 807 q 458 820 489 807 q 386 858 428 833 q 337 885 356 876 q 300 894 318 894 q 258 875 278 894 q 222 810 239 856 l 147 867 q 215 995 169 953 q 319 1038 260 1038 q 386 1024 356 1038 q 458 986 417 1011 q 508 959 489 968 q 544 950 526 950 q 586 969 567 950 q 622 1035 606 989 l 697 978 q 630 849 675 892 q 525 807 585 807 z "},"œ":{"ha":1254,"x_min":56,"x_max":1199,"o":"m 421 -21 q 230 26 313 -21 q 101 159 147 74 q 56 357 56 244 q 101 555 56 469 q 228 688 146 640 q 419 735 311 735 q 651 661 556 735 q 876 735 742 735 q 1115 635 1032 735 q 1199 346 1199 535 q 1197 299 1199 314 l 725 299 q 789 187 739 225 q 924 149 839 149 q 1031 162 975 149 q 1128 197 1086 175 l 1160 40 q 1037 -5 1104 11 q 900 -21 969 -21 q 651 57 749 -21 q 421 -21 558 -21 m 1011 446 q 969 541 1007 506 q 869 576 932 576 q 772 542 810 576 q 724 446 733 507 l 1011 446 m 419 149 q 492 166 460 149 q 547 217 525 183 q 528 357 528 282 q 547 499 528 432 q 492 548 525 531 q 419 565 460 565 q 299 509 344 565 q 254 358 254 453 q 299 206 254 264 q 419 149 344 149 z "},"p":{"ha":801,"x_min":90,"x_max":747,"o":"m 90 715 l 281 715 l 276 622 l 282 622 q 370 707 318 678 q 489 736 422 736 q 678 644 610 736 q 747 386 747 551 q 645 85 747 190 q 354 -19 543 -19 q 283 -17 331 -19 l 283 -303 l 90 -303 l 90 715 m 374 151 q 506 208 461 151 q 551 375 551 265 q 523 515 551 464 q 444 565 494 565 q 358 527 400 565 q 283 418 317 489 l 283 164 q 374 151 331 151 z "},"þ":{"ha":803,"x_min":90,"x_max":747,"o":"m 90 1014 l 279 1014 l 279 622 l 282 622 q 370 707 318 678 q 489 736 422 736 q 678 644 610 736 q 747 386 747 551 q 645 85 747 190 q 354 -19 543 -19 q 283 -17 331 -19 l 283 -303 l 90 -303 l 90 1014 m 374 151 q 506 208 461 151 q 551 375 551 265 q 523 515 551 464 q 444 565 494 565 q 358 527 400 565 q 283 418 317 489 l 283 164 q 374 151 331 151 z "},"q":{"ha":801,"x_min":56,"x_max":713,"o":"m 518 71 q 428 3 479 26 q 315 -21 376 -21 q 124 72 193 -21 q 56 328 56 164 q 158 630 56 525 q 450 735 260 735 q 711 703 564 735 l 713 -303 l 519 -303 l 518 71 m 367 150 q 449 182 410 150 q 519 272 489 214 l 518 551 q 429 564 472 564 q 297 507 342 564 q 251 342 251 450 q 281 201 251 251 q 367 150 311 150 z "},"r":{"ha":554,"x_min":94,"x_max":522,"o":"m 94 715 l 290 715 l 290 599 l 301 599 q 381 703 342 669 q 481 736 421 736 q 522 731 506 736 l 501 519 q 443 529 465 529 q 387 517 411 529 q 344 483 363 504 q 290 419 325 463 l 290 0 l 94 0 l 94 715 z "},"ŕ":{"ha":554,"x_min":94,"x_max":522,"o":"m 94 715 l 290 715 l 290 599 l 301 599 q 381 703 342 669 q 481 736 421 736 q 522 731 506 736 l 501 519 q 443 529 465 529 q 387 517 411 529 q 344 483 363 504 q 290 419 325 463 l 290 0 l 94 0 l 94 715 m 235 860 q 319 951 289 903 l 283 1025 q 311 1092 283 1063 q 381 1121 339 1121 q 453 1091 424 1121 q 482 1015 482 1061 q 417 888 482 944 q 260 806 351 831 l 235 860 z "},"ř":{"ha":554,"x_min":44,"x_max":522,"o":"m 94 715 l 290 715 l 290 599 l 301 599 q 381 703 342 669 q 481 736 421 736 q 522 731 506 736 l 501 519 q 443 529 465 529 q 387 517 411 529 q 344 483 363 504 q 290 419 325 463 l 290 0 l 94 0 l 94 715 m 44 989 l 106 1085 l 278 992 l 450 1085 l 511 989 l 278 806 l 44 989 z "},"ŗ":{"ha":554,"x_min":86,"x_max":522,"o":"m 94 715 l 290 715 l 290 599 l 301 599 q 381 703 342 669 q 481 736 421 736 q 522 731 506 736 l 501 519 q 443 529 465 529 q 387 517 411 529 q 344 483 363 504 q 290 419 325 463 l 290 0 l 94 0 l 94 715 m 86 -368 q 146 -269 132 -307 l 89 -185 q 117 -119 89 -149 q 188 -90 144 -90 q 260 -120 231 -90 q 289 -196 289 -150 q 246 -319 289 -250 q 110 -453 203 -387 l 86 -368 z "},"s":{"ha":651,"x_min":58,"x_max":596,"o":"m 297 -21 q 166 -7 229 -21 q 58 31 103 7 l 76 197 q 181 150 124 168 q 288 132 238 132 q 367 149 335 132 q 399 200 399 167 q 376 241 399 226 q 292 278 354 256 l 254 292 q 157 334 194 314 q 89 396 119 354 q 58 506 58 438 q 140 674 58 614 q 351 735 221 735 q 568 694 454 735 l 542 529 q 451 567 501 553 q 356 582 400 582 q 283 567 310 582 q 256 522 256 551 q 278 481 256 494 q 353 449 300 467 q 401 431 394 433 q 499 385 460 407 q 567 319 538 363 q 596 207 596 275 q 514 36 596 93 q 297 -21 432 -21 z "},"ś":{"ha":651,"x_min":58,"x_max":596,"o":"m 297 -21 q 166 -7 229 -21 q 58 31 103 7 l 76 197 q 181 150 124 168 q 288 132 238 132 q 367 149 335 132 q 399 200 399 167 q 376 241 399 226 q 292 278 354 256 l 254 292 q 157 334 194 314 q 89 396 119 354 q 58 506 58 438 q 140 674 58 614 q 351 735 221 735 q 568 694 454 735 l 542 529 q 451 567 501 553 q 356 582 400 582 q 283 567 310 582 q 256 522 256 551 q 278 481 256 494 q 353 449 300 467 q 401 431 394 433 q 499 385 460 407 q 567 319 538 363 q 596 207 596 275 q 514 36 596 93 q 297 -21 432 -21 m 281 860 q 365 951 335 903 l 329 1025 q 357 1092 329 1063 q 426 1121 385 1121 q 499 1091 469 1121 q 528 1015 528 1061 q 463 888 528 944 q 306 806 397 831 l 281 860 z "},"š":{"ha":651,"x_min":58,"x_max":596,"o":"m 297 -21 q 166 -7 229 -21 q 58 31 103 7 l 76 197 q 181 150 124 168 q 288 132 238 132 q 367 149 335 132 q 399 200 399 167 q 376 241 399 226 q 292 278 354 256 l 254 292 q 157 334 194 314 q 89 396 119 354 q 58 506 58 438 q 140 674 58 614 q 351 735 221 735 q 568 694 454 735 l 542 529 q 451 567 501 553 q 356 582 400 582 q 283 567 310 582 q 256 522 256 551 q 278 481 256 494 q 353 449 300 467 q 401 431 394 433 q 499 385 460 407 q 567 319 538 363 q 596 207 596 275 q 514 36 596 93 q 297 -21 432 -21 m 90 989 l 151 1085 l 324 992 l 496 1085 l 557 989 l 324 806 l 90 989 z "},"ş":{"ha":651,"x_min":58,"x_max":596,"o":"m 596 207 q 535 53 596 110 q 369 -17 474 -3 l 343 -78 q 450 -123 410 -89 q 490 -210 490 -157 q 442 -301 490 -265 q 325 -337 393 -337 q 226 -320 275 -337 q 146 -275 178 -303 l 188 -215 q 249 -248 217 -236 q 307 -260 282 -260 q 357 -217 357 -260 q 253 -175 357 -172 l 224 -156 l 269 -21 q 153 -5 208 -18 q 58 31 97 8 l 76 197 q 181 150 124 168 q 288 132 238 132 q 367 149 335 132 q 399 200 399 167 q 376 241 399 226 q 292 278 354 256 l 254 292 q 157 334 194 314 q 89 396 119 354 q 58 506 58 438 q 140 674 58 614 q 351 735 221 735 q 568 694 454 735 l 542 529 q 451 567 501 553 q 356 582 400 582 q 283 567 310 582 q 256 522 256 551 q 278 481 256 494 q 353 449 300 467 q 401 431 394 433 q 499 385 460 407 q 567 319 538 363 q 596 207 596 275 z "},"ș":{"ha":651,"x_min":58,"x_max":596,"o":"m 297 -21 q 166 -7 229 -21 q 58 31 103 7 l 76 197 q 181 150 124 168 q 288 132 238 132 q 367 149 335 132 q 399 200 399 167 q 376 241 399 226 q 292 278 354 256 l 254 292 q 157 334 194 314 q 89 396 119 354 q 58 506 58 438 q 140 674 58 614 q 351 735 221 735 q 568 694 454 735 l 542 529 q 451 567 501 553 q 356 582 400 582 q 283 567 310 582 q 256 522 256 551 q 278 481 256 494 q 353 449 300 467 q 401 431 394 433 q 499 385 460 407 q 567 319 538 363 q 596 207 596 275 q 514 36 596 93 q 297 -21 432 -21 m 221 -368 q 281 -269 267 -307 l 224 -185 q 251 -119 224 -149 q 322 -90 279 -90 q 394 -120 365 -90 q 424 -196 424 -150 q 381 -319 424 -250 q 244 -453 338 -387 l 221 -368 z "},"ß":{"ha":806,"x_min":90,"x_max":771,"o":"m 90 694 q 178 944 90 851 q 415 1036 265 1036 q 616 974 538 1036 q 694 807 694 913 q 666 692 694 739 q 590 599 638 646 q 556 561 567 575 q 546 535 546 547 q 561 504 546 519 q 613 463 576 489 q 692 396 661 425 q 747 319 724 367 q 771 211 771 272 q 704 44 771 107 q 529 -18 638 -18 q 356 19 453 -18 l 424 171 q 508 147 468 147 q 556 163 539 147 q 574 204 574 178 q 555 255 574 233 q 496 308 536 276 q 410 392 440 353 q 381 490 381 431 q 397 574 381 535 q 446 667 414 614 q 485 739 472 713 q 497 792 497 765 q 474 849 497 826 q 410 871 451 871 q 319 831 353 871 q 286 725 286 792 l 286 -303 l 90 -303 l 90 694 z "},"t":{"ha":585,"x_min":32,"x_max":536,"o":"m 353 -21 q 198 30 253 -21 q 143 174 143 81 l 143 547 l 32 547 l 32 715 l 143 715 l 143 868 q 338 893 242 885 l 338 715 l 518 715 l 518 547 l 338 547 l 338 210 q 355 165 338 181 q 404 150 372 150 q 493 168 443 150 l 536 21 q 353 -21 447 -21 z "},"ŧ":{"ha":585,"x_min":14,"x_max":536,"o":"m 536 21 q 353 -21 447 -21 q 198 30 253 -21 q 143 174 143 81 l 143 310 l 14 310 l 28 428 l 143 428 l 143 547 l 32 547 l 32 715 l 143 715 l 143 868 q 338 893 242 885 l 338 715 l 518 715 l 518 547 l 338 547 l 338 428 l 525 428 l 511 310 l 338 310 l 338 210 q 355 165 338 181 q 404 150 372 150 q 493 168 443 150 l 536 21 z "},"ť":{"ha":697,"x_min":32,"x_max":704,"o":"m 492 833 q 556 940 535 885 l 503 1007 q 525 1086 499 1053 q 603 1121 556 1121 q 674 1089 644 1121 q 704 1007 704 1057 q 653 884 704 944 q 528 785 603 824 l 492 833 m 353 -21 q 198 30 253 -21 q 143 174 143 81 l 143 547 l 32 547 l 32 715 l 143 715 l 143 868 q 338 893 242 885 l 338 715 l 518 715 l 518 547 l 338 547 l 338 210 q 355 165 338 181 q 404 150 372 150 q 493 168 443 150 l 536 21 q 353 -21 447 -21 z "},"ţ":{"ha":585,"x_min":32,"x_max":536,"o":"m 354 -78 q 461 -123 421 -89 q 501 -210 501 -157 q 453 -301 501 -265 q 336 -337 404 -337 q 238 -320 286 -337 q 157 -275 189 -303 l 199 -215 q 260 -248 228 -236 q 318 -260 293 -260 q 368 -217 368 -260 q 264 -175 368 -172 l 235 -156 l 283 -14 q 179 49 215 1 q 143 174 143 97 l 143 547 l 32 547 l 32 715 l 143 715 l 143 868 q 338 893 242 885 l 338 715 l 518 715 l 518 547 l 338 547 l 338 210 q 355 165 338 181 q 404 150 372 150 q 493 168 443 150 l 536 21 q 379 -19 457 -15 l 354 -78 z "},"ț":{"ha":585,"x_min":32,"x_max":536,"o":"m 353 -21 q 198 30 253 -21 q 143 174 143 81 l 143 547 l 32 547 l 32 715 l 143 715 l 143 868 q 338 893 242 885 l 338 715 l 518 715 l 518 547 l 338 547 l 338 210 q 355 165 338 181 q 404 150 372 150 q 493 168 443 150 l 536 21 q 353 -21 447 -21 m 232 -368 q 292 -269 278 -307 l 235 -185 q 263 -119 235 -149 q 333 -90 290 -90 q 406 -120 376 -90 q 435 -196 435 -150 q 392 -319 435 -250 q 256 -453 349 -387 l 232 -368 z "},"u":{"ha":832,"x_min":83,"x_max":742,"o":"m 328 -19 q 149 50 214 -19 q 83 240 83 119 l 83 715 l 279 715 l 279 272 q 307 184 279 215 q 382 153 335 153 q 473 183 429 153 q 546 265 517 214 l 546 715 l 742 715 l 742 0 l 546 0 l 546 94 q 453 10 506 40 q 328 -19 401 -19 z "},"ú":{"ha":832,"x_min":83,"x_max":742,"o":"m 328 -19 q 149 50 214 -19 q 83 240 83 119 l 83 715 l 279 715 l 279 272 q 307 184 279 215 q 382 153 335 153 q 473 183 429 153 q 546 265 517 214 l 546 715 l 742 715 l 742 0 l 546 0 l 546 94 q 453 10 506 40 q 328 -19 401 -19 m 374 860 q 458 951 428 903 l 422 1025 q 450 1092 422 1063 q 519 1121 478 1121 q 592 1091 563 1121 q 621 1015 621 1061 q 556 888 621 944 q 399 806 490 831 l 374 860 z "},"û":{"ha":832,"x_min":83,"x_max":742,"o":"m 328 -19 q 149 50 214 -19 q 83 240 83 119 l 83 715 l 279 715 l 279 272 q 307 184 279 215 q 382 153 335 153 q 473 183 429 153 q 546 265 517 214 l 546 715 l 742 715 l 742 0 l 546 0 l 546 94 q 453 10 506 40 q 328 -19 401 -19 m 183 901 l 417 1085 l 650 901 l 589 806 l 417 899 l 244 806 l 183 901 z "},"ü":{"ha":832,"x_min":83,"x_max":742,"o":"m 328 -19 q 149 50 214 -19 q 83 240 83 119 l 83 715 l 279 715 l 279 272 q 307 184 279 215 q 382 153 335 153 q 473 183 429 153 q 546 265 517 214 l 546 715 l 742 715 l 742 0 l 546 0 l 546 94 q 453 10 506 40 q 328 -19 401 -19 m 254 814 q 178 846 210 814 q 146 924 146 878 q 179 1001 146 969 q 258 1033 213 1033 q 335 1001 303 1033 q 367 924 367 969 q 333 847 367 879 q 254 814 299 814 m 575 814 q 499 846 531 814 q 467 924 467 878 q 501 1001 467 968 q 579 1033 535 1033 q 656 1001 624 1033 q 688 924 688 969 q 656 846 688 878 q 575 814 624 814 z "},"ù":{"ha":832,"x_min":83,"x_max":742,"o":"m 328 -19 q 149 50 214 -19 q 83 240 83 119 l 83 715 l 279 715 l 279 272 q 307 184 279 215 q 382 153 335 153 q 473 183 429 153 q 546 265 517 214 l 546 715 l 742 715 l 742 0 l 546 0 l 546 94 q 453 10 506 40 q 328 -19 401 -19 m 421 806 q 349 835 378 806 q 319 911 319 865 q 385 1039 319 982 q 542 1121 450 1096 l 567 1067 q 482 975 513 1024 l 518 901 q 490 835 518 864 q 421 806 463 806 z "},"ű":{"ha":832,"x_min":83,"x_max":742,"o":"m 328 -19 q 149 50 214 -19 q 83 240 83 119 l 83 715 l 279 715 l 279 272 q 307 184 279 215 q 382 153 335 153 q 473 183 429 153 q 546 265 517 214 l 546 715 l 742 715 l 742 0 l 546 0 l 546 94 q 453 10 506 40 q 328 -19 401 -19 m 186 860 q 271 951 240 903 l 235 1025 q 263 1092 235 1063 q 332 1121 290 1121 q 404 1091 375 1121 q 433 1015 433 1061 q 368 888 433 944 q 211 806 303 831 l 186 860 m 450 860 q 535 951 504 903 l 499 1025 q 526 1092 499 1063 q 596 1121 554 1121 q 668 1091 639 1121 q 697 1015 697 1061 q 632 888 697 944 q 475 806 567 831 l 450 860 z "},"ū":{"ha":832,"x_min":83,"x_max":742,"o":"m 328 -19 q 149 50 214 -19 q 83 240 83 119 l 83 715 l 279 715 l 279 272 q 307 184 279 215 q 382 153 335 153 q 473 183 429 153 q 546 265 517 214 l 546 715 l 742 715 l 742 0 l 546 0 l 546 94 q 453 10 506 40 q 328 -19 401 -19 m 183 954 l 647 954 l 649 831 l 185 831 l 183 954 z "},"ų":{"ha":832,"x_min":83,"x_max":746,"o":"m 622 -306 q 506 -269 549 -306 q 464 -169 464 -232 q 486 -86 464 -124 q 547 -24 508 -49 q 549 75 549 8 l 549 99 q 456 11 508 42 q 328 -19 404 -19 q 149 50 214 -19 q 83 240 83 119 l 83 715 l 279 715 l 279 272 q 307 184 279 215 q 382 153 335 153 q 473 183 429 153 q 546 265 517 214 l 546 715 l 742 715 l 742 0 q 632 -54 674 -21 q 590 -129 590 -87 q 612 -174 590 -158 q 665 -190 633 -190 q 746 -167 707 -190 l 739 -274 q 688 -297 718 -289 q 622 -306 657 -306 z "},"ů":{"ha":832,"x_min":83,"x_max":742,"o":"m 328 -19 q 149 50 214 -19 q 83 240 83 119 l 83 715 l 279 715 l 279 272 q 307 184 279 215 q 382 153 335 153 q 473 183 429 153 q 546 265 517 214 l 546 715 l 742 715 l 742 0 l 546 0 l 546 94 q 453 10 506 40 q 328 -19 401 -19 m 417 797 q 290 847 342 797 q 238 971 238 897 q 290 1094 238 1044 q 417 1144 342 1144 q 544 1094 492 1144 q 596 971 596 1044 q 544 847 596 897 q 417 797 492 797 m 417 896 q 467 918 447 896 q 486 971 486 940 q 467 1024 486 1001 q 417 1046 447 1046 q 367 1024 386 1046 q 347 971 347 1001 q 367 918 347 940 q 417 896 386 896 z "},"v":{"ha":760,"x_min":7,"x_max":740,"o":"m 7 713 l 221 732 l 379 217 l 531 715 l 740 715 l 489 0 l 260 0 l 7 713 z "},"w":{"ha":1181,"x_min":10,"x_max":1161,"o":"m 10 715 l 210 715 l 338 242 l 475 711 l 696 729 l 844 228 l 975 715 l 1161 715 l 943 0 l 729 0 l 582 519 l 428 0 l 218 0 l 10 715 z "},"ẃ":{"ha":1181,"x_min":10,"x_max":1161,"o":"m 10 715 l 210 715 l 338 242 l 475 711 l 696 729 l 844 228 l 975 715 l 1161 715 l 943 0 l 729 0 l 582 519 l 428 0 l 218 0 l 10 715 m 547 860 q 632 951 601 903 l 596 1025 q 624 1092 596 1063 q 693 1121 651 1121 q 765 1091 736 1121 q 794 1015 794 1061 q 729 888 794 944 q 572 806 664 831 l 547 860 z "},"ŵ":{"ha":1181,"x_min":10,"x_max":1161,"o":"m 10 715 l 210 715 l 338 242 l 475 711 l 696 729 l 844 228 l 975 715 l 1161 715 l 943 0 l 729 0 l 582 519 l 428 0 l 218 0 l 10 715 m 357 901 l 590 1085 l 824 901 l 763 806 l 590 899 l 418 806 l 357 901 z "},"ẅ":{"ha":1181,"x_min":10,"x_max":1161,"o":"m 10 715 l 210 715 l 338 242 l 475 711 l 696 729 l 844 228 l 975 715 l 1161 715 l 943 0 l 729 0 l 582 519 l 428 0 l 218 0 l 10 715 m 428 814 q 351 846 383 814 q 319 924 319 878 q 353 1001 319 969 q 432 1033 386 1033 q 508 1001 476 1033 q 540 924 540 969 q 506 847 540 879 q 428 814 472 814 m 749 814 q 672 846 704 814 q 640 924 640 878 q 674 1001 640 968 q 753 1033 708 1033 q 829 1001 797 1033 q 861 924 861 969 q 829 846 861 878 q 749 814 797 814 z "},"ẁ":{"ha":1181,"x_min":10,"x_max":1161,"o":"m 10 715 l 210 715 l 338 242 l 475 711 l 696 729 l 844 228 l 975 715 l 1161 715 l 943 0 l 729 0 l 582 519 l 428 0 l 218 0 l 10 715 m 594 806 q 522 835 551 806 q 493 911 493 865 q 558 1039 493 982 q 715 1121 624 1096 l 740 1067 q 656 975 686 1024 l 692 901 q 664 835 692 864 q 594 806 636 806 z "},"x":{"ha":757,"x_min":11,"x_max":747,"o":"m 376 219 l 233 0 l 11 0 l 275 369 l 36 715 l 253 726 l 388 524 l 513 715 l 726 715 l 490 379 l 747 0 l 531 -11 l 376 219 z "},"y":{"ha":753,"x_min":8,"x_max":733,"o":"m 192 -311 q 58 -281 128 -311 l 88 -119 q 176 -146 140 -146 q 241 -118 219 -146 q 288 -21 263 -90 l 8 713 l 211 729 l 382 217 l 540 715 l 733 715 q 547 185 644 446 q 394 -174 449 -76 q 308 -277 356 -243 q 192 -311 260 -311 z "},"ý":{"ha":753,"x_min":8,"x_max":733,"o":"m 192 -311 q 58 -281 128 -311 l 88 -119 q 176 -146 140 -146 q 241 -118 219 -146 q 288 -21 263 -90 l 8 713 l 211 729 l 382 217 l 540 715 l 733 715 q 547 185 644 446 q 394 -174 449 -76 q 308 -277 356 -243 q 192 -311 260 -311 m 333 860 q 418 951 388 903 l 382 1025 q 410 1092 382 1063 q 479 1121 438 1121 q 551 1091 522 1121 q 581 1015 581 1061 q 515 888 581 944 q 358 806 450 831 l 333 860 z "},"ŷ":{"ha":753,"x_min":8,"x_max":733,"o":"m 192 -311 q 58 -281 128 -311 l 88 -119 q 176 -146 140 -146 q 241 -118 219 -146 q 288 -21 263 -90 l 8 713 l 211 729 l 382 217 l 540 715 l 733 715 q 547 185 644 446 q 394 -174 449 -76 q 308 -277 356 -243 q 192 -311 260 -311 m 143 901 l 376 1085 l 610 901 l 549 806 l 376 899 l 204 806 l 143 901 z "},"ÿ":{"ha":753,"x_min":8,"x_max":733,"o":"m 192 -311 q 58 -281 128 -311 l 88 -119 q 176 -146 140 -146 q 241 -118 219 -146 q 288 -21 263 -90 l 8 713 l 211 729 l 382 217 l 540 715 l 733 715 q 547 185 644 446 q 394 -174 449 -76 q 308 -277 356 -243 q 192 -311 260 -311 m 214 814 q 138 846 169 814 q 106 924 106 878 q 139 1001 106 969 q 218 1033 172 1033 q 294 1001 263 1033 q 326 924 326 969 q 292 847 326 879 q 214 814 258 814 m 535 814 q 458 846 490 814 q 426 924 426 878 q 460 1001 426 968 q 539 1033 494 1033 q 615 1001 583 1033 q 647 924 647 969 q 615 846 647 878 q 535 814 583 814 z "},"ỳ":{"ha":753,"x_min":8,"x_max":733,"o":"m 192 -311 q 58 -281 128 -311 l 88 -119 q 176 -146 140 -146 q 241 -118 219 -146 q 288 -21 263 -90 l 8 713 l 211 729 l 382 217 l 540 715 l 733 715 q 547 185 644 446 q 394 -174 449 -76 q 308 -277 356 -243 q 192 -311 260 -311 m 381 806 q 308 835 338 806 q 279 911 279 865 q 344 1039 279 982 q 501 1121 410 1096 l 526 1067 q 442 975 472 1024 l 478 901 q 450 835 478 864 q 381 806 422 806 z "},"z":{"ha":699,"x_min":53,"x_max":635,"o":"m 53 129 l 396 547 l 76 547 l 76 715 l 635 715 l 635 588 l 293 168 l 635 168 l 635 1 l 53 1 l 53 129 z "},"ź":{"ha":699,"x_min":53,"x_max":635,"o":"m 53 129 l 396 547 l 76 547 l 76 715 l 635 715 l 635 588 l 293 168 l 635 168 l 635 1 l 53 1 l 53 129 m 307 860 q 392 951 361 903 l 356 1025 q 383 1092 356 1063 q 453 1121 411 1121 q 525 1091 496 1121 q 554 1015 554 1061 q 489 888 554 944 q 332 806 424 831 l 307 860 z "},"ž":{"ha":699,"x_min":53,"x_max":635,"o":"m 53 129 l 396 547 l 76 547 l 76 715 l 635 715 l 635 588 l 293 168 l 635 168 l 635 1 l 53 1 l 53 129 m 117 989 l 178 1085 l 350 992 l 522 1085 l 583 989 l 350 806 l 117 989 z "},"ż":{"ha":699,"x_min":53,"x_max":635,"o":"m 53 129 l 396 547 l 76 547 l 76 715 l 635 715 l 635 588 l 293 168 l 635 168 l 635 1 l 53 1 l 53 129 m 349 819 q 274 851 306 819 q 243 925 243 882 q 276 999 243 968 q 351 1031 308 1031 q 426 999 394 1031 q 457 925 457 968 q 424 851 457 882 q 349 819 392 819 z "},"ﬁ":{"ha":1171,"x_min":64,"x_max":1132,"o":"m 64 168 l 190 168 l 190 547 l 64 547 l 64 715 l 190 715 l 190 803 q 257 970 190 907 q 435 1033 324 1033 q 607 994 513 1033 l 539 840 q 454 864 492 864 q 404 846 422 864 q 386 793 386 828 l 386 715 l 1013 715 l 1013 168 l 1132 168 l 1132 0 l 683 0 l 683 168 l 817 168 l 817 547 l 386 547 l 386 168 l 553 168 l 553 0 l 64 0 l 64 168 m 792 1014 l 1015 1014 l 1015 833 l 792 833 l 792 1014 z "},"ﬂ":{"ha":1163,"x_min":64,"x_max":1124,"o":"m 64 168 l 190 168 l 190 547 l 64 547 l 64 715 l 190 715 l 190 803 q 257 970 190 907 q 435 1033 324 1033 q 607 994 513 1033 l 539 840 q 454 864 492 864 q 404 846 422 864 q 386 793 386 828 l 386 715 l 553 715 l 553 547 l 386 547 l 386 168 l 801 168 l 801 847 l 682 847 l 682 1014 l 997 1014 l 997 168 l 1124 168 l 1124 0 l 64 0 l 64 168 z "},"ª":{"ha":626,"x_min":90,"x_max":536,"o":"m 249 529 q 140 585 179 529 q 100 739 100 640 q 159 920 100 857 q 328 983 218 983 q 482 964 389 983 l 482 542 l 369 542 l 372 590 l 369 590 q 317 545 349 561 q 249 529 285 529 m 279 632 q 326 651 303 632 q 368 708 350 671 l 368 874 q 315 881 338 881 q 240 847 265 881 q 214 747 214 813 q 231 663 214 693 q 279 632 249 632 m 90 446 l 536 446 l 536 378 l 90 378 l 90 446 z "},"º":{"ha":626,"x_min":90,"x_max":536,"o":"m 313 529 q 153 592 214 529 q 93 757 93 654 q 153 921 93 858 q 311 983 214 983 q 469 922 410 983 q 529 758 529 860 q 469 592 529 656 q 313 529 410 529 m 311 631 q 383 665 356 631 q 411 757 411 700 q 383 847 411 813 q 311 882 356 882 q 239 847 267 882 q 211 757 211 813 q 239 665 211 700 q 311 631 267 631 m 90 446 l 536 446 l 536 378 l 90 378 l 90 446 z "},"π":{"ha":1210,"x_min":150,"x_max":1119,"o":"m 875 -21 q 737 21 785 -21 q 689 138 689 63 q 706 283 689 169 l 724 411 l 746 575 l 482 575 l 404 0 l 204 0 l 282 575 l 150 575 l 174 744 l 1119 744 l 1096 575 l 946 575 l 913 333 q 894 196 894 214 q 910 162 894 174 q 954 150 925 150 q 1044 168 993 150 l 1065 21 q 875 -21 968 -21 z "},"א":{"ha":810,"x_min":61,"x_max":754,"o":"m 347 342 q 296 294 313 322 q 274 215 279 265 q 267 130 271 192 q 263 36 264 68 l 261 -3 q 114 -7 189 -7 l 65 -7 q 74 197 67 113 q 113 345 81 286 q 214 442 146 404 q 61 681 124 567 q 238 775 138 728 q 443 457 357 576 q 508 488 488 468 q 533 547 528 507 q 551 747 540 592 q 674 751 614 751 l 753 750 l 740 583 q 692 436 733 490 q 567 351 650 382 l 754 56 q 575 -26 649 0 l 347 342 z "},"ב":{"ha":744,"x_min":46,"x_max":724,"o":"m 46 174 l 422 174 l 422 485 q 401 548 422 525 q 342 571 379 571 l 79 571 l 79 744 l 379 744 q 551 682 489 744 q 613 508 613 619 l 613 174 l 724 174 l 704 0 l 46 0 l 46 174 z "},"ג":{"ha":565,"x_min":29,"x_max":511,"o":"m 29 -29 q 38 154 32 65 q 301 279 189 217 l 271 571 l 100 571 l 100 744 l 438 744 l 511 31 q 344 -22 426 -4 l 329 110 q 44 -29 217 47 l 29 -29 z "},"ד":{"ha":731,"x_min":28,"x_max":689,"o":"m 364 571 l 28 571 l 28 744 l 689 744 l 669 571 l 554 571 l 554 6 l 364 -7 l 364 571 z "},"ה":{"ha":814,"x_min":81,"x_max":733,"o":"m 543 485 q 522 548 543 525 q 463 571 500 571 l 81 571 l 81 744 l 500 744 q 672 682 610 744 q 733 508 733 619 l 733 6 l 543 -7 l 543 485 m 88 374 q 281 386 215 385 l 281 6 l 88 -7 l 88 374 z "},"ו":{"ha":463,"x_min":42,"x_max":368,"o":"m 178 571 l 42 571 l 42 744 l 368 744 l 368 6 l 178 -7 l 178 571 z "},"ז":{"ha":556,"x_min":25,"x_max":511,"o":"m 174 560 q 25 589 90 569 l 49 758 q 268 731 163 731 q 488 758 374 731 l 511 589 q 364 560 449 569 l 364 0 l 174 0 l 174 560 z "},"ח":{"ha":840,"x_min":97,"x_max":760,"o":"m 97 744 l 526 744 q 698 682 636 744 q 760 508 760 619 l 760 6 l 569 -7 l 569 482 q 547 547 569 524 q 486 571 525 571 l 288 571 l 288 6 l 97 -7 l 97 744 z "},"ט":{"ha":821,"x_min":83,"x_max":768,"o":"m 206 -8 q 118 -6 174 -8 l 83 649 l 83 733 l 265 746 l 299 175 q 444 210 381 175 q 544 310 508 246 q 581 457 581 374 q 482 582 581 582 q 399 564 450 582 l 354 713 q 435 747 389 733 q 529 760 482 760 q 704 687 640 760 q 768 483 768 614 q 701 230 768 347 q 521 56 633 113 q 380 8 461 25 q 206 -8 299 -8 z "},"י":{"ha":453,"x_min":33,"x_max":369,"o":"m 176 571 l 33 571 l 33 744 l 369 744 l 369 279 l 176 267 l 176 571 z "},"ך":{"ha":653,"x_min":36,"x_max":572,"o":"m 382 482 q 360 547 382 524 q 299 571 338 571 l 36 571 l 36 744 l 339 744 q 510 682 449 744 q 572 508 572 619 l 572 -167 l 382 -179 l 382 482 z "},"כ":{"ha":700,"x_min":51,"x_max":642,"o":"m 64 174 l 253 174 q 403 224 357 174 q 450 388 450 275 q 414 526 450 481 q 304 571 378 571 l 79 571 l 79 744 l 308 744 q 560 659 479 744 q 642 394 642 574 q 543 94 642 188 q 225 0 444 0 l 51 0 l 64 174 z "},"ל":{"ha":657,"x_min":43,"x_max":588,"o":"m 214 -42 q 107 114 164 22 q 211 211 153 158 q 323 319 288 282 q 378 393 358 356 q 397 475 397 431 l 397 571 l 43 571 l 43 939 l 233 939 l 233 744 l 588 744 l 588 503 q 551 324 588 401 q 453 182 515 247 q 265 4 392 117 l 214 -42 z "},"ם":{"ha":846,"x_min":90,"x_max":765,"o":"m 90 744 l 532 744 q 703 682 642 744 q 765 508 765 619 l 765 0 l 90 0 l 90 744 m 575 174 l 575 482 q 553 547 575 524 q 492 571 531 571 l 281 571 l 281 174 l 575 174 z "},"מ":{"ha":879,"x_min":58,"x_max":799,"o":"m 196 569 l 58 599 l 94 765 l 206 744 l 521 744 q 726 672 653 744 q 799 469 799 600 l 799 0 l 421 0 l 421 174 l 608 174 l 608 453 q 577 542 608 510 q 490 574 546 574 l 390 574 l 269 -4 l 71 -4 l 196 569 z "},"ן":{"ha":458,"x_min":33,"x_max":369,"o":"m 181 571 l 33 571 l 33 744 l 369 744 l 369 -167 l 181 -179 l 181 571 z "},"נ":{"ha":540,"x_min":49,"x_max":450,"o":"m 49 174 l 260 174 l 260 571 l 100 571 l 100 744 l 450 744 l 450 0 l 49 0 l 49 174 z "},"ס":{"ha":856,"x_min":35,"x_max":803,"o":"m 203 -11 q 151 -10 169 -11 l 133 571 l 35 571 l 35 744 l 550 744 q 737 678 671 744 q 803 488 803 613 q 757 284 803 379 q 628 119 711 189 q 203 -11 464 -11 m 331 175 q 532 267 454 186 q 610 468 610 347 q 583 547 610 524 q 507 571 557 571 l 315 571 l 331 175 z "},"ע":{"ha":781,"x_min":24,"x_max":714,"o":"m 46 -72 q 24 101 29 47 q 249 150 174 129 l 106 588 l 60 681 q 232 761 136 725 q 274 694 258 731 q 306 601 289 657 l 421 222 q 502 336 478 265 q 526 525 526 407 q 510 724 526 618 q 700 753 588 744 q 714 565 714 676 q 653 233 714 354 q 451 44 593 113 q 46 -72 310 -25 z "},"ף":{"ha":758,"x_min":49,"x_max":678,"o":"m 488 482 q 465 547 488 524 q 404 571 443 571 l 289 571 l 246 414 l 357 357 l 282 196 l 49 311 l 49 365 l 147 744 q 296 746 196 746 q 444 744 396 746 q 616 681 554 743 q 678 508 678 619 l 678 -167 l 488 -179 l 488 482 z "},"פ":{"ha":783,"x_min":44,"x_max":711,"o":"m 44 169 l 532 169 q 514 481 529 332 q 483 551 508 526 q 414 575 457 575 l 300 575 l 274 465 l 383 408 q 319 250 358 335 l 79 374 l 79 415 l 156 744 q 299 746 203 746 q 440 744 393 746 q 617 685 554 742 q 692 517 679 629 q 706 315 700 442 q 711 65 711 189 l 711 0 l 44 0 l 44 169 z "},"ץ":{"ha":707,"x_min":1,"x_max":647,"o":"m 371 64 q 328 147 360 94 q 239 283 296 200 q 91 515 150 417 q 1 697 32 614 q 188 764 76 729 q 268 600 233 664 q 357 450 303 536 q 414 477 396 460 q 439 531 432 494 q 450 622 444 560 q 458 742 456 683 q 647 747 542 747 q 638 579 644 660 q 585 428 629 489 q 428 339 540 368 l 485 251 q 553 115 535 171 q 571 -28 571 58 q 564 -167 571 -74 l 369 -179 l 371 64 z "},"צ":{"ha":715,"x_min":25,"x_max":660,"o":"m 57 178 l 154 178 l 397 163 l 396 176 l 249 335 q 25 682 132 486 q 206 765 97 726 q 394 457 282 625 q 433 485 421 468 q 450 531 446 503 q 461 622 456 560 q 469 742 467 685 q 660 747 554 747 q 649 579 658 696 q 603 438 639 492 q 476 350 568 383 l 621 161 l 621 0 l 57 0 l 57 178 z "},"ק":{"ha":819,"x_min":83,"x_max":747,"o":"m 494 -31 q 374 119 431 40 l 403 156 q 526 326 496 275 q 557 428 557 376 l 557 571 l 83 571 l 83 744 l 747 744 l 747 471 q 726 314 747 381 q 666 191 704 247 q 547 35 628 135 q 524 6 538 22 q 494 -31 511 -10 m 90 390 q 283 403 218 401 l 283 -167 l 90 -179 l 90 390 z "},"ר":{"ha":650,"x_min":35,"x_max":569,"o":"m 379 482 q 357 547 379 522 q 296 571 335 571 l 35 571 l 35 744 l 336 744 q 508 682 446 744 q 569 508 569 619 l 569 6 l 379 -7 l 379 482 z "},"ש":{"ha":1024,"x_min":81,"x_max":961,"o":"m 222 -21 q 128 -19 161 -21 l 81 649 l 81 733 l 264 749 l 289 425 q 383 465 354 442 q 423 537 413 488 q 433 690 433 586 l 433 733 l 619 749 q 594 497 622 589 q 496 359 565 406 q 299 296 426 313 l 308 156 q 562 190 467 154 q 708 322 657 226 q 765 594 758 417 q 768 679 768 664 l 767 733 l 958 749 q 961 640 961 711 q 887 256 961 400 q 651 45 813 111 q 222 -21 490 -21 z "},"ת":{"ha":911,"x_min":28,"x_max":831,"o":"m 168 -15 q 28 -1 96 -15 q 72 161 42 71 q 128 157 104 157 q 206 240 206 157 l 206 571 l 51 571 l 51 744 l 597 744 q 769 682 707 744 q 831 508 831 619 l 831 6 l 640 -7 l 640 482 q 618 547 640 522 q 557 571 596 571 l 396 571 l 396 208 q 342 38 396 90 q 168 -15 288 -15 z "},"שׁ":{"ha":1024,"x_min":81,"x_max":961,"o":"m 222 -21 q 128 -19 161 -21 l 81 649 l 81 733 l 264 749 l 289 425 q 383 465 354 442 q 423 537 413 488 q 433 690 433 586 l 433 733 l 619 749 q 594 497 622 589 q 496 359 565 406 q 299 296 426 313 l 308 156 q 562 190 467 154 q 708 322 657 226 q 765 594 758 417 q 768 679 768 664 l 767 733 l 958 749 q 961 640 961 711 q 887 256 961 400 q 651 45 813 111 q 222 -21 490 -21 m 875 813 q 823 833 844 813 q 801 883 801 854 q 823 936 801 915 q 875 957 844 957 q 926 935 906 957 q 947 883 947 914 q 926 833 947 854 q 875 813 906 813 z "},"שׂ":{"ha":1024,"x_min":81,"x_max":961,"o":"m 222 -21 q 128 -19 161 -21 l 81 649 l 81 733 l 264 749 l 289 425 q 383 465 354 442 q 423 537 413 488 q 433 690 433 586 l 433 733 l 619 749 q 594 497 622 589 q 496 359 565 406 q 299 296 426 313 l 308 156 q 562 190 467 154 q 708 322 657 226 q 765 594 758 417 q 768 679 768 664 l 767 733 l 958 749 q 961 640 961 711 q 887 256 961 400 q 651 45 813 111 q 222 -21 490 -21 m 160 813 q 108 833 129 813 q 86 883 86 854 q 108 936 86 915 q 160 957 129 957 q 211 935 190 957 q 232 883 232 914 q 211 833 232 854 q 160 813 190 813 z "},"שּׁ":{"ha":1024,"x_min":81,"x_max":961,"o":"m 222 -21 q 128 -19 161 -21 l 81 649 l 81 733 l 264 749 l 289 425 q 383 465 354 442 q 423 537 413 488 q 433 690 433 586 l 433 733 l 619 749 q 594 497 622 589 q 496 359 565 406 q 299 296 426 313 l 308 156 q 562 190 467 154 q 708 322 657 226 q 765 594 758 417 q 768 679 768 664 l 767 733 l 958 749 q 961 640 961 711 q 887 256 961 400 q 651 45 813 111 q 222 -21 490 -21 m 553 218 q 501 239 522 218 q 479 289 479 260 q 501 342 479 321 q 553 363 522 363 q 604 341 583 363 q 625 289 625 319 q 604 239 625 260 q 553 218 583 218 m 875 813 q 823 833 844 813 q 801 883 801 854 q 823 936 801 915 q 875 957 844 957 q 926 935 906 957 q 947 883 947 914 q 926 833 947 854 q 875 813 906 813 z "},"שּׂ":{"ha":1024,"x_min":81,"x_max":961,"o":"m 222 -21 q 128 -19 161 -21 l 81 649 l 81 733 l 264 749 l 289 425 q 383 465 354 442 q 423 537 413 488 q 433 690 433 586 l 433 733 l 619 749 q 594 497 622 589 q 496 359 565 406 q 299 296 426 313 l 308 156 q 562 190 467 154 q 708 322 657 226 q 765 594 758 417 q 768 679 768 664 l 767 733 l 958 749 q 961 640 961 711 q 887 256 961 400 q 651 45 813 111 q 222 -21 490 -21 m 553 218 q 501 239 522 218 q 479 289 479 260 q 501 342 479 321 q 553 363 522 363 q 604 341 583 363 q 625 289 625 319 q 604 239 625 260 q 553 218 583 218 m 160 813 q 108 833 129 813 q 86 883 86 854 q 108 936 86 915 q 160 957 129 957 q 211 935 190 957 q 232 883 232 914 q 211 833 232 854 q 160 813 190 813 z "},"אַ":{"ha":810,"x_min":61,"x_max":754,"o":"m 347 342 q 296 294 313 322 q 274 215 279 265 q 267 130 271 192 q 263 36 264 68 l 261 -3 q 114 -7 189 -7 l 65 -7 q 74 197 67 113 q 113 345 81 286 q 214 442 146 404 q 61 681 124 567 q 238 775 138 728 q 443 457 357 576 q 508 488 488 468 q 533 547 528 507 q 551 747 540 592 q 674 751 614 751 l 753 750 l 740 583 q 692 436 733 490 q 567 351 650 382 l 754 56 q 575 -26 649 0 l 347 342 m 222 -140 l 588 -140 l 579 -235 l 214 -235 l 222 -140 z "},"אָ":{"ha":810,"x_min":61,"x_max":754,"o":"m 347 342 q 296 294 313 322 q 274 215 279 265 q 267 130 271 192 q 263 36 264 68 l 261 -3 q 114 -7 189 -7 l 65 -7 q 74 197 67 113 q 113 345 81 286 q 214 442 146 404 q 61 681 124 567 q 238 775 138 728 q 443 457 357 576 q 508 488 488 468 q 533 547 528 507 q 551 747 540 592 q 674 751 614 751 l 753 750 l 740 583 q 692 436 733 490 q 567 351 650 382 l 754 56 q 575 -26 649 0 l 347 342 m 351 -235 l 214 -235 l 222 -140 l 588 -140 l 579 -235 l 451 -235 l 463 -418 l 340 -418 l 351 -235 z "},"אּ":{"ha":810,"x_min":61,"x_max":754,"o":"m 347 342 q 296 294 313 322 q 274 215 279 265 q 267 130 271 192 q 263 36 264 68 l 261 -3 q 114 -7 189 -7 l 65 -7 q 74 197 67 113 q 113 345 81 286 q 214 442 146 404 q 61 681 124 567 q 238 775 138 728 q 443 457 357 576 q 508 488 488 468 q 533 547 528 507 q 551 747 540 592 q 674 751 614 751 l 753 750 l 740 583 q 692 436 733 490 q 567 351 650 382 l 754 56 q 575 -26 649 0 l 347 342 m 436 581 q 384 601 406 581 q 363 651 363 622 q 384 704 363 683 q 436 725 406 725 q 488 703 467 725 q 508 651 508 682 q 488 601 508 622 q 436 581 467 581 z "},"בּ":{"ha":744,"x_min":46,"x_max":724,"o":"m 46 174 l 422 174 l 422 485 q 401 548 422 525 q 342 571 379 571 l 79 571 l 79 744 l 379 744 q 551 682 489 744 q 613 508 613 619 l 613 174 l 724 174 l 704 0 l 46 0 l 46 174 m 236 300 q 184 321 206 300 q 163 371 163 342 q 184 424 163 403 q 236 444 206 444 q 288 423 267 444 q 308 371 308 401 q 288 321 308 342 q 236 300 267 300 z "},"גּ":{"ha":565,"x_min":29,"x_max":511,"o":"m 29 -29 q 38 154 32 65 q 301 279 189 217 l 271 571 l 100 571 l 100 744 l 438 744 l 511 31 q 344 -22 426 -4 l 329 110 q 44 -29 217 47 l 29 -29 m 150 315 q 98 336 119 315 q 76 386 76 357 q 98 439 76 418 q 150 460 119 460 q 201 438 181 460 q 222 386 222 417 q 201 336 222 357 q 150 315 181 315 z "},"דּ":{"ha":731,"x_min":28,"x_max":689,"o":"m 364 571 l 28 571 l 28 744 l 689 744 l 669 571 l 554 571 l 554 6 l 364 -7 l 364 571 m 199 286 q 147 307 168 286 q 125 357 125 328 q 147 410 125 389 q 199 431 168 431 q 250 409 229 431 q 271 357 271 388 q 250 307 271 328 q 199 286 229 286 z "},"הּ":{"ha":814,"x_min":81,"x_max":733,"o":"m 543 485 q 522 548 543 525 q 463 571 500 571 l 81 571 l 81 744 l 500 744 q 672 682 610 744 q 733 508 733 619 l 733 6 l 543 -7 l 543 485 m 88 374 q 281 386 215 385 l 281 6 l 88 -7 l 88 374 m 407 356 q 355 376 376 356 q 333 426 333 397 q 355 479 333 458 q 407 500 376 500 q 458 478 438 500 q 479 426 479 457 q 458 376 479 397 q 407 356 438 356 z "},"וּ":{"ha":463,"x_min":-28,"x_max":368,"o":"m 178 571 l 42 571 l 42 744 l 368 744 l 368 6 l 178 -7 l 178 571 m 46 286 q -6 307 15 286 q -28 357 -28 328 q -6 410 -28 389 q 46 431 15 431 q 97 409 76 431 q 118 357 118 388 q 97 307 118 328 q 46 286 76 286 z "},"זּ":{"ha":556,"x_min":-26,"x_max":511,"o":"m 174 560 q 25 589 90 569 l 49 758 q 268 731 163 731 q 488 758 374 731 l 511 589 q 364 560 449 569 l 364 0 l 174 0 l 174 560 m 47 286 q -5 307 17 286 q -26 357 -26 328 q -5 410 -26 389 q 47 431 17 431 q 99 409 78 431 q 119 357 119 388 q 99 307 119 328 q 47 286 78 286 z "},"טּ":{"ha":821,"x_min":83,"x_max":768,"o":"m 206 -8 q 118 -6 174 -8 l 83 649 l 83 733 l 265 746 l 299 175 q 444 210 381 175 q 544 310 508 246 q 581 457 581 374 q 482 582 581 582 q 399 564 450 582 l 354 713 q 435 747 389 733 q 529 760 482 760 q 704 687 640 760 q 768 483 768 614 q 701 230 768 347 q 521 56 633 113 q 380 8 461 25 q 206 -8 299 -8 m 415 328 q 363 349 385 328 q 342 399 342 369 q 363 451 342 431 q 415 472 385 472 q 467 451 446 472 q 488 399 488 429 q 467 349 488 369 q 415 328 446 328 z "},"יּ":{"ha":453,"x_min":-28,"x_max":369,"o":"m 176 571 l 33 571 l 33 744 l 369 744 l 369 279 l 176 267 l 176 571 m 46 346 q -6 367 15 346 q -28 417 -28 388 q -6 469 -28 449 q 46 490 15 490 q 97 469 76 490 q 118 417 118 447 q 97 367 118 388 q 46 346 76 346 z "},"ךּ":{"ha":653,"x_min":36,"x_max":572,"o":"m 382 482 q 360 547 382 524 q 299 571 338 571 l 36 571 l 36 744 l 339 744 q 510 682 449 744 q 572 508 572 619 l 572 -167 l 382 -179 l 382 482 m 193 286 q 141 307 163 286 q 119 357 119 328 q 141 410 119 389 q 193 431 163 431 q 244 409 224 431 q 265 357 265 388 q 244 307 265 328 q 193 286 224 286 z "},"כּ":{"ha":700,"x_min":51,"x_max":642,"o":"m 64 174 l 253 174 q 403 224 357 174 q 450 388 450 275 q 414 526 450 481 q 304 571 378 571 l 79 571 l 79 744 l 308 744 q 560 659 479 744 q 642 394 642 574 q 543 94 642 188 q 225 0 444 0 l 51 0 l 64 174 m 225 300 q 173 321 194 300 q 151 371 151 342 q 173 424 151 403 q 225 444 194 444 q 276 423 256 444 q 297 371 297 401 q 276 321 297 342 q 225 300 256 300 z "},"לּ":{"ha":657,"x_min":43,"x_max":588,"o":"m 214 -42 q 107 114 164 22 q 211 211 153 158 q 323 319 288 282 q 378 393 358 356 q 397 475 397 431 l 397 571 l 43 571 l 43 939 l 233 939 l 233 744 l 588 744 l 588 503 q 551 324 588 401 q 453 182 515 247 q 265 4 392 117 l 214 -42 m 225 358 q 173 379 194 358 q 151 429 151 400 q 173 482 151 461 q 225 503 194 503 q 276 481 256 503 q 297 429 297 460 q 276 379 297 400 q 225 358 256 358 z "},"מּ":{"ha":879,"x_min":58,"x_max":799,"o":"m 196 569 l 58 599 l 94 765 l 206 744 l 521 744 q 726 672 653 744 q 799 469 799 600 l 799 0 l 421 0 l 421 174 l 608 174 l 608 453 q 577 542 608 510 q 490 574 546 574 l 390 574 l 269 -4 l 71 -4 l 196 569 m 479 300 q 427 321 449 300 q 406 371 406 342 q 427 424 406 403 q 479 444 449 444 q 531 423 510 444 q 551 371 551 401 q 531 321 551 342 q 479 300 510 300 z "},"נּ":{"ha":540,"x_min":44,"x_max":450,"o":"m 49 174 l 260 174 l 260 571 l 100 571 l 100 744 l 450 744 l 450 0 l 49 0 l 49 174 m 118 300 q 66 321 88 300 q 44 371 44 342 q 66 424 44 403 q 118 444 88 444 q 169 423 149 444 q 190 371 190 401 q 169 321 190 342 q 118 300 149 300 z "},"סּ":{"ha":856,"x_min":35,"x_max":803,"o":"m 203 -11 q 151 -10 169 -11 l 133 571 l 35 571 l 35 744 l 550 744 q 737 678 671 744 q 803 488 803 613 q 757 284 803 379 q 628 119 711 189 q 203 -11 464 -11 m 331 175 q 532 267 454 186 q 610 468 610 347 q 583 547 610 524 q 507 571 557 571 l 315 571 l 331 175 m 453 328 q 401 349 422 328 q 379 399 379 369 q 401 451 379 431 q 453 472 422 472 q 504 451 483 472 q 525 399 525 429 q 504 349 525 369 q 453 328 483 328 z "},"ףּ":{"ha":758,"x_min":49,"x_max":678,"o":"m 488 482 q 465 547 488 524 q 404 571 443 571 l 289 571 l 246 414 l 357 357 l 282 196 l 49 311 l 49 365 l 147 744 q 296 746 196 746 q 444 744 396 746 q 616 681 554 743 q 678 508 678 619 l 678 -167 l 488 -179 l 488 482 m 379 393 q 327 414 349 393 q 306 464 306 435 q 327 517 306 496 q 379 538 349 538 q 431 516 410 538 q 451 464 451 494 q 431 414 451 435 q 379 393 410 393 z "},"פּ":{"ha":783,"x_min":44,"x_max":711,"o":"m 44 169 l 532 169 q 514 481 529 332 q 483 551 508 526 q 414 575 457 575 l 300 575 l 274 465 l 344 429 q 281 269 319 354 l 79 374 l 79 415 l 156 744 q 299 746 203 746 q 440 744 393 746 q 617 685 554 742 q 692 517 679 629 q 706 315 700 442 q 711 65 711 189 l 711 0 l 44 0 l 44 169 m 411 222 q 359 243 381 222 q 338 293 338 264 q 359 346 338 325 q 411 367 381 367 q 463 345 442 367 q 483 293 483 324 q 463 243 483 264 q 411 222 442 222 z "},"צּ":{"ha":715,"x_min":25,"x_max":660,"o":"m 57 178 l 154 178 l 397 163 l 396 176 l 249 335 q 25 682 132 486 q 206 765 97 726 q 394 457 282 625 q 433 485 421 468 q 450 531 446 503 q 461 622 456 560 q 469 742 467 685 q 660 747 554 747 q 649 579 658 696 q 603 438 639 492 q 476 350 568 383 l 621 161 l 621 0 l 57 0 l 57 178 m 124 226 q 72 247 93 226 q 50 297 50 268 q 72 350 50 329 q 124 371 93 371 q 175 349 154 371 q 196 297 196 328 q 175 247 196 268 q 124 226 154 226 z "},"קּ":{"ha":819,"x_min":83,"x_max":747,"o":"m 494 -31 q 374 119 431 40 l 403 156 q 526 326 496 275 q 557 428 557 376 l 557 571 l 83 571 l 83 744 l 747 744 l 747 471 q 726 314 747 381 q 666 191 704 247 q 547 35 628 135 q 524 6 538 22 q 494 -31 511 -10 m 90 390 q 283 403 218 401 l 283 -167 l 90 -179 l 90 390 m 421 360 q 369 381 390 360 q 347 431 347 401 q 369 483 347 463 q 421 504 390 504 q 472 483 451 504 q 493 431 493 461 q 472 381 493 401 q 421 360 451 360 z "},"רּ":{"ha":650,"x_min":35,"x_max":569,"o":"m 379 482 q 357 547 379 522 q 296 571 335 571 l 35 571 l 35 744 l 336 744 q 508 682 446 744 q 569 508 569 619 l 569 6 l 379 -7 l 379 482 m 186 286 q 134 307 156 286 q 113 357 113 328 q 134 410 113 389 q 186 431 156 431 q 238 409 217 431 q 258 357 258 388 q 238 307 258 328 q 186 286 217 286 z "},"שּ":{"ha":1024,"x_min":81,"x_max":961,"o":"m 222 -21 q 128 -19 161 -21 l 81 649 l 81 733 l 264 749 l 289 425 q 383 465 354 442 q 423 537 413 488 q 433 690 433 586 l 433 733 l 619 749 q 594 497 622 589 q 496 359 565 406 q 299 296 426 313 l 308 156 q 562 190 467 154 q 708 322 657 226 q 765 594 758 417 q 768 679 768 664 l 767 733 l 958 749 q 961 640 961 711 q 887 256 961 400 q 651 45 813 111 q 222 -21 490 -21 m 553 218 q 501 239 522 218 q 479 289 479 260 q 501 342 479 321 q 553 363 522 363 q 604 341 583 363 q 625 289 625 319 q 604 239 625 260 q 553 218 583 218 z "},"תּ":{"ha":911,"x_min":28,"x_max":831,"o":"m 168 -15 q 28 -1 96 -15 q 72 161 42 71 q 128 157 104 157 q 206 240 206 157 l 206 571 l 51 571 l 51 744 l 597 744 q 769 682 707 744 q 831 508 831 619 l 831 6 l 640 -7 l 640 482 q 618 547 640 522 q 557 571 596 571 l 396 571 l 396 208 q 342 38 396 90 q 168 -15 288 -15 m 518 286 q 466 307 488 286 q 444 357 444 328 q 466 410 444 389 q 518 431 488 431 q 569 409 549 431 q 590 357 590 388 q 569 307 590 328 q 518 286 549 286 z "},"וֹ":{"ha":463,"x_min":42,"x_max":368,"o":"m 178 571 l 42 571 l 42 744 l 368 744 l 368 6 l 178 -7 l 178 571 m 219 813 q 167 833 189 813 q 146 883 146 854 q 167 936 146 915 q 219 957 189 957 q 271 935 250 957 q 292 883 292 914 q 271 833 292 854 q 219 813 250 813 z "},"⁄":{"ha":846,"x_min":63,"x_max":783,"o":"m 63 -1 l 689 932 l 783 921 l 156 -14 l 63 -1 z "},"½":{"ha":1269,"x_min":126,"x_max":1144,"o":"m 264 -1 l 890 932 l 985 921 l 357 -14 l 264 -1 m 133 503 l 215 503 l 215 783 l 139 821 l 139 858 l 263 928 l 319 928 l 319 503 l 406 503 l 399 408 l 126 408 l 133 503 m 822 81 q 990 269 946 213 q 1033 365 1033 325 q 1017 406 1033 392 q 975 421 1001 421 q 885 364 929 421 l 807 424 q 988 525 876 525 q 1100 487 1056 525 q 1144 382 1144 449 q 1103 258 1144 321 q 965 100 1061 196 l 1144 100 l 1135 0 l 822 0 l 822 81 z "},"⅓":{"ha":1236,"x_min":125,"x_max":1111,"o":"m 263 -1 l 889 932 l 983 921 l 356 -14 l 263 -1 m 132 503 l 214 503 l 214 783 l 138 821 l 138 858 l 261 928 l 318 928 l 318 503 l 404 503 l 397 408 l 125 408 l 132 503 m 854 -11 q 774 -4 819 -11 l 788 92 q 865 85 833 85 q 964 110 928 85 q 1000 179 1000 136 q 985 222 1000 207 q 942 238 969 238 q 900 229 924 238 l 885 303 q 952 342 922 315 q 982 396 982 368 q 969 423 982 413 q 935 433 957 433 q 890 422 914 433 q 847 388 867 410 l 782 458 q 857 508 815 490 q 944 526 899 526 q 1048 493 1008 526 q 1088 410 1088 460 q 1038 307 1088 353 q 1092 258 1074 289 q 1111 185 1111 226 q 1079 85 1111 129 q 988 15 1047 40 q 854 -11 929 -11 z "},"¼":{"ha":1236,"x_min":128,"x_max":1111,"o":"m 265 -1 l 892 932 l 986 921 l 358 -14 l 265 -1 m 135 503 l 217 503 l 217 783 l 140 821 l 140 858 l 264 928 l 321 928 l 321 503 l 407 503 l 400 408 l 128 408 l 135 503 m 949 119 l 725 119 l 717 199 l 949 518 l 1050 518 l 1050 206 l 1111 206 l 1101 119 l 1050 119 l 1050 0 l 949 0 l 949 119 m 949 206 l 949 383 l 829 206 l 949 206 z "},"¾":{"ha":1261,"x_min":126,"x_max":1136,"o":"m 207 399 q 126 406 172 399 l 140 501 q 218 494 186 494 q 317 520 281 494 q 353 589 353 546 q 338 632 353 617 q 294 647 322 647 q 253 639 276 647 l 238 713 q 305 751 275 725 q 335 806 335 778 q 322 833 335 822 q 288 843 310 843 q 243 831 267 843 q 200 797 219 819 l 135 868 q 210 918 168 900 q 297 936 251 936 q 401 903 361 936 q 440 819 440 869 q 390 717 440 763 q 445 667 426 699 q 464 594 464 636 q 432 494 464 539 q 341 424 400 450 q 207 399 282 399 m 290 -1 l 917 932 l 1011 921 l 383 -14 l 290 -1 m 974 119 l 750 119 l 742 199 l 974 518 l 1075 518 l 1075 206 l 1136 206 l 1126 119 l 1075 119 l 1075 0 l 974 0 l 974 119 m 974 206 l 974 383 l 854 206 l 974 206 z "},"¹":{"ha":531,"x_min":126,"x_max":406,"o":"m 133 589 l 215 589 l 215 869 l 139 907 l 139 944 l 263 1014 l 319 1014 l 319 589 l 406 589 l 399 494 l 126 494 l 133 589 z "},"²":{"ha":560,"x_min":111,"x_max":449,"o":"m 126 575 q 294 763 250 707 q 338 860 338 819 q 322 901 338 886 q 279 915 306 915 q 189 858 233 915 l 111 918 q 292 1019 181 1019 q 404 981 360 1019 q 449 876 449 943 q 407 753 449 815 q 269 594 365 690 l 449 594 l 439 494 l 126 494 l 126 575 z "},"³":{"ha":538,"x_min":89,"x_max":426,"o":"m 169 482 q 89 489 135 482 l 103 585 q 181 578 149 578 q 279 603 243 578 q 315 672 315 629 q 300 715 315 700 q 257 731 285 731 q 215 722 239 731 l 200 796 q 267 835 238 808 q 297 889 297 861 q 285 916 297 906 q 250 926 272 926 q 206 915 229 926 q 163 881 182 903 l 97 951 q 172 1001 131 983 q 260 1019 214 1019 q 363 986 324 1019 q 403 903 403 953 q 353 800 403 846 q 408 751 389 782 q 426 678 426 719 q 394 578 426 622 q 303 508 363 533 q 169 482 244 482 z "},"*":{"ha":792,"x_min":86,"x_max":706,"o":"m 361 529 l 203 381 l 94 519 l 267 646 l 86 750 l 182 900 l 350 776 l 390 985 l 558 938 l 490 735 l 697 761 l 706 582 l 501 583 l 583 389 l 419 325 l 361 529 z "},"\\":{"ha":678,"x_min":-3,"x_max":679,"o":"m -3 938 l 183 938 l 679 0 l 494 0 l -3 938 z "},"·":{"ha":425,"x_min":76,"x_max":346,"o":"m 211 258 q 116 298 156 258 q 76 393 76 338 q 116 488 76 449 q 211 526 156 526 q 306 488 267 526 q 346 393 346 449 q 306 298 346 338 q 211 258 267 258 z "},"•":{"ha":643,"x_min":135,"x_max":506,"o":"m 321 201 q 228 226 271 201 q 160 294 185 251 q 135 388 135 338 q 160 480 135 438 q 228 547 185 522 q 321 572 271 572 q 413 547 369 572 q 481 479 456 522 q 506 388 506 436 q 481 294 506 338 q 413 226 456 251 q 321 201 371 201 z "},":":{"ha":536,"x_min":125,"x_max":411,"o":"m 268 471 q 167 513 208 471 q 125 614 125 556 q 167 714 125 672 q 268 756 208 756 q 369 714 326 756 q 411 614 411 672 q 369 513 411 556 q 268 471 326 471 m 268 -33 q 167 9 208 -33 q 125 110 125 51 q 167 210 125 168 q 268 251 208 251 q 369 210 326 251 q 411 110 411 168 q 369 9 411 51 q 268 -33 326 -33 z "},",":{"ha":481,"x_min":83,"x_max":369,"o":"m 83 -151 q 168 -14 146 -72 l 88 107 q 105 170 88 139 q 154 221 122 201 q 226 240 186 240 q 328 198 286 240 q 369 90 369 156 q 308 -83 369 14 q 117 -272 247 -181 l 83 -151 z "},"…":{"ha":1244,"x_min":67,"x_max":1175,"o":"m 197 -21 q 106 18 144 -21 q 67 110 67 57 q 106 203 67 164 q 197 242 144 242 q 290 203 251 242 q 328 110 328 164 q 290 18 328 57 q 197 -21 251 -21 m 621 -21 q 529 18 568 -21 q 490 110 490 57 q 529 203 490 164 q 621 242 568 242 q 713 203 675 242 q 751 110 751 164 q 713 18 751 57 q 621 -21 675 -21 m 1044 -21 q 953 18 992 -21 q 914 110 914 57 q 953 203 914 164 q 1044 242 992 242 q 1137 203 1099 242 q 1175 110 1175 164 q 1137 18 1175 57 q 1044 -21 1099 -21 z "},"!":{"ha":543,"x_min":139,"x_max":406,"o":"m 139 994 l 404 1022 l 353 326 l 189 326 l 139 994 m 276 -35 q 185 3 224 -35 q 147 94 147 42 q 185 186 147 147 q 276 225 224 225 q 367 186 329 225 q 406 94 406 147 q 367 3 406 42 q 276 -35 329 -35 z "},"¡":{"ha":544,"x_min":139,"x_max":406,"o":"m 268 506 q 177 544 215 506 q 139 636 139 583 q 177 727 139 689 q 268 765 215 765 q 359 727 321 765 q 397 636 397 689 q 359 544 397 583 q 268 506 321 506 m 192 404 l 356 404 l 406 -264 l 140 -292 l 192 404 z "},"#":{"ha":963,"x_min":106,"x_max":856,"o":"m 243 172 l 106 172 l 106 297 l 265 297 l 292 453 l 106 453 l 106 576 l 315 576 l 344 740 l 472 750 l 442 576 l 592 576 l 621 740 l 749 750 l 719 576 l 856 576 l 856 453 l 696 453 l 669 297 l 856 297 l 856 172 l 646 172 l 617 0 l 488 -10 l 519 172 l 369 172 l 339 0 l 211 -10 l 243 172 m 542 297 l 568 453 l 418 453 l 393 297 l 542 297 z "},".":{"ha":467,"x_min":90,"x_max":376,"o":"m 233 -47 q 133 -5 175 -47 q 90 96 90 38 q 133 198 90 156 q 233 240 175 240 q 335 198 293 240 q 376 96 376 156 q 335 -5 376 38 q 233 -47 293 -47 z "},"?":{"ha":710,"x_min":35,"x_max":628,"o":"m 232 321 q 221 422 221 388 q 236 509 221 476 q 286 579 251 542 q 350 640 300 593 q 419 713 399 685 q 440 776 440 740 q 416 837 440 814 q 350 860 392 860 q 269 831 306 860 q 221 743 232 803 q 35 793 126 763 q 148 956 61 892 q 357 1021 235 1021 q 553 958 478 1021 q 628 790 628 896 q 593 662 628 717 q 490 538 558 607 l 456 503 q 391 432 406 451 q 375 386 376 413 l 372 333 l 232 321 m 301 -35 q 210 4 249 -35 q 171 97 171 43 q 209 189 171 150 q 301 228 247 228 q 394 189 356 228 q 432 96 432 150 q 394 4 432 43 q 301 -35 356 -35 z "},"¿":{"ha":718,"x_min":83,"x_max":676,"o":"m 410 496 q 317 535 356 496 q 279 628 279 574 q 317 719 279 681 q 410 758 356 758 q 501 719 463 758 q 540 626 540 681 q 502 535 540 574 q 410 496 464 496 m 354 -297 q 158 -235 233 -297 q 83 -67 83 -172 q 118 62 83 7 q 221 186 153 117 l 256 221 q 320 292 306 272 q 336 338 335 311 l 339 390 l 479 403 q 490 301 490 336 q 475 215 490 247 q 425 144 460 182 q 361 83 411 131 q 292 11 313 39 q 271 -53 271 -17 q 295 -113 271 -90 q 361 -136 319 -136 q 442 -108 406 -136 q 490 -19 479 -79 q 676 -69 585 -39 q 563 -233 650 -168 q 354 -297 476 -297 z "},"\"":{"ha":844,"x_min":97,"x_max":747,"o":"m 97 564 q 182 701 160 643 l 101 822 q 119 885 101 854 q 168 936 136 917 q 240 956 200 956 q 342 913 300 956 q 383 806 383 871 q 322 632 383 729 q 131 443 261 535 l 97 564 m 461 564 q 546 701 524 643 l 465 822 q 483 885 465 854 q 532 936 500 917 q 604 956 564 956 q 706 913 664 956 q 747 806 747 871 q 686 632 747 729 q 494 443 625 535 l 461 564 z "},"'":{"ha":481,"x_min":97,"x_max":383,"o":"m 97 564 q 182 701 160 643 l 101 822 q 119 885 101 854 q 168 936 136 917 q 240 956 200 956 q 342 913 300 956 q 383 806 383 871 q 322 632 383 729 q 131 443 261 535 l 97 564 z "},";":{"ha":569,"x_min":125,"x_max":417,"o":"m 274 471 q 172 513 214 471 q 131 614 131 556 q 172 714 131 672 q 274 756 214 756 q 374 714 332 756 q 417 614 417 672 q 374 513 417 556 q 274 471 332 471 m 125 -151 q 210 -14 188 -72 l 129 107 q 147 170 129 139 q 196 221 164 201 q 268 240 228 240 q 369 198 328 240 q 411 90 411 156 q 350 -83 411 14 q 158 -272 289 -181 l 125 -151 z "},"/":{"ha":704,"x_min":28,"x_max":676,"o":"m 28 0 l 519 1014 l 676 1000 l 185 -14 l 28 0 z "},"_":{"ha":813,"x_min":15,"x_max":797,"o":"m 15 0 l 797 0 l 797 -153 l 15 -153 l 15 0 z "},"{":{"ha":525,"x_min":63,"x_max":386,"o":"m 213 -225 l 213 121 q 178 270 213 228 q 63 310 144 313 l 63 493 q 178 533 144 490 q 213 682 213 575 l 213 1028 l 386 1042 l 386 729 q 377 574 386 626 q 337 481 368 521 q 236 401 306 442 q 337 322 306 361 q 377 228 368 282 q 386 74 386 175 l 386 -239 l 213 -225 z "},"}":{"ha":525,"x_min":139,"x_max":463,"o":"m 139 74 q 148 228 139 175 q 188 322 157 282 q 289 401 219 361 q 188 481 219 442 q 148 574 157 521 q 139 729 139 626 l 139 1042 l 313 1028 l 313 682 q 347 533 313 575 q 463 493 381 490 l 463 310 q 347 270 381 313 q 313 121 313 228 l 313 -225 l 139 -239 l 139 74 z "},"[":{"ha":450,"x_min":104,"x_max":401,"o":"m 104 1028 l 401 1028 l 388 883 l 257 883 l 257 -108 l 401 -108 l 388 -253 l 104 -253 l 104 1028 z "},"]":{"ha":450,"x_min":49,"x_max":346,"o":"m 63 -108 l 193 -108 l 193 883 l 49 883 l 63 1028 l 346 1028 l 346 -253 l 49 -253 l 63 -108 z "},"(":{"ha":554,"x_min":104,"x_max":532,"o":"m 497 -256 q 207 21 310 -147 q 104 400 104 189 q 208 782 104 613 q 497 1057 311 951 l 531 990 q 353 723 407 858 q 299 401 299 588 q 353 80 299 215 q 532 -189 408 -56 l 497 -256 z "},")":{"ha":556,"x_min":22,"x_max":450,"o":"m 22 -189 q 201 80 146 -56 q 256 401 256 215 q 201 723 256 588 q 24 990 147 858 l 57 1057 q 347 782 243 951 q 450 400 450 613 q 347 21 450 189 q 57 -256 244 -147 l 22 -189 z "},"—":{"ha":1336,"x_min":106,"x_max":1231,"o":"m 119 497 l 1231 497 l 1217 338 l 106 338 l 119 497 z "},"–":{"ha":967,"x_min":60,"x_max":907,"o":"m 74 497 l 907 497 l 893 338 l 60 338 l 74 497 z "},"-":{"ha":751,"x_min":90,"x_max":660,"o":"m 104 497 l 660 497 l 646 338 l 90 338 l 104 497 z "},"«":{"ha":1013,"x_min":111,"x_max":922,"o":"m 111 385 l 408 747 l 538 651 l 363 385 l 547 113 l 419 24 l 111 385 m 486 385 l 783 747 l 913 651 l 738 385 l 922 113 l 794 24 l 486 385 z "},"»":{"ha":1013,"x_min":90,"x_max":901,"o":"m 90 113 l 275 385 l 100 651 l 229 747 l 526 385 l 218 24 l 90 113 m 465 113 l 650 385 l 475 651 l 604 747 l 901 385 l 593 24 l 465 113 z "},"‹":{"ha":638,"x_min":111,"x_max":547,"o":"m 111 385 l 408 747 l 538 651 l 363 385 l 547 113 l 419 24 l 111 385 z "},"›":{"ha":638,"x_min":90,"x_max":526,"o":"m 90 113 l 275 385 l 100 651 l 229 747 l 526 385 l 218 24 l 90 113 z "},"„":{"ha":789,"x_min":76,"x_max":726,"o":"m 76 -104 q 161 33 139 -25 l 81 154 q 98 217 81 186 q 147 268 115 249 q 219 288 179 288 q 321 245 279 288 q 363 138 363 203 q 301 -36 363 61 q 110 -225 240 -133 l 76 -104 m 440 -104 q 525 33 503 -25 l 444 154 q 462 217 444 186 q 511 268 479 249 q 583 288 543 288 q 685 245 643 288 q 726 138 726 203 q 665 -36 726 61 q 474 -225 604 -133 l 440 -104 z "},"“":{"ha":803,"x_min":76,"x_max":726,"o":"m 219 443 q 118 485 160 443 q 76 593 76 528 q 138 767 76 669 q 329 956 199 864 l 363 835 q 278 697 300 756 l 358 576 q 341 513 358 544 q 292 463 324 482 q 219 443 260 443 m 583 443 q 482 485 524 443 q 440 593 440 528 q 501 767 440 669 q 693 956 563 864 l 726 835 q 642 697 664 756 l 722 576 q 705 513 722 544 q 656 463 688 482 q 583 443 624 443 z "},"”":{"ha":803,"x_min":76,"x_max":726,"o":"m 76 564 q 161 701 139 643 l 81 822 q 98 885 81 854 q 147 936 115 917 q 219 956 179 956 q 321 913 279 956 q 363 806 363 871 q 301 632 363 729 q 110 443 240 535 l 76 564 m 440 564 q 525 701 503 643 l 444 822 q 462 885 444 854 q 511 936 479 917 q 583 956 543 956 q 685 913 643 956 q 726 806 726 871 q 665 632 726 729 q 474 443 604 535 l 440 564 z "},"‘":{"ha":439,"x_min":76,"x_max":363,"o":"m 219 443 q 118 485 160 443 q 76 593 76 528 q 138 767 76 669 q 329 956 199 864 l 363 835 q 278 697 300 756 l 358 576 q 341 513 358 544 q 292 463 324 482 q 219 443 260 443 z "},"’":{"ha":425,"x_min":63,"x_max":349,"o":"m 63 564 q 147 701 125 643 l 67 822 q 84 885 67 854 q 133 936 101 917 q 206 956 165 956 q 307 913 265 956 q 349 806 349 871 q 288 632 349 729 q 96 443 226 535 l 63 564 z "},"‚":{"ha":425,"x_min":63,"x_max":349,"o":"m 63 -104 q 147 33 125 -25 l 67 154 q 84 217 67 186 q 133 268 101 249 q 206 288 165 288 q 307 245 265 288 q 349 138 349 203 q 288 -36 349 61 q 96 -225 226 -133 l 63 -104 z "},"׳":{"ha":425,"x_min":76,"x_max":363,"o":"m 76 564 q 161 701 139 643 l 81 822 q 98 885 81 854 q 147 936 115 917 q 219 956 179 956 q 321 913 279 956 q 363 806 363 871 q 301 632 363 729 q 110 443 240 535 l 76 564 z "},"״":{"ha":789,"x_min":76,"x_max":726,"o":"m 76 564 q 161 701 139 643 l 81 822 q 98 885 81 854 q 147 936 115 917 q 219 956 179 956 q 321 913 279 956 q 363 806 363 871 q 301 632 363 729 q 110 443 240 535 l 76 564 m 440 564 q 525 701 503 643 l 444 822 q 462 885 444 854 q 511 936 479 917 q 583 956 543 956 q 685 913 643 956 q 726 806 726 871 q 665 632 726 729 q 474 443 604 535 l 440 564 z "},"־":{"ha":625,"x_min":76,"x_max":528,"o":"m 76 744 l 528 744 l 528 571 l 76 571 l 76 744 z "},"¢":{"ha":738,"x_min":50,"x_max":618,"o":"m 188 -276 l 256 7 q 103 130 156 44 q 50 340 50 215 q 96 547 50 457 q 225 685 142 636 q 418 735 308 735 l 431 735 l 497 1014 l 618 1000 l 550 718 q 613 696 594 706 l 575 531 q 510 554 554 542 l 414 150 q 449 149 425 149 q 589 174 514 149 l 618 15 q 424 -21 528 -21 q 372 -18 406 -21 l 307 -290 l 188 -276 m 388 560 q 282 489 321 544 q 243 351 243 433 q 301 197 243 251 l 388 560 z "},"¤":{"ha":979,"x_min":76,"x_max":903,"o":"m 485 -24 q 229 56 338 -24 l 168 -6 l 78 64 l 150 136 q 76 385 76 240 q 160 644 76 538 l 88 717 l 157 807 l 242 722 q 485 793 343 793 q 733 718 631 793 l 813 796 l 903 726 l 815 639 q 893 385 893 533 q 822 140 893 243 l 886 76 l 818 -14 l 744 60 q 485 -24 638 -24 m 485 88 q 633 125 568 88 q 735 231 699 163 q 771 385 771 299 q 735 539 771 471 q 633 644 699 607 q 485 682 568 682 q 336 644 401 682 q 235 539 271 607 q 199 385 199 471 q 235 231 199 299 q 336 125 271 163 q 485 88 401 88 z "},"$":{"ha":807,"x_min":90,"x_max":717,"o":"m 203 -122 l 236 -4 q 90 49 150 13 l 107 235 q 282 163 192 182 l 342 379 q 212 439 261 411 q 127 520 163 467 q 92 657 92 574 q 182 867 92 790 q 433 943 272 943 q 497 940 456 943 l 526 1043 l 632 1028 l 601 919 q 683 893 644 908 l 653 710 q 556 751 600 739 l 496 538 q 658 438 599 497 q 717 267 717 379 q 625 57 717 132 q 369 -18 533 -18 l 340 -18 l 307 -137 l 203 -122 m 451 772 l 431 772 q 329 747 365 772 q 293 678 293 721 q 318 619 293 640 q 397 576 343 599 l 451 772 m 388 154 q 480 185 444 158 q 515 254 515 213 q 497 303 515 283 q 440 340 478 324 l 388 154 z "},"€":{"ha":935,"x_min":28,"x_max":858,"o":"m 632 -18 q 320 69 440 -18 q 168 319 200 157 l 28 319 l 42 410 l 157 410 l 157 439 q 158 486 157 471 l 28 486 l 42 576 l 171 576 q 331 842 208 744 q 633 939 454 939 q 847 900 746 939 l 810 722 q 635 761 719 761 q 472 713 539 761 q 378 576 406 664 l 779 576 l 761 486 l 363 486 q 361 457 361 476 q 364 410 361 440 l 746 410 l 726 319 l 386 319 q 487 200 418 242 q 657 158 556 158 q 829 185 746 158 l 858 19 q 632 -18 758 -18 z "},"ƒ":{"ha":794,"x_min":0,"x_max":828,"o":"m 174 -240 q 87 -231 128 -240 q 0 -201 46 -221 l 93 -47 q 175 -71 136 -71 q 228 -54 208 -71 q 253 0 247 -37 l 325 450 l 179 450 l 206 618 l 351 618 l 381 803 q 472 978 400 922 q 654 1033 544 1033 q 741 1024 700 1033 q 828 994 782 1014 l 735 840 q 653 864 692 864 q 575 793 586 864 l 547 618 l 696 618 l 669 450 l 521 450 l 447 -10 q 356 -184 428 -128 q 174 -240 283 -240 z "},"₺":{"ha":722,"x_min":63,"x_max":632,"o":"m 240 328 l 63 228 l 76 336 l 240 429 l 240 522 l 63 422 l 76 532 l 240 624 l 240 847 l 121 847 l 121 1014 l 436 1014 l 436 735 l 632 844 l 618 736 l 436 633 l 435 539 l 632 650 l 618 540 l 435 438 l 435 168 l 604 168 l 604 0 l 240 0 l 240 328 z "},"₽":{"ha":860,"x_min":42,"x_max":804,"o":"m 190 125 l 42 125 l 69 215 l 190 215 l 190 331 l 42 331 l 69 494 l 190 494 l 190 925 q 343 926 231 926 q 497 925 457 926 q 722 849 640 922 q 804 644 804 775 q 763 480 804 551 q 645 369 721 408 q 474 331 569 331 l 383 331 l 383 215 l 601 215 l 574 125 l 383 125 l 383 0 l 190 0 l 190 125 m 465 494 q 572 533 533 494 q 610 639 610 572 q 475 761 610 761 l 383 761 l 383 494 l 465 494 z "},"₪":{"ha":1515,"x_min":104,"x_max":1439,"o":"m 700 -21 q 606 -19 639 -21 l 568 497 q 544 551 567 532 q 485 571 521 571 l 294 571 l 294 0 l 104 0 l 104 743 l 517 743 q 685 690 622 743 q 757 539 749 636 l 767 425 q 861 463 832 440 q 901 535 890 486 q 911 689 911 585 l 911 733 l 1097 749 q 1072 497 1100 589 q 974 359 1043 406 q 776 296 904 313 l 786 156 q 1043 190 949 154 q 1185 321 1138 226 q 1243 594 1233 415 q 1246 676 1246 653 l 1244 733 l 1436 749 q 1439 640 1439 711 q 1365 256 1439 400 q 1129 45 1290 111 q 700 -21 968 -21 z "},"£":{"ha":828,"x_min":42,"x_max":717,"o":"m 164 439 l 42 439 l 42 599 l 164 599 l 164 757 q 242 961 164 889 q 443 1033 319 1033 q 572 1015 504 1033 q 706 963 639 997 l 646 804 q 469 858 544 858 q 388 827 417 858 q 360 732 360 796 l 360 599 l 600 599 l 600 439 l 360 439 l 360 168 l 717 168 l 717 0 l 164 0 l 164 439 z "},"¥":{"ha":850,"x_min":14,"x_max":836,"o":"m 324 213 l 146 213 l 160 303 l 324 303 l 324 379 l 146 379 l 160 469 l 275 469 l 14 925 l 240 925 l 428 560 l 614 925 l 836 925 l 574 469 l 715 469 l 701 379 l 525 379 l 525 303 l 715 303 l 701 213 l 525 213 l 525 0 l 324 0 l 324 213 z "},"Ω":{"ha":1174,"x_min":111,"x_max":1063,"o":"m 122 168 l 275 168 q 153 335 196 239 q 111 547 111 432 q 172 799 111 688 q 341 974 233 911 q 586 1038 449 1038 q 832 974 724 1038 q 1001 799 940 911 q 1063 547 1063 688 q 1020 337 1063 433 q 897 168 978 240 l 1051 168 l 1051 0 l 635 0 l 635 161 q 799 316 743 217 q 856 535 856 415 q 821 702 856 629 q 725 815 786 775 q 585 856 664 856 q 446 816 507 856 q 351 704 385 776 q 317 538 317 632 q 374 317 317 417 q 539 161 431 218 l 539 0 l 122 0 l 122 168 z "},"≈":{"ha":914,"x_min":111,"x_max":803,"o":"m 118 514 q 217 558 172 544 q 306 572 263 572 q 382 564 343 572 q 475 539 421 556 q 558 517 524 525 q 622 510 592 510 q 703 524 661 510 q 803 569 744 538 l 796 461 q 615 404 707 404 q 536 413 575 404 q 443 438 497 421 q 358 461 389 454 q 294 468 326 468 q 213 453 253 468 q 111 404 174 439 l 118 514 m 118 285 q 217 329 172 315 q 306 343 263 343 q 382 335 343 343 q 475 310 421 326 q 558 288 524 296 q 622 281 592 281 q 703 294 661 281 q 803 340 744 308 l 796 232 q 615 175 707 175 q 536 183 575 175 q 443 208 497 192 q 358 232 389 225 q 294 239 326 239 q 213 224 253 239 q 111 175 174 210 l 118 285 z "},"~":{"ha":914,"x_min":111,"x_max":803,"o":"m 118 399 q 217 443 172 429 q 306 457 263 457 q 382 449 343 457 q 475 424 421 440 q 558 402 524 410 q 622 394 592 394 q 703 408 661 394 q 803 454 744 422 l 796 346 q 615 289 707 289 q 536 297 575 289 q 443 322 497 306 q 358 346 389 339 q 294 353 326 353 q 213 338 253 353 q 111 289 174 324 l 118 399 z "},"∙":{"ha":482,"x_min":131,"x_max":351,"o":"m 240 311 q 163 344 196 311 q 131 422 131 378 q 163 499 131 467 q 240 532 196 532 q 319 499 286 532 q 351 422 351 467 q 319 344 351 378 q 240 311 286 311 z "},"÷":{"ha":806,"x_min":63,"x_max":743,"o":"m 400 500 q 317 535 351 500 q 282 619 282 571 q 317 703 282 668 q 400 738 353 738 q 483 703 449 738 q 518 619 518 668 q 483 535 518 571 q 400 500 449 500 m 76 400 l 743 400 l 729 296 l 63 296 l 76 400 m 400 -47 q 317 -12 353 -47 q 282 71 282 24 q 317 155 282 119 q 400 190 351 190 q 483 155 449 190 q 518 71 518 119 q 483 -12 518 22 q 400 -47 449 -47 z "},"∅":{"ha":979,"x_min":76,"x_max":903,"o":"m 485 -24 q 229 56 338 -24 l 168 -6 l 78 64 l 150 136 q 76 385 76 240 q 128 597 76 504 q 272 742 179 690 q 485 793 365 793 q 735 718 629 793 l 813 796 l 903 726 l 815 639 q 893 385 893 533 q 842 172 893 265 q 697 28 790 79 q 485 -24 604 -24 m 650 633 q 485 682 581 682 q 336 644 401 682 q 235 539 271 607 q 199 385 199 471 q 239 224 199 293 l 650 633 m 485 88 q 633 125 568 88 q 735 231 699 163 q 771 385 771 299 q 728 551 771 481 l 314 139 q 485 88 388 88 z "},"=":{"ha":903,"x_min":111,"x_max":792,"o":"m 125 535 l 792 535 l 778 431 l 111 431 l 125 535 m 125 299 l 792 299 l 778 194 l 111 194 l 125 299 z "},">":{"ha":881,"x_min":63,"x_max":818,"o":"m 63 264 l 75 435 l 806 746 l 806 529 l 321 350 l 818 161 l 806 -51 l 63 264 z "},"≥":{"ha":778,"x_min":111,"x_max":667,"o":"m 111 385 l 418 506 l 121 619 l 121 794 l 646 571 l 656 439 l 121 213 l 111 385 m 124 153 l 656 153 l 667 0 l 135 0 l 124 153 z "},"∆":{"ha":1029,"x_min":40,"x_max":988,"o":"m 438 925 l 604 925 l 988 0 l 40 0 l 438 925 m 754 147 l 514 746 l 269 147 l 754 147 z "},"∞":{"ha":1217,"x_min":111,"x_max":1106,"o":"m 358 76 q 178 151 246 76 q 111 344 111 226 q 149 502 111 433 q 253 609 188 571 q 397 647 318 647 q 629 518 538 647 q 731 613 676 579 q 857 647 785 647 q 1038 572 971 647 q 1106 378 1106 497 q 1067 222 1106 290 q 963 115 1029 153 q 818 76 897 76 q 683 112 740 76 q 582 210 626 147 q 482 112 536 147 q 358 76 428 76 m 389 242 q 452 265 424 242 q 511 333 481 289 q 443 447 469 413 q 379 482 417 482 q 315 449 342 482 q 288 363 288 415 q 316 276 288 310 q 389 242 344 242 m 839 242 q 903 276 876 242 q 929 363 929 310 q 901 449 929 415 q 828 482 872 482 q 764 459 793 482 q 703 393 735 436 q 772 278 744 314 q 839 242 800 242 z "},"∫":{"ha":832,"x_min":111,"x_max":721,"o":"m 275 -324 q 198 -314 236 -324 q 111 -285 160 -304 l 179 -131 q 251 -154 218 -154 q 300 -135 282 -154 q 318 -83 318 -117 l 318 804 q 385 971 318 907 q 557 1035 451 1035 q 634 1025 596 1035 q 721 996 672 1015 l 653 842 q 581 865 614 865 q 532 847 550 865 q 514 794 514 828 l 514 -93 q 447 -260 514 -196 q 275 -324 381 -324 z "},"<":{"ha":894,"x_min":63,"x_max":818,"o":"m 63 264 l 75 435 l 806 746 l 806 529 l 321 350 l 818 161 l 806 -51 l 63 264 z "},"≤":{"ha":781,"x_min":114,"x_max":669,"o":"m 125 439 l 135 571 l 660 794 l 660 619 l 363 506 l 669 385 l 660 213 l 125 439 m 125 153 l 657 153 l 646 0 l 114 0 l 125 153 z "},"¬":{"ha":944,"x_min":97,"x_max":778,"o":"m 674 443 l 97 443 l 111 547 l 778 547 l 778 228 l 674 214 l 674 443 z "},"µ":{"ha":846,"x_min":111,"x_max":769,"o":"m 111 -303 l 111 715 l 307 715 l 307 272 q 335 184 307 215 q 410 153 363 153 q 501 183 457 153 q 574 265 544 214 l 574 715 l 769 715 l 769 0 l 574 0 l 574 94 q 481 10 533 40 q 356 -19 429 -19 q 307 -15 329 -19 l 307 -304 l 111 -303 z "},"−":{"ha":903,"x_min":111,"x_max":792,"o":"m 125 400 l 792 400 l 778 296 l 111 296 l 125 400 z "},"×":{"ha":708,"x_min":76,"x_max":632,"o":"m 354 274 l 160 79 l 76 143 l 281 347 l 85 542 l 149 625 l 354 421 l 549 615 l 632 551 l 428 347 l 619 154 l 556 71 l 354 274 z "},"≠":{"ha":903,"x_min":111,"x_max":792,"o":"m 224 -4 l 319 194 l 111 194 l 125 299 l 371 299 l 435 431 l 111 431 l 125 535 l 485 535 l 586 743 l 700 733 l 604 535 l 792 535 l 778 431 l 553 431 l 489 299 l 792 299 l 778 194 l 439 194 l 338 -14 l 224 -4 z "},"∂":{"ha":772,"x_min":56,"x_max":710,"o":"m 388 -22 q 146 65 236 -22 q 56 308 56 151 q 124 527 56 446 q 325 608 192 608 q 508 575 407 608 q 467 706 490 660 q 399 774 444 751 q 271 796 353 796 q 156 788 218 796 l 151 946 q 289 961 219 961 q 612 804 514 961 q 710 417 710 647 q 627 81 710 185 q 388 -22 544 -22 m 372 138 q 518 343 507 138 q 517 418 519 367 q 365 454 425 454 q 247 294 247 454 q 280 176 247 215 q 372 138 313 138 z "},"%":{"ha":1092,"x_min":90,"x_max":1001,"o":"m 186 -1 l 813 932 l 906 921 l 279 -14 l 186 -1 m 285 554 q 187 579 232 554 q 116 647 142 604 q 90 742 90 690 q 116 838 90 794 q 186 906 142 881 q 285 931 231 931 q 382 906 338 931 q 452 838 426 881 q 478 742 478 794 q 452 647 478 690 q 382 579 426 604 q 285 554 338 554 m 285 649 q 347 676 322 649 q 371 742 371 704 q 347 808 371 779 q 285 836 322 836 q 222 808 246 836 q 197 742 197 779 q 222 676 197 704 q 285 649 246 649 m 808 -12 q 712 13 756 -12 q 642 81 668 38 q 617 176 617 124 q 642 272 617 228 q 712 340 668 315 q 808 365 756 365 q 906 340 861 365 q 976 272 950 315 q 1001 176 1001 228 q 946 42 1001 96 q 808 -12 890 -12 m 807 83 q 870 111 846 83 q 894 176 894 139 q 870 242 894 214 q 807 271 846 271 q 745 242 769 271 q 721 176 721 214 q 745 111 721 139 q 807 83 769 83 z "},"‰":{"ha":1564,"x_min":90,"x_max":1474,"o":"m 186 -1 l 813 932 l 906 921 l 279 -14 l 186 -1 m 285 554 q 187 579 232 554 q 116 647 142 604 q 90 742 90 690 q 116 838 90 794 q 186 906 142 881 q 285 931 231 931 q 382 906 338 931 q 452 838 426 881 q 478 742 478 794 q 452 647 478 690 q 382 579 426 604 q 285 554 338 554 m 285 649 q 347 676 322 649 q 371 742 371 704 q 347 808 371 779 q 285 836 322 836 q 222 808 246 836 q 197 742 197 779 q 222 676 197 704 q 285 649 246 649 m 808 -12 q 712 13 756 -12 q 642 81 668 38 q 617 176 617 124 q 642 272 617 228 q 712 340 668 315 q 808 365 756 365 q 906 340 861 365 q 976 272 950 315 q 1001 176 1001 228 q 946 42 1001 96 q 808 -12 890 -12 m 1281 -12 q 1184 13 1228 -12 q 1115 81 1140 38 q 1089 176 1089 124 q 1115 272 1089 228 q 1184 340 1140 315 q 1281 365 1228 365 q 1378 340 1333 365 q 1448 272 1422 315 q 1474 176 1474 228 q 1418 42 1474 96 q 1281 -12 1363 -12 m 807 83 q 870 111 846 83 q 894 176 894 139 q 870 242 894 214 q 807 271 846 271 q 745 242 769 271 q 721 176 721 214 q 745 111 721 139 q 807 83 769 83 m 1279 83 q 1342 111 1318 83 q 1367 176 1367 139 q 1342 242 1367 214 q 1279 271 1318 271 q 1217 242 1242 271 q 1193 176 1193 214 q 1217 111 1193 139 q 1279 83 1242 83 z "},"+":{"ha":806,"x_min":63,"x_max":743,"o":"m 353 296 l 63 296 l 76 400 l 353 400 l 353 675 l 457 689 l 457 400 l 743 400 l 729 296 l 457 296 l 457 22 l 353 8 l 353 296 z "},"±":{"ha":875,"x_min":111,"x_max":764,"o":"m 388 421 l 111 421 l 125 525 l 388 525 l 388 731 l 492 744 l 492 525 l 764 525 l 750 421 l 492 421 l 492 217 l 388 203 l 388 421 m 125 104 l 764 104 l 750 0 l 111 0 l 125 104 z "},"∏":{"ha":1211,"x_min":139,"x_max":1072,"o":"m 249 756 l 139 756 l 139 925 l 1072 925 l 1072 756 l 963 756 l 963 -303 l 763 -303 l 763 756 l 449 756 l 449 -303 l 249 -303 l 249 756 z "},"√":{"ha":931,"x_min":51,"x_max":1514,"o":"m 51 363 l 236 419 l 400 -46 l 817 1339 l 1514 1339 l 1476 1157 l 956 1157 l 478 -319 l 315 -319 l 51 363 z "},"∑":{"ha":894,"x_min":69,"x_max":825,"o":"m 69 -137 l 446 347 l 69 851 l 69 1014 l 825 1014 l 811 844 l 325 844 l 697 357 l 317 -135 l 824 -135 l 810 -303 l 69 -303 l 69 -137 z "},"◊":{"ha":935,"x_min":90,"x_max":844,"o":"m 90 508 l 407 1014 l 526 1014 l 844 508 l 526 0 l 407 0 l 90 508 m 618 508 l 467 832 l 317 508 l 467 168 l 618 508 z "},"|":{"ha":681,"x_min":278,"x_max":403,"o":"m 278 1007 l 403 1021 l 403 -296 l 278 -310 l 278 1007 z "},"¦":{"ha":681,"x_min":278,"x_max":403,"o":"m 278 1007 l 403 1021 l 403 560 l 278 546 l 278 1007 m 278 151 l 403 165 l 403 -296 l 278 -310 l 278 151 z "},"@":{"ha":1143,"x_min":83,"x_max":1060,"o":"m 553 -96 q 308 -37 414 -96 q 142 125 201 21 q 83 364 83 229 q 153 633 83 511 q 344 826 222 756 q 617 896 467 896 q 847 843 746 896 q 1003 694 947 790 q 1060 474 1060 599 q 993 261 1060 339 q 803 174 926 183 q 728 171 761 171 q 632 174 682 171 l 640 232 l 635 232 q 570 182 608 200 q 490 164 532 164 q 382 218 417 164 q 347 353 347 272 q 363 457 347 407 q 408 546 379 507 q 608 639 481 639 q 778 610 678 639 l 738 265 q 814 268 772 264 q 917 324 883 276 q 951 463 951 371 q 909 643 951 567 q 790 760 867 719 q 611 800 713 800 q 394 744 490 800 q 245 592 299 689 q 192 374 192 494 q 238 178 192 263 q 369 48 283 94 q 572 1 456 1 q 788 43 685 1 l 775 -65 q 669 -87 732 -79 q 553 -96 607 -96 m 524 263 q 584 285 554 263 q 638 347 614 307 l 660 531 q 596 543 632 543 q 495 489 529 543 q 461 361 461 435 q 477 288 461 313 q 524 263 493 263 z "},"&":{"ha":950,"x_min":63,"x_max":915,"o":"m 657 83 q 520 7 600 35 q 356 -21 440 -21 q 142 45 222 -21 q 63 224 63 111 q 113 383 63 317 q 246 506 164 449 q 175 615 194 567 q 156 713 156 663 q 228 885 156 822 q 408 947 300 947 q 569 893 510 947 q 628 747 628 839 q 590 614 628 674 q 485 497 551 554 l 638 342 q 664 515 658 413 l 842 538 q 769 210 843 349 l 915 56 l 765 -31 l 657 83 m 383 608 q 461 736 461 672 q 443 783 461 767 q 399 800 425 800 q 347 780 369 800 q 325 722 325 760 q 338 674 325 700 q 383 608 350 649 m 381 138 q 470 154 426 138 q 544 199 514 171 l 519 222 q 349 393 349 393 q 269 319 293 356 q 244 244 244 283 q 284 164 244 190 q 381 138 324 138 z "},"¶":{"ha":872,"x_min":63,"x_max":789,"o":"m 290 519 q 176 560 228 525 q 93 649 124 594 q 63 765 63 703 q 96 890 63 832 q 187 981 129 947 q 313 1014 244 1014 l 789 1014 l 789 868 l 708 868 l 708 -172 l 558 -172 l 558 868 l 439 868 l 439 -172 l 290 -172 l 290 519 z "},"©":{"ha":1117,"x_min":63,"x_max":1054,"o":"m 558 -36 q 301 26 414 -36 q 125 202 188 89 q 63 460 63 315 q 125 717 63 604 q 301 893 188 831 q 558 956 414 956 q 816 893 703 956 q 992 717 929 831 q 1054 460 1054 604 q 992 202 1054 315 q 816 26 929 89 q 558 -36 703 -36 m 558 61 q 758 112 671 61 q 893 253 844 163 q 942 460 942 343 q 893 667 942 576 q 758 808 844 757 q 558 858 671 858 q 359 808 446 858 q 224 667 272 757 q 175 460 175 576 q 224 253 175 343 q 359 112 272 163 q 558 61 446 61 m 576 189 q 376 257 447 189 q 304 450 304 325 q 378 657 304 579 q 576 735 453 735 q 704 711 644 735 l 682 610 q 578 633 628 633 q 463 586 506 633 q 421 460 421 539 q 465 334 421 379 q 590 289 510 289 q 689 304 636 289 l 706 210 q 576 189 647 189 z "},"®":{"ha":1117,"x_min":63,"x_max":1054,"o":"m 558 -36 q 301 26 414 -36 q 125 202 188 89 q 63 460 63 315 q 125 717 63 604 q 301 893 188 831 q 558 956 414 956 q 816 893 703 956 q 992 717 929 831 q 1054 460 1054 604 q 992 202 1054 315 q 816 26 929 89 q 558 -36 703 -36 m 558 61 q 758 112 671 61 q 893 253 844 163 q 942 460 942 343 q 893 667 942 576 q 758 808 844 757 q 558 858 671 858 q 359 808 446 858 q 224 667 272 757 q 175 460 175 576 q 224 253 175 343 q 359 112 272 163 q 558 61 446 61 m 392 729 q 479 731 415 731 q 569 729 546 731 q 703 686 658 726 q 749 575 749 646 q 720 478 749 519 q 638 424 692 436 q 672 390 658 410 q 719 313 685 371 l 769 226 l 783 201 l 651 201 l 563 368 q 538 401 549 394 q 501 407 526 407 l 501 201 l 392 201 l 392 729 m 551 496 q 615 516 592 496 q 638 571 638 536 q 557 636 638 636 l 501 636 l 501 496 l 551 496 z "},"§":{"ha":810,"x_min":90,"x_max":719,"o":"m 367 -322 q 138 -276 261 -322 l 163 -99 q 256 -141 204 -125 q 351 -157 307 -157 q 426 -139 399 -157 q 454 -87 454 -121 q 422 -14 454 -49 q 321 75 390 21 q 203 176 250 131 q 124 285 157 222 q 90 425 90 347 q 117 540 90 489 q 201 639 143 592 q 157 719 171 682 q 143 800 143 757 q 228 976 143 913 q 446 1039 313 1039 q 674 994 554 1039 l 649 817 q 556 858 607 843 q 460 874 504 874 q 385 856 413 874 q 357 804 357 838 q 388 733 357 767 q 489 643 419 699 q 606 542 560 588 q 686 433 653 496 q 719 293 719 371 q 693 176 719 228 q 608 76 667 124 q 653 -3 639 35 q 668 -85 668 -42 q 584 -258 668 -194 q 367 -322 500 -322 m 489 188 q 517 267 517 222 q 484 363 517 321 q 379 469 451 406 q 319 524 340 503 q 292 443 292 492 q 324 349 292 390 q 429 243 357 308 q 489 188 426 246 z "},"™":{"ha":939,"x_min":76,"x_max":835,"o":"m 175 647 l 76 647 l 76 715 l 353 715 l 353 647 l 254 647 l 254 354 l 175 354 l 175 647 m 485 610 l 463 354 l 392 354 l 424 715 l 522 715 l 614 456 l 703 715 l 801 715 l 835 354 l 764 354 l 739 608 l 643 350 l 581 346 l 485 610 z "},"°":{"ha":569,"x_min":111,"x_max":458,"o":"m 285 689 q 160 738 208 689 q 111 863 111 786 q 160 988 111 940 q 285 1036 208 1036 q 410 988 363 1036 q 458 863 458 940 q 410 738 458 786 q 285 689 363 689 m 285 776 q 344 800 321 776 q 368 863 368 824 q 344 926 368 901 q 285 950 321 950 q 225 926 249 950 q 201 863 201 901 q 225 800 201 824 q 285 776 249 776 z "},"℮":{"ha":824,"x_min":76,"x_max":747,"o":"m 449 -21 q 176 79 275 -21 q 76 357 76 179 q 119 558 76 472 q 241 689 163 643 q 425 735 319 735 q 664 635 581 735 q 747 346 747 535 q 746 299 747 314 l 310 299 l 310 214 q 472 149 360 149 q 579 162 524 149 q 676 197 635 175 l 708 40 q 585 -5 653 11 q 449 -21 518 -21 m 524 446 l 524 542 q 418 583 486 583 q 310 539 347 583 l 310 446 l 524 446 z "},"ℓ":{"ha":797,"x_min":54,"x_max":735,"o":"m 208 322 q 54 268 153 299 l 88 479 q 242 529 169 500 l 272 690 q 383 950 306 865 q 567 1035 460 1035 q 690 990 646 1035 q 735 864 735 946 q 643 621 735 743 q 411 414 551 499 l 371 168 l 535 168 l 508 0 l 157 0 l 208 322 m 440 628 q 533 726 496 665 q 571 829 571 788 q 564 856 571 846 q 544 865 557 865 q 517 853 532 865 q 490 817 501 840 q 440 628 467 769 z "},"^":{"ha":936,"x_min":76,"x_max":860,"o":"m 386 946 l 565 946 l 860 394 l 650 394 l 474 804 l 282 394 l 76 394 l 386 946 z "},"†":{"ha":833,"x_min":76,"x_max":757,"o":"m 347 603 l 76 603 l 90 715 l 347 715 l 347 1003 l 472 1017 l 472 715 l 757 715 l 743 603 l 472 603 l 472 -300 l 347 -314 l 347 603 z "},"‡":{"ha":847,"x_min":76,"x_max":771,"o":"m 361 -12 l 76 -12 l 90 100 l 361 100 l 361 603 l 90 603 l 104 715 l 361 715 l 361 1003 l 486 1017 l 486 715 l 771 715 l 757 603 l 486 603 l 486 100 l 757 100 l 743 -12 l 486 -12 l 486 -300 l 361 -314 l 361 -12 z "},"̈":{"ha":0,"x_min":-543,"x_max":-1,"o":"m -435 814 q -511 846 -479 814 q -543 924 -543 878 q -510 1001 -543 969 q -431 1033 -476 1033 q -354 1001 -386 1033 q -322 924 -322 969 q -356 847 -322 879 q -435 814 -390 814 m -114 814 q -190 846 -158 814 q -222 924 -222 878 q -188 1001 -222 968 q -110 1033 -154 1033 q -33 1001 -65 1033 q -1 924 -1 969 q -33 846 -1 878 q -114 814 -65 814 z "},"̇":{"ha":0,"x_min":-236,"x_max":-22,"o":"m -131 819 q -205 851 -174 819 q -236 925 -236 882 q -203 999 -236 968 q -128 1031 -171 1031 q -53 999 -85 1031 q -22 925 -22 968 q -55 851 -22 882 q -131 819 -87 819 z "},"̀":{"ha":0,"x_min":-236,"x_max":11,"o":"m -135 806 q -207 835 -178 806 q -236 911 -236 865 q -171 1039 -236 982 q -14 1121 -106 1096 l 11 1067 q -74 975 -43 1024 l -37 901 q -65 835 -37 864 q -135 806 -93 806 z "},"́":{"ha":0,"x_min":-181,"x_max":67,"o":"m -181 860 q -96 951 -126 903 l -132 1025 q -104 1092 -132 1063 q -35 1121 -76 1121 q 38 1091 8 1121 q 67 1015 67 1061 q 1 888 67 944 q -156 806 -64 831 l -181 860 z "},"̋":{"ha":0,"x_min":-536,"x_max":-25,"o":"m -536 860 q -451 951 -482 903 l -487 1025 q -460 1092 -487 1063 q -390 1121 -432 1121 q -318 1091 -347 1121 q -289 1015 -289 1061 q -354 888 -289 944 q -511 806 -419 831 l -536 860 m -272 860 q -187 951 -218 903 l -224 1025 q -196 1092 -224 1063 q -126 1121 -168 1121 q -54 1091 -83 1121 q -25 1015 -25 1061 q -90 888 -25 944 q -247 806 -156 831 l -272 860 z "},"̂":{"ha":0,"x_min":-503,"x_max":-36,"o":"m -503 901 l -269 1085 l -36 901 l -97 806 l -269 899 l -442 806 l -503 901 z "},"̌":{"ha":0,"x_min":-503,"x_max":-36,"o":"m -503 989 l -442 1085 l -269 992 l -97 1085 l -36 989 l -269 806 l -503 989 z "},"̆":{"ha":0,"x_min":-532,"x_max":-21,"o":"m -276 808 q -431 863 -361 808 q -532 1021 -501 918 l -436 1053 q -365 969 -407 997 q -276 940 -324 940 q -187 969 -231 940 q -117 1053 -144 999 l -21 1021 q -122 863 -51 918 q -276 808 -193 808 z "},"̊":{"ha":0,"x_min":-393,"x_max":-35,"o":"m -214 797 q -341 847 -289 797 q -393 971 -393 897 q -341 1094 -393 1044 q -214 1144 -289 1144 q -87 1094 -139 1144 q -35 971 -35 1044 q -87 847 -35 897 q -214 797 -139 797 m -214 896 q -164 918 -183 896 q -144 971 -144 940 q -164 1024 -144 1001 q -214 1046 -183 1046 q -264 1024 -244 1046 q -283 971 -283 1001 q -264 918 -283 940 q -214 896 -244 896 z "},"̃":{"ha":0,"x_min":-564,"x_max":-14,"o":"m -186 807 q -253 820 -222 807 q -325 858 -283 833 q -374 885 -356 876 q -411 894 -393 894 q -453 875 -433 894 q -489 810 -472 856 l -564 867 q -497 995 -542 953 q -392 1038 -451 1038 q -325 1024 -356 1038 q -253 986 -294 1011 q -203 959 -222 968 q -167 950 -185 950 q -125 969 -144 950 q -89 1035 -106 989 l -14 978 q -81 849 -36 892 q -186 807 -126 807 z "},"̄":{"ha":0,"x_min":-486,"x_max":-21,"o":"m -486 954 l -22 954 l -21 831 l -485 831 l -486 954 z "},"̒":{"ha":0,"x_min":-240,"x_max":7,"o":"m -139 806 q -211 835 -182 806 q -240 911 -240 865 q -175 1039 -240 982 q -18 1121 -110 1096 l 7 1067 q -78 975 -47 1024 l -42 901 q -69 835 -42 864 q -139 806 -97 806 z "},"̦":{"ha":0,"x_min":-218,"x_max":-15,"o":"m -218 -368 q -158 -269 -172 -307 l -215 -185 q -187 -119 -215 -149 q -117 -90 -160 -90 q -44 -120 -74 -90 q -15 -196 -15 -150 q -58 -319 -15 -250 q -194 -453 -101 -387 l -218 -368 z "},"̧":{"ha":0,"x_min":-344,"x_max":0,"o":"m -165 -337 q -264 -320 -215 -337 q -344 -275 -312 -303 l -303 -215 q -241 -248 -274 -236 q -183 -260 -208 -260 q -133 -217 -133 -260 q -237 -175 -133 -172 l -267 -156 l -203 31 l -103 24 l -147 -78 q -40 -123 -81 -89 q 0 -210 0 -157 q -49 -301 0 -265 q -165 -337 -97 -337 z "},"̨":{"ha":0,"x_min":-282,"x_max":0,"o":"m -124 -306 q -240 -269 -197 -306 q -282 -169 -282 -232 q -238 -58 -282 -104 q -131 10 -194 -11 l -4 0 q -114 -54 -72 -21 q -156 -129 -156 -87 q -134 -174 -156 -158 q -81 -190 -112 -190 q 0 -167 -39 -190 l -7 -274 q -58 -297 -28 -289 q -124 -306 -89 -306 z "},"̵":{"ha":0,"x_min":-646,"x_max":-135,"o":"m -632 478 l -135 478 l -149 360 l -646 360 l -632 478 z "},"̶":{"ha":0,"x_min":-686,"x_max":-133,"o":"m -672 478 l -133 478 l -147 360 l -686 360 l -672 478 z "},"̷":{"ha":0,"x_min":-567,"x_max":-139,"o":"m -567 407 l -165 707 l -139 572 l -540 272 l -567 407 z "},"̸":{"ha":0,"x_min":-917,"x_max":0,"o":"m -917 122 l -40 971 l 0 797 l -876 -51 l -917 122 z "},"´":{"ha":833,"x_min":93,"x_max":340,"o":"m 93 860 q 178 951 147 903 l 142 1025 q 169 1092 142 1063 q 239 1121 197 1121 q 311 1091 282 1121 q 340 1015 340 1061 q 275 888 340 944 q 118 806 210 831 l 93 860 z "},"˘":{"ha":833,"x_min":21,"x_max":532,"o":"m 276 808 q 122 863 192 808 q 21 1021 51 918 l 117 1053 q 188 969 146 997 q 276 940 229 940 q 365 969 322 940 q 436 1053 408 999 l 532 1021 q 431 863 501 918 q 276 808 360 808 z "},"ˇ":{"ha":833,"x_min":36,"x_max":503,"o":"m 36 989 l 97 1085 l 269 992 l 442 1085 l 503 989 l 269 806 l 36 989 z "},"¸":{"ha":833,"x_min":-11,"x_max":333,"o":"m 168 -337 q 69 -320 118 -337 q -11 -275 21 -303 l 31 -215 q 92 -248 60 -236 q 150 -260 125 -260 q 200 -217 200 -260 q 96 -175 200 -172 l 67 -156 l 131 31 l 231 24 l 186 -78 q 293 -123 253 -89 q 333 -210 333 -157 q 285 -301 333 -265 q 168 -337 236 -337 z "},"ˆ":{"ha":833,"x_min":36,"x_max":503,"o":"m 36 901 l 269 1085 l 503 901 l 442 806 l 269 899 l 97 806 l 36 901 z "},"¨":{"ha":833,"x_min":1,"x_max":543,"o":"m 110 814 q 33 846 65 814 q 1 924 1 878 q 35 1001 1 969 q 114 1033 68 1033 q 190 1001 158 1033 q 222 924 222 969 q 188 847 222 879 q 110 814 154 814 m 431 814 q 354 846 386 814 q 322 924 322 878 q 356 1001 322 968 q 435 1033 390 1033 q 511 1001 479 1033 q 543 924 543 969 q 511 846 543 878 q 431 814 479 814 z "},"˙":{"ha":833,"x_min":22,"x_max":236,"o":"m 128 819 q 53 851 85 819 q 22 925 22 882 q 55 999 22 968 q 131 1031 88 1031 q 205 999 174 1031 q 236 925 236 968 q 203 851 236 882 q 128 819 171 819 z "},"`":{"ha":833,"x_min":38,"x_max":285,"o":"m 139 806 q 67 835 96 806 q 38 911 38 865 q 103 1039 38 982 q 260 1121 168 1096 l 285 1067 q 200 975 231 1024 l 236 901 q 208 835 236 864 q 139 806 181 806 z "},"˝":{"ha":833,"x_min":78,"x_max":589,"o":"m 78 860 q 163 951 132 903 l 126 1025 q 154 1092 126 1063 q 224 1121 182 1121 q 296 1091 267 1121 q 325 1015 325 1061 q 260 888 325 944 q 103 806 194 831 l 78 860 m 342 860 q 426 951 396 903 l 390 1025 q 418 1092 390 1063 q 488 1121 446 1121 q 560 1091 531 1121 q 589 1015 589 1061 q 524 888 589 944 q 367 806 458 831 l 342 860 z "},"¯":{"ha":833,"x_min":19,"x_max":485,"o":"m 19 954 l 483 954 l 485 831 l 21 831 l 19 954 z "},"˛":{"ha":833,"x_min":0,"x_max":282,"o":"m 158 -306 q 42 -269 85 -306 q 0 -169 0 -232 q 44 -58 0 -104 q 151 10 88 -11 l 278 0 q 168 -54 210 -21 q 126 -129 126 -87 q 148 -174 126 -158 q 201 -190 169 -190 q 282 -167 243 -190 l 275 -274 q 224 -297 254 -289 q 158 -306 193 -306 z "},"˚":{"ha":833,"x_min":35,"x_max":393,"o":"m 214 797 q 87 847 139 797 q 35 971 35 897 q 87 1094 35 1044 q 214 1144 139 1144 q 341 1094 289 1144 q 393 971 393 1044 q 341 847 393 897 q 214 797 289 797 m 214 896 q 264 918 244 896 q 283 971 283 940 q 264 1024 283 1001 q 214 1046 244 1046 q 164 1024 183 1046 q 144 971 144 1001 q 164 918 144 940 q 214 896 183 896 z "},"˜":{"ha":833,"x_min":14,"x_max":564,"o":"m 392 807 q 325 820 356 807 q 253 858 294 833 q 203 885 222 876 q 167 894 185 894 q 125 875 144 894 q 89 810 106 856 l 14 867 q 81 995 36 953 q 186 1038 126 1038 q 253 1024 222 1038 q 325 986 283 1011 q 374 959 356 968 q 411 950 393 950 q 453 969 433 950 q 489 1035 472 989 l 564 978 q 497 849 542 892 q 392 807 451 807 z "},"ְ":{"ha":0,"x_min":343,"x_max":489,"o":"m 417 -260 q 365 -239 386 -260 q 343 -189 343 -218 q 365 -137 343 -158 q 417 -115 386 -115 q 468 -137 447 -115 q 489 -189 489 -158 q 468 -239 489 -218 q 417 -260 447 -260 m 417 -472 q 365 -451 386 -472 q 343 -400 343 -431 q 365 -349 343 -369 q 417 -328 386 -328 q 468 -349 447 -328 q 489 -400 489 -369 q 468 -451 489 -431 q 417 -472 447 -472 z "},"ֱ":{"ha":0,"x_min":103,"x_max":729,"o":"m 176 -260 q 124 -239 146 -260 q 103 -189 103 -218 q 124 -137 103 -158 q 176 -115 146 -115 q 228 -137 207 -115 q 249 -189 249 -158 q 228 -239 249 -218 q 176 -260 207 -260 m 417 -260 q 365 -239 386 -260 q 343 -189 343 -218 q 365 -137 343 -158 q 417 -115 386 -115 q 468 -137 447 -115 q 489 -189 489 -158 q 468 -239 489 -218 q 417 -260 447 -260 m 657 -260 q 605 -239 626 -260 q 583 -189 583 -218 q 605 -137 583 -158 q 657 -115 626 -115 q 708 -137 688 -115 q 729 -189 729 -158 q 708 -239 729 -218 q 657 -260 688 -260 m 296 -472 q 244 -451 265 -472 q 222 -400 222 -431 q 244 -349 222 -369 q 296 -328 265 -328 q 347 -349 326 -328 q 368 -400 368 -369 q 347 -451 368 -431 q 296 -472 326 -472 m 657 -472 q 605 -451 626 -472 q 583 -400 583 -431 q 605 -349 583 -369 q 657 -328 626 -328 q 708 -349 688 -328 q 729 -400 729 -369 q 708 -451 729 -431 q 657 -472 688 -472 z "},"ֲ":{"ha":0,"x_min":106,"x_max":733,"o":"m 661 -260 q 609 -239 631 -260 q 588 -189 588 -218 q 609 -137 588 -158 q 661 -115 631 -115 q 713 -137 692 -115 q 733 -189 733 -158 q 713 -239 733 -218 q 661 -260 692 -260 m 114 -140 l 479 -140 l 471 -235 l 106 -235 l 114 -140 m 661 -472 q 609 -451 631 -472 q 588 -400 588 -431 q 609 -349 588 -369 q 661 -328 631 -328 q 713 -349 692 -328 q 733 -400 733 -369 q 713 -451 733 -431 q 661 -472 692 -472 z "},"ֳ":{"ha":0,"x_min":106,"x_max":733,"o":"m 661 -260 q 609 -239 631 -260 q 588 -189 588 -218 q 609 -137 588 -158 q 661 -115 631 -115 q 713 -137 692 -115 q 733 -189 733 -158 q 713 -239 733 -218 q 661 -260 692 -260 m 243 -235 l 106 -235 l 114 -140 l 479 -140 l 471 -235 l 343 -235 l 354 -418 l 232 -418 l 243 -235 m 661 -472 q 609 -451 631 -472 q 588 -400 588 -431 q 609 -349 588 -369 q 661 -328 631 -328 q 713 -349 692 -328 q 733 -400 733 -369 q 713 -451 733 -431 q 661 -472 692 -472 z "},"ִ":{"ha":0,"x_min":343,"x_max":489,"o":"m 417 -260 q 365 -239 386 -260 q 343 -189 343 -218 q 365 -137 343 -158 q 417 -115 386 -115 q 468 -137 447 -115 q 489 -189 489 -158 q 468 -239 489 -218 q 417 -260 447 -260 z "},"ֵ":{"ha":0,"x_min":224,"x_max":610,"o":"m 297 -260 q 245 -239 267 -260 q 224 -189 224 -218 q 245 -137 224 -158 q 297 -115 267 -115 q 349 -137 328 -115 q 369 -189 369 -158 q 349 -239 369 -218 q 297 -260 328 -260 m 538 -260 q 485 -239 507 -260 q 464 -189 464 -218 q 485 -137 464 -158 q 538 -115 507 -115 q 589 -137 568 -115 q 610 -189 610 -158 q 589 -239 610 -218 q 538 -260 568 -260 z "},"ֶ":{"ha":0,"x_min":224,"x_max":610,"o":"m 297 -260 q 245 -239 267 -260 q 224 -189 224 -218 q 245 -137 224 -158 q 297 -115 267 -115 q 349 -137 328 -115 q 369 -189 369 -158 q 349 -239 369 -218 q 297 -260 328 -260 m 538 -260 q 485 -239 507 -260 q 464 -189 464 -218 q 485 -137 464 -158 q 538 -115 507 -115 q 589 -137 568 -115 q 610 -189 610 -158 q 589 -239 610 -218 q 538 -260 568 -260 m 417 -472 q 365 -451 386 -472 q 343 -400 343 -431 q 365 -349 343 -369 q 417 -328 386 -328 q 468 -349 447 -328 q 489 -400 489 -369 q 468 -451 489 -431 q 417 -472 447 -472 z "},"ַ":{"ha":0,"x_min":229,"x_max":603,"o":"m 238 -140 l 603 -140 l 594 -235 l 229 -235 l 238 -140 z "},"ָ":{"ha":0,"x_min":229,"x_max":603,"o":"m 367 -235 l 229 -235 l 238 -140 l 603 -140 l 594 -235 l 467 -235 l 478 -418 l 356 -418 l 367 -235 z "},"ֹ":{"ha":0,"x_min":347,"x_max":493,"o":"m 421 839 q 369 860 390 839 q 347 910 347 881 q 369 963 347 942 q 421 983 390 983 q 472 962 451 983 q 493 910 493 940 q 472 860 493 881 q 421 839 451 839 z "},"ֺ":{"ha":0,"x_min":347,"x_max":493,"o":"m 421 839 q 369 860 390 839 q 347 910 347 881 q 369 963 347 942 q 421 983 390 983 q 472 962 451 983 q 493 910 493 940 q 472 860 493 881 q 421 839 451 839 z "},"ֻ":{"ha":0,"x_min":344,"x_max":757,"o":"m 418 -260 q 366 -239 388 -260 q 344 -189 344 -218 q 366 -137 344 -158 q 418 -115 388 -115 q 469 -137 449 -115 q 490 -189 490 -158 q 469 -239 490 -218 q 418 -260 449 -260 m 551 -431 q 499 -410 521 -431 q 478 -360 478 -389 q 499 -308 478 -329 q 551 -286 521 -286 q 603 -308 582 -286 q 624 -360 624 -329 q 603 -410 624 -389 q 551 -431 582 -431 m 685 -601 q 633 -581 654 -601 q 611 -529 611 -560 q 633 -478 611 -499 q 685 -457 654 -457 q 736 -478 715 -457 q 757 -529 757 -499 q 736 -581 757 -560 q 685 -601 715 -601 z "},"ּ":{"ha":0,"x_min":343,"x_max":489,"o":"m 417 308 q 365 329 386 308 q 343 379 343 350 q 365 432 343 411 q 417 453 386 453 q 468 431 447 453 q 489 379 489 410 q 468 329 489 350 q 417 308 447 308 z "},"ׁ":{"ha":0,"x_min":347,"x_max":493,"o":"m 421 839 q 369 860 390 839 q 347 910 347 881 q 369 963 347 942 q 421 983 390 983 q 472 962 451 983 q 493 910 493 940 q 472 860 493 881 q 421 839 451 839 z "},"ׂ":{"ha":0,"x_min":347,"x_max":493,"o":"m 421 839 q 369 860 390 839 q 347 910 347 881 q 369 963 347 942 q 421 983 390 983 q 472 962 451 983 q 493 910 493 940 q 472 860 493 881 q 421 839 451 839 z "},"ׇ":{"ha":0,"x_min":229,"x_max":603,"o":"m 367 -235 l 229 -235 l 238 -140 l 603 -140 l 594 -235 l 467 -235 l 478 -418 l 356 -418 l 367 -235 z "}}}
